<svg xmlns="http://www.w3.org/2000/svg" width="84" height="61" viewBox="0 0 84 61">
  <metadata><?xpacket begin="﻿" id="W5M0MpCehiHzreSzNTczkc9d"?>
<x:xmpmeta xmlns:x="adobe:ns:meta/" x:xmptk="Adobe XMP Core 5.6-c138 79.159824, 2016/09/14-01:09:01        ">
   <rdf:RDF xmlns:rdf="http://www.w3.org/1999/02/22-rdf-syntax-ns#">
      <rdf:Description rdf:about=""/>
   </rdf:RDF>
</x:xmpmeta>
                                                                                                    
                                                                                                    
                                                                                                    
                                                                                                    
                                                                                                    
                                                                                                    
                                                                                                    
                                                                                                    
                                                                                                    
                                                                                                    
                                                                                                    
                                                                                                    
                                                                                                    
                                                                                                    
                                                                                                    
                                                                                                    
                                                                                                    
                                                                                                    
                                                                                                    
                                                                                                    
                           
<?xpacket end="w"?></metadata>
<defs>
    <style>
      .cls-1 {
        fill: #8b94bf;
        fill-rule: evenodd;
      }
    </style>
  </defs>
  <path class="cls-1" d="M1234.48,354.337h22.24a7.367,7.367,0,0,1,14.17,0h18.7a7.316,7.316,0,1,1,0,3.938h-18.7a7.367,7.367,0,0,1-14.17,0h-22.24a7.317,7.317,0,1,1,0-3.938h0Zm-5.6,41.045a7.317,7.317,0,1,1-7.36,7.316,7.333,7.333,0,0,1,7.36-7.316h0Zm34.93-22.635a7.317,7.317,0,1,1-7.09,9.286h-22.24a7.317,7.317,0,1,1,0-3.939h22.24A7.358,7.358,0,0,1,1263.81,372.747Z" transform="translate(-1220.03 -349)"/>
</svg>
