<?xml version="1.0" encoding="UTF-8"?>
<!DOCTYPE svg PUBLIC "-//W3C//DTD SVG 1.1//EN" "http://www.w3.org/Graphics/SVG/1.1/DTD/svg11.dtd">
<!-- Creator: CorelDRAW X8 -->
<svg xmlns="http://www.w3.org/2000/svg" xml:space="preserve" width="250px" height="250px" version="1.1" style="shape-rendering:geometricPrecision; text-rendering:geometricPrecision; image-rendering:optimizeQuality; fill-rule:evenodd; clip-rule:evenodd"
viewBox="0 0 250 250"
 xmlns:xlink="http://www.w3.org/1999/xlink">
 <defs>
  <style type="text/css">
   <![CDATA[
    .fil0 {fill:white;fill-rule:nonzero}
   ]]>
  </style>
 </defs>
 <g id="Layer_x0020_1">
  <metadata id="CorelCorpID_0Corel-Layer"/>
  <path class="fil0" d="M60 73c-3,-4 -3,-9 0,-13 4,-3 9,-3 13,0l52 52 52 -52c4,-3 9,-3 13,0 3,4 3,9 0,13l-52 52 52 52c3,4 3,9 0,13 -4,3 -9,3 -13,0l-52 -52 -52 52c-4,3 -9,3 -13,0 -3,-4 -3,-9 0,-13l52 -52 -52 -52z"/>
 </g>
</svg>
