<svg xmlns="http://www.w3.org/2000/svg" width="21" height="23" viewBox="0 0 21 23">
  <metadata><?xpacket begin="﻿" id="W5M0MpCehiHzreSzNTczkc9d"?>
<x:xmpmeta xmlns:x="adobe:ns:meta/" x:xmptk="Adobe XMP Core 5.6-c138 79.159824, 2016/09/14-01:09:01        ">
   <rdf:RDF xmlns:rdf="http://www.w3.org/1999/02/22-rdf-syntax-ns#">
      <rdf:Description rdf:about=""/>
   </rdf:RDF>
</x:xmpmeta>
                                                                                                    
                                                                                                    
                                                                                                    
                                                                                                    
                                                                                                    
                                                                                                    
                                                                                                    
                                                                                                    
                                                                                                    
                                                                                                    
                                                                                                    
                                                                                                    
                                                                                                    
                                                                                                    
                                                                                                    
                                                                                                    
                                                                                                    
                                                                                                    
                                                                                                    
                                                                                                    
                           
<?xpacket end="w"?></metadata>
<defs>
    <style>
      .cls-1 {
        fill: #fff;
        fill-rule: evenodd;
      }
    </style>
  </defs>
  <path id="icon" class="cls-1" d="M964.226,702.718l4.674-4.589c0.465-.446.362-0.761-0.288-0.761H966v-5.576a1.76,1.76,0,0,0-1.776-1.744h0a1.76,1.76,0,0,0-1.777,1.744v5.576h-2.61c-0.649,0-.752.316-0.287,0.762Zm10.181-1.434H971.72a0.439,0.439,0,0,0-.444.436v7.821H957.418V701.72a0.439,0.439,0,0,0-.444-0.436h-2.687a0.439,0.439,0,0,0-.444.436v8.922a2.435,2.435,0,0,0,2.454,2.409h16.1a2.435,2.435,0,0,0,2.454-2.409V701.72A0.439,0.439,0,0,0,974.407,701.284Z" transform="translate(-953.844 -690.063)"/>
</svg>
