<?xml version="1.0" encoding="UTF-8"?>
<!DOCTYPE svg PUBLIC "-//W3C//DTD SVG 1.1//EN" "http://www.w3.org/Graphics/SVG/1.1/DTD/svg11.dtd">
<!-- Creator: CorelDRAW X8 -->
<svg xmlns="http://www.w3.org/2000/svg" xml:space="preserve" width="250px" height="250px" version="1.1" style="shape-rendering:geometricPrecision; text-rendering:geometricPrecision; image-rendering:optimizeQuality; fill-rule:evenodd; clip-rule:evenodd"
viewBox="0 0 250 250"
 xmlns:xlink="http://www.w3.org/1999/xlink">
 <defs>
  <style type="text/css">
   <![CDATA[
    .fil0 {fill:white;fill-rule:nonzero}
   ]]>
  </style>
 </defs>
 <g id="Layer_x0020_1">
  <metadata id="CorelCorpID_0Corel-Layer"/>
  <path class="fil0" d="M6 117c0,0 80,-93 181,-43l-32 18c-9,-8 -20,-13 -32,-13 -13,0 -24,5 -33,14 -8,8 -13,19 -13,32 0,3 0,6 1,9l-13 7c-1,-5 -2,-10 -2,-16 0,-13 4,-25 11,-35 -23,11 -40,25 -49,33 10,10 19,19 28,25l-18 10c-10,-8 -20,-17 -29,-29l-6 -6 6 -6zm5 76c-4,2 -8,1 -10,-3 -2,-3 -1,-8 3,-9l34 -20 0 0 19 -10 0 0 10 -5 0 0 12 -7 0 0 15 -8 0 0 49 -28 0 0 15 -8 0 0 12 -7 0 0 1 0 0 0 21 -11 0 0 38 -22c4,-2 8,0 10,3 2,4 1,8 -3,10l-31 17c12,8 25,19 38,32l6 6 -6 7c0,0 -91,106 -193,40l-40 23zm176 -97l-9 5c3,7 5,15 5,24 0,13 -4,26 -12,36 25,-12 44,-28 53,-37 -13,-12 -25,-22 -37,-28zm-22 11l-14 8c1,3 2,7 2,10 0,17 -14,30 -30,30 -10,0 -18,-4 -23,-11l-15 8c2,2 4,4 5,6 9,8 20,13 33,13 13,0 24,-5 32,-13 9,-9 14,-20 14,-33 0,-6 -1,-12 -4,-18zm-92 51l-2 2c1,0 3,1 4,2 0,-1 -1,-2 -2,-4zm50 -63c6,0 12,2 16,5l-46 26c0,0 0,-1 0,-1 0,-16 13,-30 30,-30z"/>
 </g>
</svg>
