<?xml version="1.0" encoding="UTF-8"?>
<!DOCTYPE svg PUBLIC "-//W3C//DTD SVG 1.1//EN" "http://www.w3.org/Graphics/SVG/1.1/DTD/svg11.dtd">
<!-- Creator: CorelDRAW X8 -->
<svg xmlns="http://www.w3.org/2000/svg" xml:space="preserve" width="250px" height="250px" version="1.1" style="shape-rendering:geometricPrecision; text-rendering:geometricPrecision; image-rendering:optimizeQuality; fill-rule:evenodd; clip-rule:evenodd"
viewBox="0 0 250 250"
 xmlns:xlink="http://www.w3.org/1999/xlink">
 <defs>
  <style type="text/css">
   <![CDATA[
    .fil0 {fill:white;fill-rule:nonzero}
   ]]>
  </style>
 </defs>
 <g id="Layer_x0020_1">
  <metadata id="CorelCorpID_0Corel-Layer"/>
  <path class="fil0" d="M125 1c34,0 65,14 88,36 22,23 36,54 36,88 0,34 -14,65 -36,88 -23,22 -54,36 -88,36 -34,0 -65,-14 -88,-36 -22,-23 -36,-54 -36,-88 0,-34 14,-65 36,-88 23,-22 54,-36 88,-36zm25 84c0,-5 3,-8 8,-8 4,0 8,3 8,8l0 86c0,4 -4,8 -8,8 -5,0 -8,-4 -8,-8l0 -86zm-59 0c0,-5 4,-8 8,-8 5,0 8,3 8,8l0 86c0,4 -3,8 -8,8 -4,0 -8,-4 -8,-8l0 -86zm110 -36c-19,-20 -46,-32 -76,-32 -30,0 -57,12 -76,32 -20,19 -32,46 -32,76 0,30 12,57 32,76 19,20 46,32 76,32 30,0 57,-12 76,-32 20,-19 32,-46 32,-76 0,-30 -12,-57 -32,-76z"/>
 </g>
</svg>
