<?xml version="1.0" encoding="UTF-8"?>
<!DOCTYPE svg PUBLIC "-//W3C//DTD SVG 1.1//EN" "http://www.w3.org/Graphics/SVG/1.1/DTD/svg11.dtd">
<!-- Creator: CorelDRAW X8 -->
<svg xmlns="http://www.w3.org/2000/svg" xml:space="preserve" width="250px" height="250px" version="1.1" style="shape-rendering:geometricPrecision; text-rendering:geometricPrecision; image-rendering:optimizeQuality; fill-rule:evenodd; clip-rule:evenodd"
viewBox="0 0 250 250"
 xmlns:xlink="http://www.w3.org/1999/xlink">
 <defs>
  <style type="text/css">
   <![CDATA[
    .fil0 {fill:white;fill-rule:nonzero}
   ]]>
  </style>
 </defs>
 <g id="Layer_x0020_1">
  <metadata id="CorelCorpID_0Corel-Layer"/>
  <path class="fil0" d="M107 59l66 61c3,3 3,8 0,12l0 0 -65 59c-3,3 -8,3 -11,0 -2,-2 -3,-4 -3,-6l0 -120c-1,-4 3,-8 8,-8 2,0 4,1 5,2zm18 -59c34,0 66,14 88,37 23,22 37,54 37,88 0,34 -14,66 -37,88 -22,23 -54,37 -88,37 -34,0 -66,-14 -88,-37 -23,-22 -37,-54 -37,-88 0,-34 14,-66 37,-88 22,-23 54,-37 88,-37zm77 48c-20,-19 -47,-32 -77,-32 -30,0 -57,13 -77,32 -19,20 -32,47 -32,77 0,30 13,57 32,77 20,19 47,32 77,32 30,0 57,-13 77,-32 19,-20 32,-47 32,-77 0,-30 -13,-57 -32,-77zm-47 78l-45 -42 0 83 45 -41z"/>
 </g>
</svg>
