<svg id="icon" xmlns="http://www.w3.org/2000/svg" width="125" height="161.031" viewBox="0 0 125 161.031">
  <metadata><?xpacket begin="﻿" id="W5M0MpCehiHzreSzNTczkc9d"?>
<x:xmpmeta xmlns:x="adobe:ns:meta/" x:xmptk="Adobe XMP Core 5.6-c138 79.159824, 2016/09/14-01:09:01        ">
   <rdf:RDF xmlns:rdf="http://www.w3.org/1999/02/22-rdf-syntax-ns#">
      <rdf:Description rdf:about=""/>
   </rdf:RDF>
</x:xmpmeta>
                                                                                                    
                                                                                                    
                                                                                                    
                                                                                                    
                                                                                                    
                                                                                                    
                                                                                                    
                                                                                                    
                                                                                                    
                                                                                                    
                                                                                                    
                                                                                                    
                                                                                                    
                                                                                                    
                                                                                                    
                                                                                                    
                                                                                                    
                                                                                                    
                                                                                                    
                                                                                                    
                           
<?xpacket end="w"?></metadata>
<defs>
    <style>
      .cls-1 {
        fill: #d3d4d6;
        fill-rule: evenodd;
      }
    </style>
  </defs>
  <path id="icon_copy_3" data-name="icon copy 3" class="cls-1" d="M865.157,929.02h-12.8V929h-37.7v0.022h-12.8A30.962,30.962,0,0,1,771.01,898.1V885.865c0-34.521,40.781-25.479,37.118-44.417q-0.942-.919-1.826-1.906a45.045,45.045,0,0,1,0-59.021,35.837,35.837,0,0,1,54.411,0,45.046,45.046,0,0,1,0,59.021q-0.926,1.032-1.915,1.994c-3.506,18.867,37.207,9.8,37.207,44.329V898.1A30.96,30.96,0,0,1,865.157,929.02Zm-3.78-118.989a33.758,33.758,0,0,0-8.343-22.582,25.554,25.554,0,0,0-39.051,0,34.725,34.725,0,0,0,0,45.165,25.554,25.554,0,0,0,39.051,0A33.755,33.755,0,0,0,861.377,810.031Zm24.279,75.834c0-24.121-31.378-14.862-36.9-37.287a35.172,35.172,0,0,1-30.558-.03c-5.692,23.294-36.836,11.359-36.836,37.317V898.1a20.59,20.59,0,0,0,20.5,20.543h12.8v0.021l35.528,0,0.062,0h2.11v-0.021h12.8a20.59,20.59,0,0,0,20.5-20.543V885.865Zm-52.148,26.163a5.182,5.182,0,0,1-5.174-5.188V874.592a5.174,5.174,0,1,1,10.348,0V906.84A5.182,5.182,0,0,1,833.508,912.028Z" transform="translate(-771 -768)"/>
</svg>
