<svg id="ICON" xmlns="http://www.w3.org/2000/svg" width="166" height="134" viewBox="0 0 166 134">
  <metadata><?xpacket begin="﻿" id="W5M0MpCehiHzreSzNTczkc9d"?>
<x:xmpmeta xmlns:x="adobe:ns:meta/" x:xmptk="Adobe XMP Core 5.6-c138 79.159824, 2016/09/14-01:09:01        ">
   <rdf:RDF xmlns:rdf="http://www.w3.org/1999/02/22-rdf-syntax-ns#">
      <rdf:Description rdf:about=""/>
   </rdf:RDF>
</x:xmpmeta>
                                                                                                    
                                                                                                    
                                                                                                    
                                                                                                    
                                                                                                    
                                                                                                    
                                                                                                    
                                                                                                    
                                                                                                    
                                                                                                    
                                                                                                    
                                                                                                    
                                                                                                    
                                                                                                    
                                                                                                    
                                                                                                    
                                                                                                    
                                                                                                    
                                                                                                    
                                                                                                    
                           
<?xpacket end="w"?></metadata>
<defs>
    <style>
      .cls-1 {
        fill: #d0d3d4;
        fill-rule: evenodd;
      }
    </style>
  </defs>
  <path id="icon_" data-name="icon " class="cls-1" d="M769.584,796.013H879.412a18.6,18.6,0,0,1,13.127,5.409,18.3,18.3,0,0,1,5.452,13.02v4.491h0.419a18.6,18.6,0,0,1,13.123,5.411,18.3,18.3,0,0,1,5.456,13.018v74.222a18.3,18.3,0,0,1-5.456,13.018,18.6,18.6,0,0,1-13.123,5.411H788.579a18.6,18.6,0,0,1-13.124-5.411A18.3,18.3,0,0,1,770,911.584v-4.491h-0.416a18.61,18.61,0,0,1-13.126-5.41,18.3,18.3,0,0,1-5.452-13.019V814.442a18.3,18.3,0,0,1,5.452-13.02A18.6,18.6,0,0,1,769.584,796.013Zm9.359,115.571a9.5,9.5,0,0,0,2.832,6.748,9.649,9.649,0,0,0,6.8,2.81H898.41a9.639,9.639,0,0,0,6.8-2.81,9.486,9.486,0,0,0,2.836-6.748V837.362a9.492,9.492,0,0,0-2.836-6.749,9.644,9.644,0,0,0-6.8-2.81H788.579a9.653,9.653,0,0,0-6.8,2.81,9.5,9.5,0,0,0-2.832,6.749v74.222Zm-18.994-22.92a9.492,9.492,0,0,0,2.832,6.746,9.632,9.632,0,0,0,6.8,2.809H770V837.362a18.3,18.3,0,0,1,5.455-13.018,18.6,18.6,0,0,1,13.124-5.411H889.048v-4.491a9.494,9.494,0,0,0-2.832-6.748,9.648,9.648,0,0,0-6.8-2.81H769.584a9.645,9.645,0,0,0-6.8,2.81,9.49,9.49,0,0,0-2.832,6.748v74.222Zm44.323-18.711a6.162,6.162,0,0,1,4.343-1.794H812a28.931,28.931,0,0,1,4.14-9.639l-2.475-2.452a6.089,6.089,0,0,1,0-8.648,6.211,6.211,0,0,1,8.719,0l2.541,2.521a29.388,29.388,0,0,1,9.648-3.922v-3.61a6.069,6.069,0,0,1,1.807-4.311l0.012-.008a6.161,6.161,0,0,1,8.692,0h0.009a6.073,6.073,0,0,1,1.808,4.319v3.61a29.391,29.391,0,0,1,9.647,3.922l2.544-2.521a6.207,6.207,0,0,1,8.716,0,6.082,6.082,0,0,1,0,8.648l-2.471,2.452a28.862,28.862,0,0,1,4.136,9.639h3.386a6.164,6.164,0,0,1,4.346,1.794h0.009a6.06,6.06,0,0,1,0,8.642,6.17,6.17,0,0,1-4.355,1.794h-3.246a28.958,28.958,0,0,1-4.02,9.893l2.215,2.2a6.079,6.079,0,0,1,0,8.646,6.2,6.2,0,0,1-8.716,0L856.942,899a29.42,29.42,0,0,1-10.04,4.175v2.966a6.075,6.075,0,0,1-1.808,4.32,6.179,6.179,0,0,1-8.713,0v-0.009a6.061,6.061,0,0,1-1.807-4.311v-2.966A29.449,29.449,0,0,1,824.533,899l-2.151,2.131a6.2,6.2,0,0,1-8.716,0,6.086,6.086,0,0,1,0-8.646l2.218-2.2a28.859,28.859,0,0,1-4.02-9.89h-3.249a6.166,6.166,0,0,1-4.354-1.794v-0.008a6.045,6.045,0,0,1,0-8.623Zm65.912,5.287h2.676a0.979,0.979,0,0,0,.687-0.286,0.947,0.947,0,0,0,0-1.36l0-.006a0.991,0.991,0,0,0-.69-0.281h-2.7c0.02,0.428.029,0.859,0.029,1.289C870.193,874.809,870.19,875.026,870.184,875.24Zm-51.47-24.179a0.97,0.97,0,0,0-1.377,1.366l2.056,2.039c0.168-.179.343-0.356,0.517-0.531q0.429-.42.871-0.823Zm23-8.652a0.954,0.954,0,0,0-.289-0.678l0.006-.006a0.99,0.99,0,0,0-1.377,0l-0.009.006a0.982,0.982,0,0,0-.279.681v2.984c0.323-.012.649-0.015,0.975-0.015s0.649,0,.973.015v-2.984Zm22.429,8.652a0.99,0.99,0,0,0-1.38,0l-2.064,2.048c0.294,0.268.585,0.546,0.868,0.826,0.174,0.175.349,0.352,0.521,0.531l2.055-2.039A0.973,0.973,0,0,0,864.141,851.061Zm-1.377,46.428a0.992,0.992,0,0,0,1.377,0,0.973,0.973,0,0,0,0-1.366l-1.744-1.729c-0.27.291-.547,0.58-0.832,0.86-0.175.177-.352,0.347-0.533,0.517Zm-23,8.649a0.967,0.967,0,0,0,.285.685l0,0a0.972,0.972,0,0,0,1.371,0,0.961,0.961,0,0,0,.289-0.682V903.8c-0.324.008-.647,0.014-0.973,0.014s-0.652-.006-0.975-0.014v2.338Zm-13.531-17.156a20.627,20.627,0,0,0,29.009,0,20.232,20.232,0,0,0,0-28.776,20.639,20.639,0,0,0-29.009,0A20.239,20.239,0,0,0,826.233,888.982Zm-8.9,8.507a0.973,0.973,0,0,0,.687.278,0.985,0.985,0,0,0,.69-0.278l1.732-1.718c-0.183-.17-0.358-0.34-0.536-0.517-0.282-.28-0.559-0.569-0.832-0.86l-1.741,1.729A0.968,0.968,0,0,0,817.337,897.489Zm-9.411-22.529,0.006-.006a0.969,0.969,0,0,0,.683.286h2.676c0-.214-0.009-0.431-0.009-0.644,0-.43.012-0.861,0.029-1.289h-2.7a1,1,0,0,0-.687.278l0,0.009A0.969,0.969,0,0,0,807.926,874.96Zm23.713-9.409a12.938,12.938,0,0,1,18.214,0,12.693,12.693,0,0,1,0,18.072l-0.017.014a12.918,12.918,0,0,1-18.2,0l-0.017-.014a12.671,12.671,0,0,1,0-18.054Zm6.3,11.825a4.019,4.019,0,0,0,5.6,0,3.922,3.922,0,0,0-.006-5.553,4,4,0,0,0-5.59-.017l-0.017.017A3.945,3.945,0,0,0,837.936,877.376Z" transform="translate(-751 -796)"/>
</svg>
