<?xml version="1.0" encoding="UTF-8"?>
<!DOCTYPE svg PUBLIC "-//W3C//DTD SVG 1.1//EN" "http://www.w3.org/Graphics/SVG/1.1/DTD/svg11.dtd">
<!-- Creator: CorelDRAW X8 -->
<svg xmlns="http://www.w3.org/2000/svg" xml:space="preserve" width="250px" height="250px" version="1.1" style="shape-rendering:geometricPrecision; text-rendering:geometricPrecision; image-rendering:optimizeQuality; fill-rule:evenodd; clip-rule:evenodd"
viewBox="0 0 250 250"
 xmlns:xlink="http://www.w3.org/1999/xlink">
 <defs>
  <style type="text/css">
   <![CDATA[
    .fil0 {fill:white;fill-rule:nonzero}
   ]]>
  </style>
 </defs>
 <g id="Layer_x0020_1">
  <metadata id="CorelCorpID_0Corel-Layer"/>
  <path class="fil0" d="M73 136c-15,0 -29,-5 -39,-14 -10,-9 -17,-22 -17,-36 0,-13 5,-24 14,-33 8,-8 18,-13 29,-16 5,-10 13,-19 22,-25 11,-7 24,-11 38,-11 14,0 27,4 38,11 9,6 17,14 21,24 14,0 27,5 36,13 10,9 17,21 18,34 0,1 0,2 0,3 0,14 -7,27 -17,36 -10,9 -24,14 -39,14l-104 0zm-38 65l180 0c7,0 13,3 17,7l0 0c4,5 7,11 7,17 0,7 -3,13 -7,17l0 0c-5,4 -10,7 -17,7l-180 0c-7,0 -12,-3 -17,-7l0 0c-4,-4 -7,-10 -7,-17 0,-6 3,-12 7,-17l0 0c4,-4 10,-7 17,-7zm180 17l-180 0c-2,0 -4,0 -5,2l0 0c-2,1 -3,3 -3,5 0,2 1,4 3,6l0 0c1,1 3,2 5,2l180 0c2,0 4,-1 5,-2l0 0c2,-2 3,-4 3,-6 0,-2 -1,-4 -3,-5l0 0c-1,-2 -3,-2 -5,-2zm-180 -74l180 0c7,0 12,3 17,7l0 0c4,5 7,11 7,17 0,7 -3,13 -7,17l0 0c-5,4 -10,7 -17,7l-180 0c-7,0 -12,-3 -17,-7l0 0c-4,-4 -7,-10 -7,-17 0,-6 3,-12 7,-17l0 0c5,-4 10,-7 17,-7zm180 17l-180 0c-2,0 -4,0 -5,2l0 0c-2,1 -3,3 -3,5 0,2 1,4 3,6l0 0c1,1 3,2 5,2l180 0c2,0 4,-1 5,-2l0 0c2,-2 3,-4 3,-6 0,-2 -1,-4 -3,-5l0 0c-1,-2 -3,-2 -5,-2zm-170 -51c7,6 17,10 28,10l104 0c11,0 21,-4 28,-10 7,-6 11,-15 11,-24 0,-1 0,-1 0,-2 0,-9 -5,-17 -11,-22 -7,-6 -17,-10 -28,-10 -1,0 -2,0 -2,0l-6 1 -2 -6c-4,-9 -10,-16 -18,-21 -8,-6 -18,-9 -29,-9 -11,0 -21,3 -29,9 -8,5 -14,12 -17,21l-2 5 -5 0c-10,2 -18,6 -24,12 -6,6 -9,14 -9,22 0,9 4,18 11,24z"/>
 </g>
</svg>
