<?xml version="1.0" encoding="UTF-8"?>
<!DOCTYPE svg PUBLIC "-//W3C//DTD SVG 1.1//EN" "http://www.w3.org/Graphics/SVG/1.1/DTD/svg11.dtd">
<!-- Creator: CorelDRAW X8 -->
<svg xmlns="http://www.w3.org/2000/svg" xml:space="preserve" width="250px" height="250px" version="1.1" style="shape-rendering:geometricPrecision; text-rendering:geometricPrecision; image-rendering:optimizeQuality; fill-rule:evenodd; clip-rule:evenodd"
viewBox="0 0 250 250"
 xmlns:xlink="http://www.w3.org/1999/xlink">
 <defs>
  <style type="text/css">
   <![CDATA[
    .fil0 {fill:white;fill-rule:nonzero}
   ]]>
  </style>
 </defs>
 <g id="Layer_x0020_1">
  <metadata id="CorelCorpID_0Corel-Layer"/>
  <path class="fil0" d="M145 20c29,0 55,12 74,31 19,19 31,45 31,74 0,29 -12,55 -31,74 -19,19 -45,31 -74,31 -28,0 -55,-12 -73,-31 -15,-15 -26,-35 -30,-56l14 0c4,18 13,34 25,46 17,17 39,27 64,27 26,0 48,-10 65,-27 16,-16 26,-39 26,-64 0,-25 -10,-48 -26,-64 -17,-17 -39,-27 -65,-27 -25,0 -47,10 -64,27 -15,15 -24,35 -26,57l42 0c4,0 7,3 7,7 0,4 -3,7 -7,7l-90 0c-4,0 -7,-3 -7,-7 0,-4 3,-7 7,-7l34 0c2,-26 13,-50 31,-67 18,-19 45,-31 73,-31z"/>
 </g>
</svg>
