<?xml version="1.0" encoding="UTF-8"?>
<!DOCTYPE svg PUBLIC "-//W3C//DTD SVG 1.1//EN" "http://www.w3.org/Graphics/SVG/1.1/DTD/svg11.dtd">
<!-- Creator: CorelDRAW X8 -->
<svg xmlns="http://www.w3.org/2000/svg" xml:space="preserve" width="250px" height="250px" version="1.1" style="shape-rendering:geometricPrecision; text-rendering:geometricPrecision; image-rendering:optimizeQuality; fill-rule:evenodd; clip-rule:evenodd"
viewBox="0 0 250 250"
 xmlns:xlink="http://www.w3.org/1999/xlink">
 <defs>
  <style type="text/css">
   <![CDATA[
    .fil0 {fill:white;fill-rule:nonzero}
   ]]>
  </style>
 </defs>
 <g id="Layer_x0020_1">
  <metadata id="CorelCorpID_0Corel-Layer"/>
  <path class="fil0" d="M28 38l194 0c7,0 14,3 19,8 5,5 9,12 9,19l0 115c0,7 -4,14 -9,19 -5,5 -12,8 -19,8 -21,0 -39,0 -61,0 -3,0 -6,-2 -6,-6 0,-3 3,-6 6,-6l4 0 0 0 57 0c4,0 8,-2 10,-5 3,-2 5,-6 5,-10l0 -115c0,-4 -2,-8 -5,-10 -2,-3 -6,-5 -10,-5l-194 0c-4,0 -8,2 -11,5l0 0c-2,2 -4,6 -4,10l0 115c0,4 2,8 4,10l0 0c3,3 7,5 11,5l57 0 0 0 6 0c4,0 7,3 7,6 0,4 -3,6 -7,6 -22,0 -41,0 -63,0 -8,0 -15,-3 -20,-8l0 0c-5,-5 -8,-12 -8,-19l0 -115c0,-7 3,-14 8,-19l0 0c5,-5 12,-8 20,-8zm99 138c12,0 22,9 22,22 0,12 -10,22 -22,22 -12,0 -22,-10 -22,-22 0,-13 10,-22 22,-22zm-82 -69c4,0 8,3 10,6l64 0c2,-3 6,-6 10,-6 4,0 8,3 10,6l56 0c2,-3 6,-6 10,-6 6,0 11,6 11,12 0,6 -5,12 -11,12 -4,0 -8,-3 -10,-6l-56 0c-2,3 -6,6 -10,6 -4,0 -8,-3 -10,-6l-64 0c-2,3 -6,6 -10,6 -7,0 -12,-6 -12,-12 0,-6 5,-12 12,-12z"/>
 </g>
</svg>
