<?xml version="1.0" encoding="UTF-8"?>
<!DOCTYPE svg PUBLIC "-//W3C//DTD SVG 1.1//EN" "http://www.w3.org/Graphics/SVG/1.1/DTD/svg11.dtd">
<!-- Creator: CorelDRAW X8 -->
<svg xmlns="http://www.w3.org/2000/svg" xml:space="preserve" width="250px" height="250px" version="1.1" style="shape-rendering:geometricPrecision; text-rendering:geometricPrecision; image-rendering:optimizeQuality; fill-rule:evenodd; clip-rule:evenodd"
viewBox="0 0 250 250"
 xmlns:xlink="http://www.w3.org/1999/xlink">
 <defs>
  <style type="text/css">
   <![CDATA[
    .fil0 {fill:white;fill-rule:nonzero}
   ]]>
  </style>
 </defs>
 <g id="Layer_x0020_1">
  <metadata id="CorelCorpID_0Corel-Layer"/>
  <path class="fil0" d="M57 58l151 0 0 -7c0,-4 -2,-7 -4,-10 -3,-3 -7,-4 -11,-4l-165 0c-4,0 -8,1 -10,4 -3,3 -5,6 -5,10l0 113c0,4 2,8 5,10 2,3 6,4 10,4l1 0 0 -92c0,-8 3,-15 8,-20 5,-5 12,-8 20,-8zm164 0l1 0c8,0 15,3 20,8 5,5 8,12 8,20l0 113c0,7 -3,14 -8,20 -5,5 -12,8 -20,8l-165 0c-8,0 -15,-3 -20,-8 -5,-6 -8,-13 -8,-20l0 -7 -1 0c-8,0 -15,-3 -20,-8 -5,-5 -8,-12 -8,-20l0 -113c0,-7 3,-14 8,-20 5,-5 12,-8 20,-8l165 0c8,0 15,3 20,8 5,6 8,13 8,20l0 7zm1 14l-165 0c-4,0 -8,1 -11,4 -2,2 -4,6 -4,10l0 113c0,4 2,7 4,10 3,3 7,4 11,4l165 0c4,0 8,-1 10,-4 3,-3 5,-6 5,-10l0 -113c0,-4 -2,-8 -5,-10 -2,-3 -6,-4 -10,-4z"/>
  <path class="fil0" d="M125 67c3,0 5,1 7,3l0 0c1,2 2,4 2,7l0 5c6,1 10,3 15,6l4 -4c1,-2 4,-3 6,-3 3,0 5,1 7,3 2,2 3,4 3,7 0,2 -1,5 -3,6l-4 4c3,4 5,9 6,15l5 0c3,0 5,1 7,2l0 0c2,2 3,4 3,7 0,3 -1,5 -3,7 -2,1 -4,2 -7,2l-4 0c-2,6 -4,11 -7,15l4 4c2,1 3,4 3,6 0,3 -1,5 -3,7 -2,2 -4,3 -7,3 -2,0 -5,-1 -6,-3l-4 -3c-4,3 -9,5 -15,6l0 4c0,3 -1,5 -2,7 -2,2 -4,3 -7,3 -3,0 -5,-1 -7,-3l0 0c-1,-2 -2,-4 -2,-7l0 -4c-6,-1 -11,-3 -15,-6l-4 3c-1,2 -4,3 -6,3 -3,0 -5,-1 -7,-3 -2,-2 -3,-4 -3,-7 0,-2 1,-5 3,-6l4 -4c-3,-4 -5,-9 -7,-15l-4 0c-3,0 -5,-1 -7,-2l0 0c-2,-2 -3,-4 -3,-7 0,-3 1,-5 3,-7l0 0c2,-1 4,-2 7,-2l5 0c1,-6 3,-11 6,-15l-4 -4c-2,-1 -3,-4 -3,-6 0,-3 1,-5 3,-7 2,-2 4,-3 7,-3 2,0 5,1 6,3l4 4c5,-3 9,-5 15,-6l0 -5c0,-3 1,-5 2,-7l0 0c2,-2 4,-3 7,-3zm1 14l0 -4c0,-1 0,-1 0,-1l0 0c0,-1 -1,-1 -1,-1 0,0 -1,0 -1,1l0 0c0,0 0,0 0,1l0 4c0,0 1,0 1,0 0,0 1,0 1,0zm29 12c1,0 1,1 1,1 1,0 1,1 1,1l3 -3c1,0 1,-1 1,-1 0,-1 0,-1 -1,-1 0,-1 0,-1 -1,-1 0,0 -1,0 -1,1l-3 3zm14 31c0,0 0,1 0,1 0,1 0,1 0,1l4 0c1,0 1,0 1,0 1,0 1,-1 1,-1 0,0 0,-1 -1,-1l0 0c0,0 0,0 -1,0l-4 0zm-11 32c-1,0 -1,0 -2,1 0,0 0,0 0,1l2 2c0,1 1,1 1,1 1,0 1,0 1,-1 1,0 1,0 1,-1 0,0 0,-1 -1,-1l-2 -2zm-32 14c0,0 -1,0 -1,0 0,0 -1,0 -1,0l0 3c0,1 0,1 0,1l0 0c0,1 1,1 1,1 0,0 1,0 1,-1 0,0 0,0 0,-1l0 -3zm-32 -12c0,-1 0,-1 0,-1 -1,-1 -1,-1 -2,-1l-2 2c-1,0 -1,1 -1,1 0,1 0,1 1,1 0,1 0,1 1,1 0,0 1,0 1,-1l2 -2zm-13 -32c0,0 0,0 0,-1 0,0 0,-1 0,-1l-4 0c-1,0 -1,0 -1,0l0 0c-1,0 -1,1 -1,1 0,0 0,1 1,1l0 0c0,0 0,0 1,0l4 0zm12 -31c0,0 0,-1 1,-1 0,0 0,-1 1,-1l-3 -3c0,-1 -1,-1 -1,-1 -1,0 -1,0 -1,1 -1,0 -1,0 -1,1 0,0 0,1 1,1l3 3zm32 11c5,0 10,2 14,6 3,3 5,8 5,13 0,6 -2,11 -5,14l0 0c-4,4 -9,6 -14,6 -5,0 -10,-2 -14,-6l0 0c-3,-3 -5,-8 -5,-14 0,-5 2,-10 5,-13l0 0c4,-4 9,-6 14,-6zm4 15c-1,-1 -2,-1 -4,-1 -2,0 -3,0 -4,1l0 0c-1,1 -2,3 -2,4 0,2 1,4 2,5 1,1 2,1 4,1 2,0 3,0 4,-1 1,-1 2,-3 2,-5 0,-1 -1,-3 -2,-4zm18 -17c-6,-6 -13,-9 -22,-9 -9,0 -16,3 -22,9 -5,5 -9,13 -9,21 0,9 4,17 9,22 6,6 13,9 22,9 9,0 16,-3 22,-9 5,-5 9,-13 9,-22 0,-8 -4,-16 -9,-21z"/>
 </g>
</svg>
