<?xml version="1.0" encoding="UTF-8"?>
<!DOCTYPE svg PUBLIC "-//W3C//DTD SVG 1.1//EN" "http://www.w3.org/Graphics/SVG/1.1/DTD/svg11.dtd">
<!-- Creator: CorelDRAW X8 -->
<svg xmlns="http://www.w3.org/2000/svg" xml:space="preserve" width="250px" height="250px" version="1.1" style="shape-rendering:geometricPrecision; text-rendering:geometricPrecision; image-rendering:optimizeQuality; fill-rule:evenodd; clip-rule:evenodd"
viewBox="0 0 250 250"
 xmlns:xlink="http://www.w3.org/1999/xlink">
 <defs>
  <style type="text/css">
   <![CDATA[
    .fil0 {fill:white;fill-rule:nonzero}
   ]]>
  </style>
 </defs>
 <g id="Layer_x0020_1">
  <metadata id="CorelCorpID_0Corel-Layer"/>
  <g id="_778914576">
   <path class="fil0" d="M125 12c17,0 33,10 44,28 7,10 12,23 14,38 7,2 12,6 16,11 5,5 7,13 7,20 0,9 -3,17 -8,23 -3,3 -6,5 -10,7 -2,2 -6,5 -10,8 -3,6 -6,13 -9,18 -11,17 -27,28 -44,28 -17,0 -33,-11 -44,-28 -4,-7 -8,-15 -11,-23 -7,-2 -13,-5 -18,-10 -5,-6 -8,-14 -8,-23 0,-7 2,-15 7,-20 4,-5 9,-9 15,-11 3,-15 8,-28 15,-38 11,-18 27,-28 44,-28zm30 145c-9,2 -20,3 -32,0 -5,-2 -7,-6 -6,-10 1,-5 6,-7 10,-6 15,4 28,0 38,-5 3,-10 4,-21 4,-34 0,-21 -5,-40 -14,-54 -8,-12 -18,-20 -30,-20 -12,0 -22,8 -30,20 -9,14 -15,33 -15,54 0,22 6,41 15,54 8,13 18,21 30,21 11,0 22,-8 30,-20z"/>
   <path class="fil0" d="M125 0c20,0 38,11 51,30 11,17 19,40 20,66l-9 0c-1,-24 -8,-45 -19,-61 -11,-16 -26,-26 -43,-26 -17,0 -32,10 -43,26 -11,16 -18,37 -19,61l-9 0c1,-26 9,-49 20,-66 13,-19 31,-30 51,-30z"/>
   <path class="fil0" d="M81 169c-2,3 -2,7 0,10 0,1 2,3 3,4 6,5 17,12 30,15 3,1 7,1 11,1l0 0c4,0 8,0 11,-1 13,-3 24,-10 30,-15 1,-1 3,-3 3,-4 2,-3 2,-7 0,-10 -15,19 -30,24 -44,24 -14,0 -29,-5 -44,-24zm47 44l0 0c-1,0 -2,0 -3,0l0 0c-1,0 -2,0 -3,0l0 0c-4,-1 -8,-1 -11,-2 -16,-3 -29,-11 -36,-18 -2,-2 -4,-4 -5,-6 -12,-17 6,-34 6,-34l6 -5 5 6c12,17 24,24 35,24l0 0c1,0 2,0 3,0 1,0 2,0 3,0l0 0c11,0 23,-7 35,-24l5 -6 6 5c0,0 18,17 6,34 -1,2 -3,4 -5,6 -7,7 -20,15 -36,18 -3,1 -7,1 -11,2z"/>
   <path class="fil0" d="M63 171l9 0 0 14 -9 0c-7,0 -14,3 -19,7 -4,5 -7,12 -7,19 0,7 3,13 7,18 5,5 12,8 19,8l124 0c7,0 14,-3 19,-8 4,-5 7,-11 7,-18 0,-7 -3,-14 -7,-19 -5,-4 -12,-7 -19,-7l-7 0 0 -14 7 0c11,0 21,5 28,12l0 0c7,7 12,17 12,28 0,11 -5,21 -12,28l0 0c-7,7 -17,11 -28,11l-124 0c-11,0 -21,-4 -28,-11l0 0c-7,-7 -12,-17 -12,-28 0,-11 5,-21 12,-28l0 0c7,-7 17,-12 28,-12z"/>
  </g>
 </g>
</svg>
