<svg xmlns="http://www.w3.org/2000/svg" width="84.942" height="78" viewBox="0 0 84.942 78">
  <metadata><?xpacket begin="﻿" id="W5M0MpCehiHzreSzNTczkc9d"?>
<x:xmpmeta xmlns:x="adobe:ns:meta/" x:xmptk="Adobe XMP Core 5.6-c138 79.159824, 2016/09/14-01:09:01        ">
   <rdf:RDF xmlns:rdf="http://www.w3.org/1999/02/22-rdf-syntax-ns#">
      <rdf:Description rdf:about=""/>
   </rdf:RDF>
</x:xmpmeta>
                                                                                                    
                                                                                                    
                                                                                                    
                                                                                                    
                                                                                                    
                                                                                                    
                                                                                                    
                                                                                                    
                                                                                                    
                                                                                                    
                                                                                                    
                                                                                                    
                                                                                                    
                                                                                                    
                                                                                                    
                                                                                                    
                                                                                                    
                                                                                                    
                                                                                                    
                                                                                                    
                           
<?xpacket end="w"?></metadata>
<defs>
    <style>
      .cls-1 {
        fill: #8b94bf;
        fill-rule: evenodd;
      }
    </style>
  </defs>
  <path id="icon_" data-name="icon  " class="cls-1" d="M959.973,1168.1h10.708a2.4,2.4,0,0,1,.927.19,2.306,2.306,0,0,1,.789.53,2.467,2.467,0,0,1,.529,2.67,2.38,2.38,0,0,1-.527.79l-0.012.01a2.458,2.458,0,0,1-.784.53,2.372,2.372,0,0,1-.922.18H959.973a5.087,5.087,0,0,0-.962.1,4.736,4.736,0,0,0-.92.28,5.319,5.319,0,0,0-.855.46,4.854,4.854,0,0,0-.751.62l-0.012.02a4.588,4.588,0,0,0-.609.75,4.9,4.9,0,0,0-.458.86,4.766,4.766,0,0,0-.279.93,4.884,4.884,0,0,0-.095.96v39.43a5.063,5.063,0,0,0,.095.97,5.043,5.043,0,0,0,1.356,2.55,4.94,4.94,0,0,0,.756.62,5.306,5.306,0,0,0,.853.47,5.527,5.527,0,0,0,.921.28,5.065,5.065,0,0,0,.96.09H987.29l-0.016.04a2.355,2.355,0,0,1,.59.17,2.6,2.6,0,0,1,.728.51l0.011,0.01a2.464,2.464,0,0,1,.518,2.66,2.4,2.4,0,0,1-.527.79l-0.026.03a2.387,2.387,0,0,1-.778.51,2.334,2.334,0,0,1-.913.18h-26.9a9.222,9.222,0,0,1-1.9-.19,8.923,8.923,0,0,1-1.834-.56,9.68,9.68,0,0,1-1.693-.92,9.5,9.5,0,0,1-1.489-1.23,9.961,9.961,0,0,1-1.224-1.5,10.216,10.216,0,0,1-.909-1.71,9.874,9.874,0,0,1-.745-3.77v-39.43a10,10,0,0,1,.187-1.92,9.866,9.866,0,0,1,.558-1.85,10.216,10.216,0,0,1,.909-1.71,10.084,10.084,0,0,1,1.224-1.5,10.194,10.194,0,0,1,1.489-1.23,9.68,9.68,0,0,1,1.693-.92,10.293,10.293,0,0,1,1.833-.56,9.975,9.975,0,0,1,1.906-.19h0Zm14.118,54.48h2.577l0.086-.01H981.5c-2.4-.03-4.9-0.02-7.407.01h0Zm42.8-6.06a3.771,3.771,0,0,1,.89,1.23,3.823,3.823,0,0,1,.33,1.56,3.807,3.807,0,0,1-3.76,3.8l-5.95,7.3a2.4,2.4,0,0,1-4.24-1.3,2.444,2.444,0,0,1,.53-1.78l5.95-7.3-0.04-.31a2.934,2.934,0,0,1-.03-0.41,3.816,3.816,0,0,1,1.51-3.04v-7.97a2.405,2.405,0,1,1,4.81,0v8.22h0Zm-3.09-18.5a21.044,21.044,0,0,0-8.14,1.63,21.415,21.415,0,0,0-11.552,11.64,21.6,21.6,0,0,0,4.628,23.42,21.332,21.332,0,0,0,6.924,4.66,21.165,21.165,0,0,0,16.29,0,21.273,21.273,0,0,0,6.92-4.66,21.594,21.594,0,0,0,0-30.4,21.273,21.273,0,0,0-6.92-4.66,21.057,21.057,0,0,0-8.15-1.63h0Zm11.67,9.73a16.461,16.461,0,0,0-17.98-3.62,16.7,16.7,0,0,0-5.35,27.14,16.412,16.412,0,0,0,5.35,3.61,16.414,16.414,0,0,0,17.98-3.61,16.713,16.713,0,0,0,0-23.52h0Zm1.69-14.17a2.377,2.377,0,0,1-.19.93,2.2,2.2,0,0,1-.53.8l-0.01.01a2.452,2.452,0,0,1-.78.53,2.6,2.6,0,0,1-.92.18,2.415,2.415,0,0,1-.93-0.19,2.245,2.245,0,0,1-.79-0.53l-0.02-.03a2.245,2.245,0,0,1-.51-0.78,2.323,2.323,0,0,1-.18-0.92v-15.6a5.041,5.041,0,0,0-.09-0.96,5.3,5.3,0,0,0-.28-0.93,4.7,4.7,0,0,0-.46-0.86,5.071,5.071,0,0,0-1.38-1.39,4.35,4.35,0,0,0-.85-0.46,4.673,4.673,0,0,0-.92-0.28,5.04,5.04,0,0,0-.96-0.1c-0.97,0-2.07.03-3.24,0.05a71.432,71.432,0,0,1-7.27-.06,2.438,2.438,0,0,1-2.09-1.53,2.39,2.39,0,0,1,0-1.82,2.369,2.369,0,0,1,.5-0.78l0.02-.02a2.3,2.3,0,0,1,.72-0.51,2.425,2.425,0,0,1,.85-0.22,66.157,66.157,0,0,1,7.25-.06c1.16,0.02,2.27.05,3.26,0.05a10.057,10.057,0,0,1,1.91.19,10.466,10.466,0,0,1,1.83.56,10.08,10.08,0,0,1,3.18,2.15,9.755,9.755,0,0,1,1.22,1.5,9.351,9.351,0,0,1,.91,1.71,8.991,8.991,0,0,1,.56,1.85,10.162,10.162,0,0,1,.19,1.92v15.6h0Zm-63.715-3.61h26.976a2.325,2.325,0,0,0,.914-0.18,2.411,2.411,0,0,0,.776-0.51l0.028-.03a2.393,2.393,0,0,0,.526-0.79,2.481,2.481,0,0,0,.186-0.94,2.448,2.448,0,0,0-.183-0.93,2.4,2.4,0,0,0-.521-0.79l-0.011-.01a2.3,2.3,0,0,0-.787-0.53,2.4,2.4,0,0,0-.928-0.19H963.445a2.374,2.374,0,0,0-.921.19,2.413,2.413,0,0,0-.785.52l-0.014.01a2.575,2.575,0,0,0-.524.79,2.481,2.481,0,0,0,0,1.88,2.352,2.352,0,0,0,.528.79,2.3,2.3,0,0,0,.787.53,2.41,2.41,0,0,0,.929.19h0Zm0,22.71h7.39a2.374,2.374,0,0,0,.921-0.18,2.462,2.462,0,0,0,.785-0.53l0.009-.01a2.367,2.367,0,0,0,.528-0.79,2.474,2.474,0,0,0,0-1.87,2.382,2.382,0,0,0-.522-0.79l-0.01-.01a2.3,2.3,0,0,0-.787-0.53,2.4,2.4,0,0,0-.927-0.19h-7.39a2.41,2.41,0,0,0-.929.19,2.306,2.306,0,0,0-.789.53,2.393,2.393,0,0,0-.526.79,2.481,2.481,0,0,0-.185.94,2.4,2.4,0,0,0,.179.92,2.484,2.484,0,0,0,.508.79l0.024,0.02a2.479,2.479,0,0,0,.79.54,2.6,2.6,0,0,0,.928.18h0Zm0-11.59H980.04a2.411,2.411,0,0,0,.93-0.19,2.3,2.3,0,0,0,.787-0.53,2.463,2.463,0,0,0,.528-2.67,2.365,2.365,0,0,0-.527-0.79,2.287,2.287,0,0,0-.789-0.53,2.41,2.41,0,0,0-.929-0.19H963.445a2.569,2.569,0,0,0-.922.18,2.632,2.632,0,0,0-.784.53l-0.014.01a2.575,2.575,0,0,0-.524.79,2.474,2.474,0,0,0-.007,1.86,2.6,2.6,0,0,0,.509.79l0.024,0.02a2.3,2.3,0,0,0,.789.53,2.406,2.406,0,0,0,.929.19h0Zm38.965-25.43a2.415,2.415,0,0,1-.19.93,2.379,2.379,0,0,1-.53.8l-0.01.01a2.457,2.457,0,0,1-1.7.71,2.4,2.4,0,0,1-.928-0.19,2.631,2.631,0,0,1-.789-0.53l-0.024-.03a2.442,2.442,0,0,1-.509-0.78,2.471,2.471,0,0,1-.179-0.92v-10.21a2.481,2.481,0,0,1,.185-0.94,2.4,2.4,0,0,1,.527-0.79,2.485,2.485,0,0,1,.789-0.54,2.394,2.394,0,0,1,.928-0.18,2.449,2.449,0,0,1,.933.18,2.481,2.481,0,0,1,.78.54h0.01a2.51,2.51,0,0,1,.52.8,2.415,2.415,0,0,1,.19.93v10.21h0Zm-22.758,0v-10.21a2.48,2.48,0,0,0-.184-0.94,2.385,2.385,0,0,0-.529-0.79,2.508,2.508,0,0,0-.789-0.54,2.462,2.462,0,0,0-1.848,0,2.313,2.313,0,0,0-.786.53l-0.01.01a2.411,2.411,0,0,0-.527.79,2.462,2.462,0,0,0-.185.94v10.21a2.486,2.486,0,0,0,.183.93,2.522,2.522,0,0,0,.524.79l0.01,0.01a2.447,2.447,0,0,0,.784.53,2.4,2.4,0,0,0,.928.19,2.379,2.379,0,0,0,.922-0.19,2.43,2.43,0,0,0,.784-0.52l0.012-.01a2.547,2.547,0,0,0,.527-0.8,2.429,2.429,0,0,0,.184-0.93h0ZM983.2,1173h10.122a2.236,2.236,0,0,0,.929-0.19,2.287,2.287,0,0,0,.789-0.53,2.4,2.4,0,0,0,.527-0.79,2.5,2.5,0,0,0,.184-0.94,2.452,2.452,0,0,0-.179-0.92,2.423,2.423,0,0,0-.508-0.78l-0.024-.03a2.287,2.287,0,0,0-.789-0.53,2.406,2.406,0,0,0-.929-0.19H983.2a2.53,2.53,0,0,0-.913.18,2.579,2.579,0,0,0-.777.51l-0.027.03a2.566,2.566,0,0,0-.527.79,2.468,2.468,0,0,0,0,1.88,2.37,2.37,0,0,0,.529.79,2.477,2.477,0,0,0,.787.54A2.394,2.394,0,0,0,983.2,1173Z" transform="translate(-950.188 -1163)"/>
</svg>
