<svg xmlns="http://www.w3.org/2000/svg" width="61.974" height="80" viewBox="0 0 61.974 80">
  <metadata><?xpacket begin="﻿" id="W5M0MpCehiHzreSzNTczkc9d"?>
<x:xmpmeta xmlns:x="adobe:ns:meta/" x:xmptk="Adobe XMP Core 5.6-c138 79.159824, 2016/09/14-01:09:01        ">
   <rdf:RDF xmlns:rdf="http://www.w3.org/1999/02/22-rdf-syntax-ns#">
      <rdf:Description rdf:about=""/>
   </rdf:RDF>
</x:xmpmeta>
                                                                                                    
                                                                                                    
                                                                                                    
                                                                                                    
                                                                                                    
                                                                                                    
                                                                                                    
                                                                                                    
                                                                                                    
                                                                                                    
                                                                                                    
                                                                                                    
                                                                                                    
                                                                                                    
                                                                                                    
                                                                                                    
                                                                                                    
                                                                                                    
                                                                                                    
                                                                                                    
                           
<?xpacket end="w"?></metadata>
<defs>
    <style>
      .cls-1 {
        fill: #8b94bf;
        fill-rule: evenodd;
      }
    </style>
  </defs>
  <path id="icon_copy_5" data-name="icon copy 5" class="cls-1" d="M1007.84,694.01h-6.35V694H982.8v0.011h-6.346a15.369,15.369,0,0,1-15.3-15.362v-6.081c0-17.153,20.22-12.66,18.4-22.071-0.312-.3-0.613-0.621-0.9-0.947a22.417,22.417,0,0,1,0-29.327,17.747,17.747,0,0,1,26.981,0,22.42,22.42,0,0,1,0,29.327c-0.31.342-.63,0.672-0.95,0.991-1.74,9.375,18.45,4.87,18.45,22.027v6.081a15.359,15.359,0,0,1-4.5,10.851A15.2,15.2,0,0,1,1007.84,694.01Zm-1.87-59.125a16.823,16.823,0,0,0-4.14-11.221,12.654,12.654,0,0,0-19.363,0,17.284,17.284,0,0,0,0,22.443,12.654,12.654,0,0,0,19.363,0A16.822,16.822,0,0,0,1005.97,634.885ZM1018,672.567c0-11.986-15.55-7.385-18.293-18.528a17.4,17.4,0,0,1-15.151-.015c-2.823,11.575-18.264,5.644-18.264,18.543v6.081a10.221,10.221,0,0,0,10.163,10.208H982.8v0.01h18.689v-0.01h6.35A10.209,10.209,0,0,0,1018,678.648v-6.081Zm-25.852,13a2.572,2.572,0,0,1-2.566-2.578V666.965a2.566,2.566,0,1,1,5.131,0v16.024A2.572,2.572,0,0,1,992.148,685.567Z" transform="translate(-961.156 -614)"/>
</svg>
