<svg xmlns="http://www.w3.org/2000/svg" width="85.94" height="77.031" viewBox="0 0 85.94 77.031">
  <metadata><?xpacket begin="﻿" id="W5M0MpCehiHzreSzNTczkc9d"?>
<x:xmpmeta xmlns:x="adobe:ns:meta/" x:xmptk="Adobe XMP Core 5.6-c138 79.159824, 2016/09/14-01:09:01        ">
   <rdf:RDF xmlns:rdf="http://www.w3.org/1999/02/22-rdf-syntax-ns#">
      <rdf:Description rdf:about=""/>
   </rdf:RDF>
</x:xmpmeta>
                                                                                                    
                                                                                                    
                                                                                                    
                                                                                                    
                                                                                                    
                                                                                                    
                                                                                                    
                                                                                                    
                                                                                                    
                                                                                                    
                                                                                                    
                                                                                                    
                                                                                                    
                                                                                                    
                                                                                                    
                                                                                                    
                                                                                                    
                                                                                                    
                                                                                                    
                                                                                                    
                           
<?xpacket end="w"?></metadata>
<defs>
    <style>
      .cls-1 {
        fill: #8b94bf;
        fill-rule: evenodd;
      }
    </style>
  </defs>
  <path id="icon_" data-name="icon " class="cls-1" d="M1231.62,891.977h60.82a12.607,12.607,0,0,1,8.87,3.628,12.2,12.2,0,0,1,3.69,8.727v52.231a12.2,12.2,0,0,1-3.69,8.727,12.437,12.437,0,0,1-2.11,1.676c-6.03,4.308-11.43.24-16.71-3.732-3.19-2.407-6.33-4.766-8.75-3.8-1.65.661-2.95,2.6-4.17,4.418-4.04,6.054-10.66,6.009-15.8,1.358-1.84-1.669-3.76-3.41-5.46-3.631-2.13-.276-4.31,1.323-6.57,2.978-3.79,2.78-7.74,5.678-13.47,3.913a12.636,12.636,0,0,1-5.52-3.18,12.2,12.2,0,0,1-3.69-8.727V904.332a12.2,12.2,0,0,1,3.69-8.727,12.607,12.607,0,0,1,8.87-3.628h0Zm7.67,36.432a5.093,5.093,0,1,0,5.18,5.092,5.138,5.138,0,0,0-5.18-5.092h0Zm0-18.961a5.093,5.093,0,1,0,5.18,5.093,5.137,5.137,0,0,0-5.18-5.093h0Zm15.29,8.11h32.82a2.508,2.508,0,1,0,0-5.015h-32.82a2.508,2.508,0,1,0,0,5.015h0Zm0,18.961h32.82a2.508,2.508,0,1,0,0-5.015h-32.82a2.508,2.508,0,1,0,0,5.015h0Zm44.36,23.648a7.241,7.241,0,0,0,.96-3.6V904.332a7.268,7.268,0,0,0-2.19-5.182,7.5,7.5,0,0,0-5.27-2.158h-60.82a7.517,7.517,0,0,0-5.27,2.158,7.268,7.268,0,0,0-2.19,5.182v52.231a7.268,7.268,0,0,0,2.19,5.183,7.446,7.446,0,0,0,1.29,1.015c4.62,2.5,7.92.085,11.06-2.219,3.09-2.27,6.08-4.462,10.26-3.918,3.32,0.432,5.84,2.715,8.26,4.9,2.72,2.465,5.93,2.856,8.11-.42,1.65-2.464,3.4-5.078,6.5-6.317,5.11-2.038,9.39,1.181,13.75,4.467S1294.41,965.907,1298.94,960.167Z" transform="translate(-1219.06 -891.969)"/>
</svg>
