<svg xmlns="http://www.w3.org/2000/svg" width="67" height="73" viewBox="0 0 67 73">
  <metadata><?xpacket begin="﻿" id="W5M0MpCehiHzreSzNTczkc9d"?>
<x:xmpmeta xmlns:x="adobe:ns:meta/" x:xmptk="Adobe XMP Core 5.6-c138 79.159824, 2016/09/14-01:09:01        ">
   <rdf:RDF xmlns:rdf="http://www.w3.org/1999/02/22-rdf-syntax-ns#">
      <rdf:Description rdf:about=""/>
   </rdf:RDF>
</x:xmpmeta>
                                                                                                    
                                                                                                    
                                                                                                    
                                                                                                    
                                                                                                    
                                                                                                    
                                                                                                    
                                                                                                    
                                                                                                    
                                                                                                    
                                                                                                    
                                                                                                    
                                                                                                    
                                                                                                    
                                                                                                    
                                                                                                    
                                                                                                    
                                                                                                    
                                                                                                    
                                                                                                    
                           
<?xpacket end="w"?></metadata>
<defs>
    <style>
      .cls-1 {
        fill: #8b94bf;
        fill-rule: evenodd;
      }
    </style>
  </defs>
  <path id="icon" class="cls-1" d="M1236,1188.03h1.41v-13.56a8.137,8.137,0,0,1,2.7-5.99,9.644,9.644,0,0,1,6.52-2.48h31.11a9.619,9.619,0,0,1,6.51,2.48,8.146,8.146,0,0,1,2.71,5.99v13.56h2.11a6.716,6.716,0,0,1,6.96,6.4v38.17a6.716,6.716,0,0,1-6.96,6.4H1236a6.716,6.716,0,0,1-6.96-6.4v-38.17a6.716,6.716,0,0,1,6.96-6.4h0Zm5.41,0h41.55v-13.56a4.594,4.594,0,0,0-1.54-3.39,5.463,5.463,0,0,0-3.68-1.4h-31.11a5.489,5.489,0,0,0-3.69,1.4,4.621,4.621,0,0,0-1.53,3.39v13.56h0Zm21.12,24.94a5.922,5.922,0,0,0-6.15,5.66,5.579,5.579,0,0,0,3.15,4.93v5.79a2.893,2.893,0,0,0,3,2.75h0a2.9,2.9,0,0,0,3.01-2.75v-5.79a5.579,5.579,0,0,0,3.15-4.93A5.925,5.925,0,0,0,1262.53,1212.97Z" transform="translate(-1229.03 -1166)"/>
</svg>
