<svg xmlns="http://www.w3.org/2000/svg" width="114.974" height="78.969" viewBox="0 0 114.974 78.969">
  <metadata><?xpacket begin="﻿" id="W5M0MpCehiHzreSzNTczkc9d"?>
<x:xmpmeta xmlns:x="adobe:ns:meta/" x:xmptk="Adobe XMP Core 5.6-c138 79.159824, 2016/09/14-01:09:01        ">
   <rdf:RDF xmlns:rdf="http://www.w3.org/1999/02/22-rdf-syntax-ns#">
      <rdf:Description rdf:about=""/>
   </rdf:RDF>
</x:xmpmeta>
                                                                                                    
                                                                                                    
                                                                                                    
                                                                                                    
                                                                                                    
                                                                                                    
                                                                                                    
                                                                                                    
                                                                                                    
                                                                                                    
                                                                                                    
                                                                                                    
                                                                                                    
                                                                                                    
                                                                                                    
                                                                                                    
                                                                                                    
                                                                                                    
                                                                                                    
                                                                                                    
                           
<?xpacket end="w"?></metadata>
<defs>
    <style>
      .cls-1 {
        fill: #8b94bf;
        fill-rule: evenodd;
      }
    </style>
  </defs>
  <path id="icon_" data-name="icon " class="cls-1" d="M945.776,890.026h81.334a10.534,10.534,0,0,1,7.5,3.149l-0.01,0a10.732,10.732,0,0,1,3.12,7.571v2.568a2.692,2.692,0,0,1,.02.286v16.5a2.54,2.54,0,1,1-5.08,0V919.92h-0.01V900.75a5.593,5.593,0,0,0-1.62-3.95h-0.01a5.487,5.487,0,0,0-3.91-1.646H945.776a5.506,5.506,0,0,0-3.915,1.64,5.62,5.62,0,0,0-1.621,3.956v43.278a5.622,5.622,0,0,0,1.621,3.956,5.51,5.51,0,0,0,3.915,1.64h53.63v0.006h2.564a2.564,2.564,0,0,1,0,5.128H985.643c-0.063,0-.125,0-0.187-0.007h-39.68a10.518,10.518,0,0,1-7.487-3.148l-0.008-.009a10.742,10.742,0,0,1-3.116-7.566V900.75a10.738,10.738,0,0,1,3.116-7.566l0.008-.009a10.519,10.519,0,0,1,7.487-3.149h0Zm5.965,33.314h28.852a2.564,2.564,0,0,0,0-5.127H951.741a2.564,2.564,0,0,0,0,5.127h0Zm0-13.94h39a2.564,2.564,0,0,0,0-5.127h-39a2.564,2.564,0,0,0,0,5.127h0Zm0,27.239h39a2.564,2.564,0,0,0,0-5.128h-39A2.564,2.564,0,0,0,951.741,936.639Zm76.929-11.015a21.276,21.276,0,0,1,15.17,6.351,21.852,21.852,0,0,1,0,30.661,21.293,21.293,0,0,1-30.34,0,21.852,21.852,0,0,1,0-30.661,21.281,21.281,0,0,1,15.17-6.351h0Zm1.5,11.153v-1.745a1.773,1.773,0,0,0-.4-1.181,1.28,1.28,0,0,0-1.05-.487,1.334,1.334,0,0,0-1.09.492,1.769,1.769,0,0,0-.4,1.176v1.775a7.652,7.652,0,0,0-3.74,1.842,6.989,6.989,0,0,0-1.04,1.34,6.913,6.913,0,0,0-.63,1.556,6.786,6.786,0,0,0-.21,1.678,5.236,5.236,0,0,0,.41,2.041,4.992,4.992,0,0,0,1.17,1.735,4.631,4.631,0,0,0,1.54,1.023c0.55,0.214,1.37.481,2.47,0.788a18.07,18.07,0,0,1,2.79.982,1.642,1.642,0,0,1,.97,1.509,1.808,1.808,0,0,1-.77,1.555,3,3,0,0,1-1.81.558,8.279,8.279,0,0,1-2.22-.43l-1.61-.553a3.011,3.011,0,0,0-1.03-.147,1.672,1.672,0,0,0-1.38.716,2.537,2.537,0,0,0-.56,1.58c0,1.074.78,1.914,2.33,2.517a11.964,11.964,0,0,0,3.32.706v1.776a1.769,1.769,0,0,0,.4,1.176,1.333,1.333,0,0,0,1.09.491,1.3,1.3,0,0,0,1.07-.481,1.819,1.819,0,0,0,.38-1.186v-1.96a7.444,7.444,0,0,0,4.07-2.215,6.33,6.33,0,0,0,1.52-4.323,5.925,5.925,0,0,0-.59-2.768,5.076,5.076,0,0,0-1.66-1.852,11.533,11.533,0,0,0-2.67-1.279q-1.14-.422-2.55-0.823a4.175,4.175,0,0,1-1.33-.584,1.242,1.242,0,0,1-.5-1.069,1.536,1.536,0,0,1,.77-1.2,2.755,2.755,0,0,1,1.49-.43,5.055,5.055,0,0,1,1.63.307c0.14,0.036.35,0.1,0.64,0.2s0.52,0.158.7,0.2a2.447,2.447,0,0,0,.55.062,2.125,2.125,0,0,0,1.56-.645,2.1,2.1,0,0,0,.65-1.566c0-1.437-1.42-2.389-4.28-2.854h0Zm10.08-1.177a16.252,16.252,0,0,0-23.16,0,16.673,16.673,0,0,0,0,23.411,16.254,16.254,0,0,0,23.16,0A16.673,16.673,0,0,0,1040.25,935.6Z" transform="translate(-935.156 -890.031)"/>
</svg>
