<svg xmlns="http://www.w3.org/2000/svg" width="71.004" height="63" viewBox="0 0 71.004 63">
  <metadata><?xpacket begin="﻿" id="W5M0MpCehiHzreSzNTczkc9d"?>
<x:xmpmeta xmlns:x="adobe:ns:meta/" x:xmptk="Adobe XMP Core 5.6-c138 79.159824, 2016/09/14-01:09:01        ">
   <rdf:RDF xmlns:rdf="http://www.w3.org/1999/02/22-rdf-syntax-ns#">
      <rdf:Description rdf:about=""/>
   </rdf:RDF>
</x:xmpmeta>
                                                                                                    
                                                                                                    
                                                                                                    
                                                                                                    
                                                                                                    
                                                                                                    
                                                                                                    
                                                                                                    
                                                                                                    
                                                                                                    
                                                                                                    
                                                                                                    
                                                                                                    
                                                                                                    
                                                                                                    
                                                                                                    
                                                                                                    
                                                                                                    
                                                                                                    
                                                                                                    
                           
<?xpacket end="w"?></metadata>
<defs>
    <style>
      .cls-1 {
        fill: #8b94bf;
        fill-rule: evenodd;
      }
    </style>
  </defs>
  <path id="icon_" data-name="icon   " class="cls-1" d="M963.733,375.3a6.522,6.522,0,1,0,6.583,6.521,6.55,6.55,0,0,0-6.583-6.521h0Zm0-24.286a6.523,6.523,0,1,0,6.583,6.522,6.551,6.551,0,0,0-6.583-6.522h0ZM983.178,361.4H1024.9a3.212,3.212,0,1,0,0-6.423H983.178a3.212,3.212,0,1,0,0,6.423h0Zm0,24.285H1024.9a3.212,3.212,0,1,0,0-6.423H983.178a3.212,3.212,0,1,0,0,6.423h0Zm-19.445,15.28a6.523,6.523,0,1,0,6.583,6.522,6.551,6.551,0,0,0-6.583-6.522h0Zm19.445,10.386H1024.9a3.211,3.211,0,1,0,0-6.422H983.178a3.211,3.211,0,1,0,0,6.422h0Z" transform="translate(-957.156 -351)"/>
</svg>
