<svg id="icon_copy" data-name="icon   copy" xmlns="http://www.w3.org/2000/svg" width="82.97" height="81" viewBox="0 0 82.97 81">
  <metadata><?xpacket begin="﻿" id="W5M0MpCehiHzreSzNTczkc9d"?>
<x:xmpmeta xmlns:x="adobe:ns:meta/" x:xmptk="Adobe XMP Core 5.6-c138 79.159824, 2016/09/14-01:09:01        ">
   <rdf:RDF xmlns:rdf="http://www.w3.org/1999/02/22-rdf-syntax-ns#">
      <rdf:Description rdf:about=""/>
   </rdf:RDF>
</x:xmpmeta>
                                                                                                    
                                                                                                    
                                                                                                    
                                                                                                    
                                                                                                    
                                                                                                    
                                                                                                    
                                                                                                    
                                                                                                    
                                                                                                    
                                                                                                    
                                                                                                    
                                                                                                    
                                                                                                    
                                                                                                    
                                                                                                    
                                                                                                    
                                                                                                    
                                                                                                    
                                                                                                    
                           
<?xpacket end="w"?></metadata>
<defs>
    <style>
      .cls-1, .cls-2 {
        fill: #8b94bf;
        fill-rule: evenodd;
      }

      .cls-1 {
        opacity: 0.5;
      }
    </style>
  </defs>
  <path id="clock_hand" data-name="clock hand" class="cls-1" d="M1290.27,656.842h-19.59l13.43,13.113a2.584,2.584,0,0,1,0,3.715,2.729,2.729,0,0,1-3.8,0l-13.66-13.333v19.445a2.7,2.7,0,0,1-5.39,0V661.537c1.73-.511,10.18-3.38,7.39-9.95h21.62A2.628,2.628,0,1,1,1290.27,656.842Z" transform="translate(-1221.06 -613.969)"/>
  <path id="clock_icon" data-name="clock icon" class="cls-2" d="M1291.89,683.118a42.2,42.2,0,0,1-58.67,0,39.8,39.8,0,0,1,0-57.276,42.2,42.2,0,0,1,58.67,0A39.8,39.8,0,0,1,1291.89,683.118Zm-3.8-53.56a36.741,36.741,0,0,0-51.07,0,34.667,34.667,0,0,0,0,49.845,36.746,36.746,0,0,0,51.07,0A34.667,34.667,0,0,0,1288.09,629.558Zm-19.6,22.029h0.11a18.238,18.238,0,0,1,.89,5.04,5.743,5.743,0,0,1-2.81,3.745l-0.03-.035v0.056a11.144,11.144,0,0,1-5.39,1.25V661.05l-13.91,16.509a2.721,2.721,0,0,1-3.77.359,2.58,2.58,0,0,1-.37-3.685l15.35-18.22a5.183,5.183,0,0,1-.37-1.933,5.323,5.323,0,0,1,3.07-4.8V632.215a2.7,2.7,0,0,1,5.39,0V649.61A5.479,5.479,0,0,1,1268.49,651.587Z" transform="translate(-1221.06 -613.969)"/>
</svg>
