<svg xmlns="http://www.w3.org/2000/svg" width="73.938" height="83.093" viewBox="0 0 73.938 83.093">
  <metadata><?xpacket begin="﻿" id="W5M0MpCehiHzreSzNTczkc9d"?>
<x:xmpmeta xmlns:x="adobe:ns:meta/" x:xmptk="Adobe XMP Core 5.6-c138 79.159824, 2016/09/14-01:09:01        ">
   <rdf:RDF xmlns:rdf="http://www.w3.org/1999/02/22-rdf-syntax-ns#">
      <rdf:Description rdf:about=""/>
   </rdf:RDF>
</x:xmpmeta>
                                                                                                    
                                                                                                    
                                                                                                    
                                                                                                    
                                                                                                    
                                                                                                    
                                                                                                    
                                                                                                    
                                                                                                    
                                                                                                    
                                                                                                    
                                                                                                    
                                                                                                    
                                                                                                    
                                                                                                    
                                                                                                    
                                                                                                    
                                                                                                    
                                                                                                    
                                                                                                    
                           
<?xpacket end="w"?></metadata>
<defs>
    <style>
      .cls-1 {
        fill: #e6e6e6;
        fill-rule: evenodd;
      }
    </style>
  </defs>
  <path id="Shape_2081_copy_2" data-name="Shape 2081 copy 2" class="cls-1" d="M669.1,875.912l5.264-.894a12.277,12.277,0,0,0-.1,1.578v55.688a12.185,12.185,0,0,0,3.524,8.575l0.009,0.008a11.9,11.9,0,0,0,8.471,3.569h27.208l-32.1,5.458a9.591,9.591,0,0,1-11-7.93l-9.111-54.92a9.682,9.682,0,0,1,7.834-11.132h0Zm17.166-8.98a9.634,9.634,0,0,0-9.547,9.664v55.688a9.635,9.635,0,0,0,9.547,9.665h39.25a9.635,9.635,0,0,0,9.546-9.665v-49.4l-16.518-.231V866.932H686.265Zm35.612,12.212V866.932h0.33l12.854,11.648v0.564H721.877Z" transform="translate(-661.125 -866.938)"/>
</svg>
