<svg xmlns="http://www.w3.org/2000/svg" width="46.594" height="34.438" viewBox="0 0 46.594 34.438">
  <metadata><?xpacket begin="﻿" id="W5M0MpCehiHzreSzNTczkc9d"?>
<x:xmpmeta xmlns:x="adobe:ns:meta/" x:xmptk="Adobe XMP Core 5.6-c138 79.159824, 2016/09/14-01:09:01        ">
   <rdf:RDF xmlns:rdf="http://www.w3.org/1999/02/22-rdf-syntax-ns#">
      <rdf:Description rdf:about=""/>
   </rdf:RDF>
</x:xmpmeta>
                                                                                                    
                                                                                                    
                                                                                                    
                                                                                                    
                                                                                                    
                                                                                                    
                                                                                                    
                                                                                                    
                                                                                                    
                                                                                                    
                                                                                                    
                                                                                                    
                                                                                                    
                                                                                                    
                                                                                                    
                                                                                                    
                                                                                                    
                                                                                                    
                                                                                                    
                                                                                                    
                           
<?xpacket end="w"?></metadata>
<defs>
    <style>
      .cls-1 {
        fill: #1fb868;
        fill-rule: evenodd;
      }
    </style>
  </defs>
  <path id="icon_copy_3" data-name="icon copy 3" class="cls-1" d="M389.814,895.783l4.316-.541v2.81l-4.183.525,2.193,17.612,1.99-2.945v7.7a3.064,3.064,0,0,0,3.052,3.064h18.06l-21.575,2.707a2.508,2.508,0,0,1-2.79-2.178l-3.233-25.951A2.514,2.514,0,0,1,389.814,895.783Zm7.368-3.5h34.542a2.511,2.511,0,0,1,2.5,2.508v26.153a2.512,2.512,0,0,1-2.5,2.509H397.182a2.511,2.511,0,0,1-2.5-2.509V894.788a2.51,2.51,0,0,1,2.5-2.508h0Zm27.359,5.753a3.51,3.51,0,1,0,3.5,3.51,3.5,3.5,0,0,0-3.5-3.51h0Zm-27.573,14.784,9.434-10.794c1.147-1.312,2.077-.943,3.141.339l9.678,11.65,4.881-4.966c1.031-1.049,1.968-1.044,3.081.015l4.523,4.3v-18.3H396.968v17.748Z" transform="translate(-387.625 -892.281)"/>
</svg>
