<svg xmlns="http://www.w3.org/2000/svg" width="40.844" height="39.5" viewBox="0 0 40.844 39.5">
  <metadata><?xpacket begin="﻿" id="W5M0MpCehiHzreSzNTczkc9d"?>
<x:xmpmeta xmlns:x="adobe:ns:meta/" x:xmptk="Adobe XMP Core 5.6-c138 79.159824, 2016/09/14-01:09:01        ">
   <rdf:RDF xmlns:rdf="http://www.w3.org/1999/02/22-rdf-syntax-ns#">
      <rdf:Description rdf:about=""/>
   </rdf:RDF>
</x:xmpmeta>
                                                                                                    
                                                                                                    
                                                                                                    
                                                                                                    
                                                                                                    
                                                                                                    
                                                                                                    
                                                                                                    
                                                                                                    
                                                                                                    
                                                                                                    
                                                                                                    
                                                                                                    
                                                                                                    
                                                                                                    
                                                                                                    
                                                                                                    
                                                                                                    
                                                                                                    
                                                                                                    
                           
<?xpacket end="w"?></metadata>
<defs>
    <style>
      .cls-1 {
        fill: #50b4aa;
        fill-rule: evenodd;
      }
    </style>
  </defs>
  <path id="icon_copy_4" data-name="icon copy 4" class="cls-1" d="M394.3,1136.44l2.621-.42c-0.89,6.62-.051,20.05-0.051,27.4a5.7,5.7,0,0,0,1.756,4.1l0,0.01a6.05,6.05,0,0,0,4.219,1.7H416.4l-15.987,2.62a4.759,4.759,0,0,1-5.476-3.8l-4.538-26.28a4.656,4.656,0,0,1,3.9-5.33h0Zm8.341-4.03a4.449,4.449,0,0,0-4.495,4.37v27.01a4.449,4.449,0,0,0,4.495,4.37h24.064a4.449,4.449,0,0,0,4.5-4.37v-27.01a4.449,4.449,0,0,0-4.5-4.37H402.643Zm12.032,6.86a1.844,1.844,0,0,0-1.285.52l0,0.01a1.733,1.733,0,0,0-.535,1.25v1.04a9.03,9.03,0,0,0-2.853,1.14l-0.751-.73a1.859,1.859,0,0,0-2.579,0,1.737,1.737,0,0,0-.532,1.25,1.759,1.759,0,0,0,.532,1.26l0.732,0.71a8.278,8.278,0,0,0-1.223,2.79h-1a1.842,1.842,0,0,0-1.285.52h0a1.742,1.742,0,0,0,0,2.51h0a1.852,1.852,0,0,0,1.289.52h0.96a8.435,8.435,0,0,0,1.188,2.87l-0.656.63a1.759,1.759,0,0,0-.532,1.26,1.737,1.737,0,0,0,.532,1.25,1.859,1.859,0,0,0,2.579,0l0.635-.62a8.746,8.746,0,0,0,2.969,1.21v0.86a1.733,1.733,0,0,0,.535,1.25v0.01a1.854,1.854,0,0,0,2.575,0,1.753,1.753,0,0,0,.536-1.26v-0.86a8.746,8.746,0,0,0,2.969-1.21l0.635,0.62a1.858,1.858,0,0,0,2.578,0,1.734,1.734,0,0,0,.533-1.25,1.756,1.756,0,0,0-.533-1.26l-0.656-.63a8.417,8.417,0,0,0,1.189-2.87h0.96a1.848,1.848,0,0,0,1.288-.52,1.739,1.739,0,0,0,0-2.51h0a1.844,1.844,0,0,0-1.285-.52h-1a8.3,8.3,0,0,0-1.224-2.79l0.732-.71a1.756,1.756,0,0,0,.533-1.26,1.734,1.734,0,0,0-.533-1.25,1.858,1.858,0,0,0-2.578,0l-0.751.73a9.04,9.04,0,0,0-2.853-1.14v-1.04a1.753,1.753,0,0,0-.536-1.26h0a1.844,1.844,0,0,0-1.285-.52h0Zm0.287,2.64v-0.86a0.274,0.274,0,0,0-.084-0.2h0a0.3,0.3,0,0,0-.407,0h0a0.277,0.277,0,0,0-.083.2v0.86h0.575Zm5.614,2.24,0.611-.6a0.311,0.311,0,0,1,.2-0.08,0.307,0.307,0,0,1,.2.08,0.3,0.3,0,0,1,.082.2,0.277,0.277,0,0,1-.082.2l-0.608.59-0.154-.15c-0.084-.08-0.17-0.16-0.257-0.24h0Zm2.8,5.85h0.8a0.306,0.306,0,0,1,.2.09h0a0.27,0.27,0,0,1,.085.19,0.275,0.275,0,0,1-.085.2,0.294,0.294,0,0,1-.2.08h-0.791c0-.06,0-0.12,0-0.18,0-.13,0-0.25-0.007-0.38h0Zm-2.3,6.12,0.516,0.5a0.278,0.278,0,0,1,.083.2,0.3,0.3,0,0,1-.083.2,0.307,0.307,0,0,1-.2.08,0.312,0.312,0,0,1-.2-0.08l-0.512-.5c0.054-.05.106-0.1,0.158-0.15,0.084-.08.166-0.17,0.246-0.25h0Zm-6.117,2.73h-0.575v0.67a0.274,0.274,0,0,0,.084.2h0a0.292,0.292,0,0,0,.2.08,0.3,0.3,0,0,0,.2-0.08,0.274,0.274,0,0,0,.084-0.2v-0.67h0Zm-6.288-2.33c-0.053-.05-0.106-0.1-0.157-0.15-0.085-.08-0.166-0.17-0.247-0.25l-0.515.5a0.278,0.278,0,0,0-.083.2,0.3,0.3,0,0,0,.083.2,0.3,0.3,0,0,0,.407,0l0.512-.5h0Zm-2.707-5.96c0-.06,0-0.12,0-0.18,0-.13,0-0.25.009-0.38h-0.8a0.343,0.343,0,0,0-.2.08l0,0.01a0.268,0.268,0,0,0,0,.39h0a0.294,0.294,0,0,0,.2.08h0.79Zm2.4-6.02c0.05-.05.1-0.1,0.154-0.15,0.083-.08.169-0.16,0.256-0.24l-0.611-.6a0.3,0.3,0,0,0-.407,0,0.3,0.3,0,0,0-.083.2,0.278,0.278,0,0,0,.083.2l0.608,0.59h0Zm6.312,2.13a3.822,3.822,0,0,0-2.691,1.09h0a3.631,3.631,0,0,0,0,5.24h0a3.867,3.867,0,0,0,5.382,0h0a3.633,3.633,0,0,0,0-5.24,3.823,3.823,0,0,0-2.7-1.09h0Zm0.826,2.9a1.2,1.2,0,0,0-1.653,0h0a1.139,1.139,0,0,0-.337.81,1.113,1.113,0,0,0,.339.8,1.206,1.206,0,0,0,1.658,0,1.113,1.113,0,0,0,.339-0.8,1.131,1.131,0,0,0-.342-0.81h0Zm3.463-3.36a6.182,6.182,0,0,0-8.578,0,5.784,5.784,0,0,0,0,8.34,6.182,6.182,0,0,0,8.578,0A5.784,5.784,0,0,0,418.964,1146.21Z" transform="translate(-390.344 -1132.41)"/>
</svg>
