<svg xmlns="http://www.w3.org/2000/svg" width="74.97" height="71.906" viewBox="0 0 74.97 71.906">
  <metadata><?xpacket begin="﻿" id="W5M0MpCehiHzreSzNTczkc9d"?>
<x:xmpmeta xmlns:x="adobe:ns:meta/" x:xmptk="Adobe XMP Core 5.6-c138 79.159824, 2016/09/14-01:09:01        ">
   <rdf:RDF xmlns:rdf="http://www.w3.org/1999/02/22-rdf-syntax-ns#">
      <rdf:Description rdf:about=""/>
   </rdf:RDF>
</x:xmpmeta>
                                                                                                    
                                                                                                    
                                                                                                    
                                                                                                    
                                                                                                    
                                                                                                    
                                                                                                    
                                                                                                    
                                                                                                    
                                                                                                    
                                                                                                    
                                                                                                    
                                                                                                    
                                                                                                    
                                                                                                    
                                                                                                    
                                                                                                    
                                                                                                    
                                                                                                    
                                                                                                    
                           
<?xpacket end="w"?></metadata>
<defs>
    <style>
      .cls-1 {
        fill: #cbcbcb;
        fill-rule: evenodd;
      }
    </style>
  </defs>
  <path id="icon_copy_6" data-name="icon copy 6" class="cls-1" d="M1223.58,872.011a8.131,8.131,0,0,0-8.25,7.961v49.167a8.131,8.131,0,0,0,8.25,7.96h44.14a8.131,8.131,0,0,0,8.25-7.96V879.972a8.131,8.131,0,0,0-8.25-7.961h-44.14Zm22.07,12.5a3.4,3.4,0,0,0-2.36.947v0.006a3.147,3.147,0,0,0-.99,2.275v1.9a16.307,16.307,0,0,0-5.23,2.07l-1.38-1.33a3.435,3.435,0,0,0-4.73,0,3.17,3.17,0,0,0,0,4.565l1.34,1.294a15.189,15.189,0,0,0-2.24,5.088h-1.84a3.376,3.376,0,0,0-2.35.947l-0.01.006a3.132,3.132,0,0,0,0,4.551v0a3.4,3.4,0,0,0,2.36.948h1.77a14.9,14.9,0,0,0,2.18,5.22l-1.21,1.162a3.17,3.17,0,0,0,0,4.565,3.435,3.435,0,0,0,4.73,0l1.17-1.126a16.208,16.208,0,0,0,5.44,2.2v1.565a3.148,3.148,0,0,0,.99,2.276v0.006a3.417,3.417,0,0,0,4.72,0,3.149,3.149,0,0,0,.98-2.282v-1.565a16.176,16.176,0,0,0,5.45-2.2l1.16,1.126a3.422,3.422,0,0,0,2.37.944,3.381,3.381,0,0,0,2.36-.944,3.148,3.148,0,0,0,0-4.565l-1.2-1.162a14.9,14.9,0,0,0,2.18-5.22h1.76a3.421,3.421,0,0,0,2.37-.948,3.145,3.145,0,0,0,0-4.562h-0.01a3.4,3.4,0,0,0-2.36-.947h-1.83a15,15,0,0,0-2.25-5.088l1.34-1.294a3.148,3.148,0,0,0,0-4.565,3.435,3.435,0,0,0-4.73,0l-1.37,1.332a16.274,16.274,0,0,0-5.24-2.072v-1.9a3.145,3.145,0,0,0-.98-2.281h0a3.4,3.4,0,0,0-2.36-.947h0Zm0.53,4.8v-1.574a0.487,0.487,0,0,0-.16-0.359v0a0.528,0.528,0,0,0-.37-0.148,0.518,0.518,0,0,0-.37.146l-0.01,0a0.516,0.516,0,0,0-.15.359v1.574c0.17,0,.35-0.008.53-0.008s0.35,0,.53.008h0Zm10.29,4.072,1.13-1.08a0.542,0.542,0,0,1,.74,0,0.5,0.5,0,0,1,.15.359,0.5,0.5,0,0,1-.15.362l-1.11,1.076c-0.1-.094-0.19-0.187-0.29-0.279-0.15-.149-0.31-0.294-0.47-0.438h0Zm5.14,10.663h1.46a0.558,0.558,0,0,1,.38.149l-0.01,0a0.49,0.49,0,0,1,.16.359,0.485,0.485,0,0,1-.16.358,0.509,0.509,0,0,1-.37.151h-1.45c0-.112.01-0.225,0.01-0.339,0-.227-0.01-0.455-0.02-0.68h0Zm-4.21,11.13,0.94,0.913a0.486,0.486,0,0,1,0,.721,0.542,0.542,0,0,1-.74,0l-0.94-.907c0.09-.09.19-0.18,0.28-0.273,0.16-.148.31-0.3,0.46-0.454h0Zm-11.22,4.965c-0.18,0-.36.007-0.53,0.007s-0.36,0-.53-0.007v1.234a0.515,0.515,0,0,0,.15.361h0.01a0.509,0.509,0,0,0,.37.151,0.545,0.545,0,0,0,.37-0.151,0.491,0.491,0,0,0,.16-0.36V920.14h0Zm-11.54-4.238c-0.1-.09-0.19-0.18-0.29-0.273-0.15-.148-0.3-0.3-0.45-0.454l-0.95.913a0.508,0.508,0,0,0,0,.721,0.546,0.546,0,0,0,.38.146,0.54,0.54,0,0,0,.37-0.146l0.94-.907h0Zm-4.97-10.838v-0.339c0-.227.01-0.455,0.02-0.68h-1.47a0.554,0.554,0,0,0-.37.146v0a0.475,0.475,0,0,0-.15.359,0.484,0.484,0,0,0,.15.362v0a0.545,0.545,0,0,0,.37.151h1.45Zm4.4-10.965c0.09-.094.18-0.187,0.28-0.279,0.15-.149.31-0.294,0.47-0.436l-1.12-1.082a0.535,0.535,0,0,0-.37-0.146,0.542,0.542,0,0,0-.38.146,0.5,0.5,0,0,0-.15.359,0.5,0.5,0,0,0,.15.362l1.12,1.076h0Zm11.58,3.875a7.114,7.114,0,0,0-4.94,1.978l-0.01.008a6.563,6.563,0,0,0,0,9.53l0.01,0.009a7.148,7.148,0,0,0,9.87,0l0.01-.009a6.572,6.572,0,0,0,0-9.538,7.078,7.078,0,0,0-4.94-1.978h0Zm1.51,5.287a2.209,2.209,0,0,0-3.03-.007l-0.01.007a2.054,2.054,0,0,0,.01,2.931,2.169,2.169,0,0,0,1.52.6,2.205,2.205,0,0,0,1.52-.6,2.054,2.054,0,0,0,.62-1.467,2.021,2.021,0,0,0-.63-1.464h0Zm6.36-6.132a11.422,11.422,0,0,0-15.74,0,10.478,10.478,0,0,0,0,15.191,11.422,11.422,0,0,0,15.74,0A10.5,10.5,0,0,0,1253.52,897.129Zm-45.25-17.773,4.81-.779c-1.63,12.065-.09,36.5-0.09,49.89a10.358,10.358,0,0,0,3.22,7.47l0.01,0.008a11.127,11.127,0,0,0,7.74,3.108h24.86l-29.33,4.754a8.729,8.729,0,0,1-10.05-6.908l-8.32-47.846a8.472,8.472,0,0,1,7.15-9.7h0Z" transform="translate(-1201 -872)"/>
</svg>
