<svg id="notification" xmlns="http://www.w3.org/2000/svg" width="29" height="29" viewBox="0 0 29 29">
  <metadata><?xpacket begin="﻿" id="W5M0MpCehiHzreSzNTczkc9d"?>
<x:xmpmeta xmlns:x="adobe:ns:meta/" x:xmptk="Adobe XMP Core 5.6-c138 79.159824, 2016/09/14-01:09:01        ">
   <rdf:RDF xmlns:rdf="http://www.w3.org/1999/02/22-rdf-syntax-ns#">
      <rdf:Description rdf:about=""/>
   </rdf:RDF>
</x:xmpmeta>
                                                                                                    
                                                                                                    
                                                                                                    
                                                                                                    
                                                                                                    
                                                                                                    
                                                                                                    
                                                                                                    
                                                                                                    
                                                                                                    
                                                                                                    
                                                                                                    
                                                                                                    
                                                                                                    
                                                                                                    
                                                                                                    
                                                                                                    
                                                                                                    
                                                                                                    
                                                                                                    
                           
<?xpacket end="w"?></metadata>
<defs>
    <style>
      .cls-1 {
        fill: #1fb868;
      }

      .cls-2 {
        fill: #fff;
        fill-rule: evenodd;
      }
    </style>
  </defs>
  <circle class="cls-1" cx="14.5" cy="14.5" r="14.5"/>
  <path id="Shape_2082_copy" data-name="Shape 2082 copy" class="cls-2" d="M931.936,245.524l1.853-.235v1.224l-1.8.228,0.942,7.671,0.854-1.282v3.353a1.344,1.344,0,0,0,.385.942,1.293,1.293,0,0,0,.926.392h7.754L933.59,259a1.079,1.079,0,0,1-1.2-.949l-1.388-11.3A1.092,1.092,0,0,1,931.936,245.524ZM935.1,244h14.83A1.086,1.086,0,0,1,951,245.091v11.392a1.085,1.085,0,0,1-1.073,1.092H935.1a1.086,1.086,0,0,1-1.073-1.092V245.091A1.087,1.087,0,0,1,935.1,244h0Zm11.747,2.507a1.529,1.529,0,1,0,1.5,1.528,1.515,1.515,0,0,0-1.5-1.528h0Zm-11.839,6.439,4.051-4.7c0.492-.571.891-0.41,1.348,0.148l4.155,5.074,2.1-2.162a0.808,0.808,0,0,1,1.323.006l1.942,1.875v-7.97H935.008v7.731Z" transform="translate(-926 -237)"/>
</svg>
