<?xml version="1.0" encoding="UTF-8"?>
<!DOCTYPE svg PUBLIC "-//W3C//DTD SVG 1.1//EN" "http://www.w3.org/Graphics/SVG/1.1/DTD/svg11.dtd">
<!-- Creator: CorelDRAW X8 -->
<svg xmlns="http://www.w3.org/2000/svg" xml:space="preserve" width="250px" height="250px" version="1.1" style="shape-rendering:geometricPrecision; text-rendering:geometricPrecision; image-rendering:optimizeQuality; fill-rule:evenodd; clip-rule:evenodd"
viewBox="0 0 250 250"
 xmlns:xlink="http://www.w3.org/1999/xlink">
 <defs>
  <style type="text/css">
   <![CDATA[
    .fil0 {fill:white}
   ]]>
  </style>
 </defs>
 <g id="Layer_x0020_1">
  <metadata id="CorelCorpID_0Corel-Layer"/>
  <path class="fil0" d="M61 83l129 0c6,0 11,5 10,10l-3 146c-1,6 -5,11 -11,11l-121 0c-6,0 -11,-5 -11,-11l-4 -146c0,-5 5,-10 11,-10zm37 -83l54 0c5,0 9,2 12,5l0 0c3,3 4,7 4,11l0 10 33 0c6,0 11,4 11,10l0 23c0,6 -5,11 -11,11l-152 0c-6,0 -11,-5 -11,-11l0 -23c0,-6 5,-10 11,-10l33 0 0 -10c0,-4 2,-8 5,-11 3,-3 7,-5 11,-5zm1 26l53 0 0 -9 -53 0 0 9zm-5 83l0 0c5,0 9,4 9,10l0 95c0,5 -4,9 -9,9l0 0c-6,0 -10,-4 -10,-9l0 -95c0,-6 4,-10 10,-10zm64 0l0 0c5,0 9,4 9,10l0 95c0,5 -4,9 -9,9l0 0c-5,0 -10,-4 -10,-9l0 -95c0,-6 5,-10 10,-10zm-32 0l0 0c5,0 9,4 9,10l0 95c0,5 -4,9 -9,9l0 0c-5,0 -10,-4 -10,-9l0 -95c0,-6 5,-10 10,-10z"/>
 </g>
</svg>
