<?xml version="1.0" encoding="UTF-8"?>
<!DOCTYPE svg PUBLIC "-//W3C//DTD SVG 1.1//EN" "http://www.w3.org/Graphics/SVG/1.1/DTD/svg11.dtd">
<!-- Creator: CorelDRAW X8 -->
<svg xmlns="http://www.w3.org/2000/svg" xml:space="preserve" width="250px" height="250px" version="1.1" style="shape-rendering:geometricPrecision; text-rendering:geometricPrecision; image-rendering:optimizeQuality; fill-rule:evenodd; clip-rule:evenodd"
viewBox="0 0 250 250"
 xmlns:xlink="http://www.w3.org/1999/xlink">
 <defs>
  <style type="text/css">
   <![CDATA[
    .fil0 {fill:white}
   ]]>
  </style>
 </defs>
 <g id="Layer_x0020_1">
  <metadata id="CorelCorpID_0Corel-Layer"/>
  <path class="fil0" d="M192 10l54 56c4,5 4,13 -1,18l-18 17c-5,5 -13,5 -17,0l-54 -56c-5,-5 -5,-13 0,-18l18 -17c5,-5 13,-5 18,0zm-140 202l40 -13 -39 -41 -16 38 15 16zm99 -152l43 45c8,8 7,21 -1,29l-80 77c-1,0 -92,30 -100,32 -2,1 -5,1 -7,0 -4,-2 -6,-7 -4,-12l40 -94 80 -77c8,-8 21,-8 29,0z"/>
 </g>
</svg>
