<?xml version="1.0" encoding="UTF-8"?>
<!DOCTYPE svg PUBLIC "-//W3C//DTD SVG 1.1//EN" "http://www.w3.org/Graphics/SVG/1.1/DTD/svg11.dtd">
<!-- Creator: CorelDRAW X8 -->
<svg xmlns="http://www.w3.org/2000/svg" xml:space="preserve" width="250px" height="250px" version="1.1" style="shape-rendering:geometricPrecision; text-rendering:geometricPrecision; image-rendering:optimizeQuality; fill-rule:evenodd; clip-rule:evenodd"
viewBox="0 0 250 250"
 xmlns:xlink="http://www.w3.org/1999/xlink">
 <defs>
  <style type="text/css">
   <![CDATA[
    .fil0 {fill:white;fill-rule:nonzero}
   ]]>
  </style>
 </defs>
 <g id="Layer_x0020_1">
  <metadata id="CorelCorpID_0Corel-Layer"/>
  <path class="fil0" d="M35 15c46,0 96,0 141,0 5,0 8,3 8,7 0,4 -3,8 -8,8 -45,0 -95,0 -141,0 -5,0 -10,2 -14,6 -3,3 -5,8 -5,13l0 163c0,5 2,10 5,13l0 0c4,4 9,6 14,6l171 0c5,0 10,-2 13,-6 4,-3 6,-8 6,-13 0,-51 0,-81 0,-131 0,-5 3,-8 8,-8 4,0 7,3 7,8 0,50 0,80 0,131 0,9 -4,18 -10,24l0 0c-6,6 -15,10 -24,10l-171 0c-10,0 -18,-4 -24,-10l0 0c-7,-6 -11,-15 -11,-24l0 -163c0,-9 4,-18 11,-24 6,-6 14,-10 24,-10zm67 140c5,-5 -3,-13 -8,-8l-37 36 5 -27c0,-3 -2,-6 -5,-6 -3,-1 -5,1 -6,4l-7 44c-1,4 2,8 7,7l44 -7c3,-1 5,-4 4,-7 0,-3 -3,-5 -6,-4l-28 4 37 -36zm39 0c-5,-5 3,-13 8,-8l36 36 -4 -27c-1,-3 1,-6 4,-6 3,-1 6,1 7,4l7 44c1,4 -3,8 -7,7l-44 -7c-3,-1 -5,-4 -4,-7 0,-3 3,-5 6,-4l27 4 -36 -36zm5 -45c-5,5 -13,-3 -8,-8l37 -36 -28 4c-3,1 -5,-1 -6,-4 0,-3 2,-6 5,-6l44 -8c4,-1 8,3 7,7l-8 44c0,3 -3,5 -6,5 -3,-1 -5,-4 -5,-7l5 -27 -37 36zm-50 0c6,5 14,-3 8,-8l-36 -36 27 4c3,1 6,-1 7,-4 0,-3 -2,-6 -5,-6l-44 -8c-4,-1 -8,3 -7,7l8 44c0,3 3,5 6,5 3,-1 5,-4 4,-7l-4 -27 36 36zm127 -106c15,0 27,12 27,26 0,15 -12,26 -27,26 -14,0 -26,-11 -26,-26 0,-14 12,-26 26,-26z"/>
 </g>
</svg>
