<?xml version="1.0" encoding="UTF-8"?>
<!DOCTYPE svg PUBLIC "-//W3C//DTD SVG 1.1//EN" "http://www.w3.org/Graphics/SVG/1.1/DTD/svg11.dtd">
<!-- Creator: CorelDRAW X8 -->
<svg xmlns="http://www.w3.org/2000/svg" xml:space="preserve" width="250px" height="250px" version="1.1" style="shape-rendering:geometricPrecision; text-rendering:geometricPrecision; image-rendering:optimizeQuality; fill-rule:evenodd; clip-rule:evenodd"
viewBox="0 0 250 250"
 xmlns:xlink="http://www.w3.org/1999/xlink">
 <defs>
  <style type="text/css">
   <![CDATA[
    .fil0 {fill:white;fill-rule:nonzero}
   ]]>
  </style>
 </defs>
 <g id="Layer_x0020_1">
  <metadata id="CorelCorpID_0Corel-Layer"/>
  <path class="fil0" d="M22 13l69 0c6,0 12,3 15,7l1 0c3,4 6,9 6,15l0 56c0,6 -3,12 -6,16l-1 0c-3,4 -9,6 -15,6l-69 0c-6,0 -11,-2 -15,-6l0 0c-4,-4 -6,-10 -6,-16l0 -56c0,-6 2,-11 6,-15l0 0c4,-4 9,-7 15,-7zm69 17l-69 0c-1,0 -2,1 -3,1l0 0c-1,1 -2,3 -2,4l0 56c0,2 1,3 2,4l0 0c1,1 2,1 3,1l69 0c2,0 3,0 4,-1l0 0c1,-1 1,-2 1,-4l0 -56c0,-1 0,-3 -1,-4l0 0c-1,0 -2,-1 -4,-1zm68 107l69 0c5,0 11,2 15,6l0 0c4,4 6,10 6,16l0 56c0,6 -2,11 -6,15l0 0c-4,4 -10,7 -15,7l-69 0c-6,0 -12,-3 -15,-7l-1 0c-3,-4 -6,-9 -6,-15l0 -56c0,-6 3,-12 6,-16l1 0c3,-4 9,-6 15,-6zm69 17l-69 0c-2,0 -3,0 -4,1l0 0c-1,1 -1,2 -1,4l0 56c0,1 0,3 1,4l0 0c1,0 2,1 4,1l69 0c1,0 2,-1 3,-1l0 0c1,-1 2,-3 2,-4l0 -56c0,-2 -1,-3 -2,-4l0 0c-1,-1 -2,-1 -3,-1zm-206 -16l69 0c6,0 12,2 15,6l1 0c3,4 6,10 6,16l0 56c0,6 -3,11 -6,15l-1 0c-3,4 -9,7 -15,7l-69 0c-6,0 -11,-3 -15,-7l0 0c-4,-4 -6,-9 -6,-15l0 -56c0,-6 2,-12 6,-16l0 0c4,-4 9,-6 15,-6zm69 16l-69 0c-1,0 -2,1 -3,2l0 0c-1,1 -2,2 -2,4l0 56c0,1 1,2 2,3l0 0c1,1 2,2 3,2l69 0c2,0 3,-1 4,-2l0 0c1,-1 1,-2 1,-3l0 -56c0,-2 0,-3 -1,-4l0 0c-1,-1 -2,-2 -4,-2zm68 -142l69 0c5,0 11,3 15,7l0 0c4,4 6,9 6,15l0 56c0,6 -2,12 -6,16l0 0c-4,4 -10,6 -15,6l-69 0c-6,0 -12,-2 -15,-6l-1 0c-3,-4 -6,-10 -6,-16l0 -56c0,-6 3,-11 6,-15l1 0c3,-4 9,-7 15,-7zm69 17l-69 0c-2,0 -3,1 -4,2l0 0c-1,1 -1,2 -1,3l0 56c0,2 0,3 1,4l0 0c1,1 2,2 4,2l69 0c1,0 2,-1 3,-2l0 0c1,-1 2,-2 2,-4l0 -56c0,-1 -1,-2 -2,-3l0 0c-1,-1 -2,-2 -3,-2z"/>
 </g>
</svg>
