<?xml version="1.0" encoding="UTF-8"?>
<!DOCTYPE svg PUBLIC "-//W3C//DTD SVG 1.1//EN" "http://www.w3.org/Graphics/SVG/1.1/DTD/svg11.dtd">
<!-- Creator: CorelDRAW X8 -->
<svg xmlns="http://www.w3.org/2000/svg" xml:space="preserve" width="250px" height="250px" version="1.1" style="shape-rendering:geometricPrecision; text-rendering:geometricPrecision; image-rendering:optimizeQuality; fill-rule:evenodd; clip-rule:evenodd"
viewBox="0 0 250 250"
 xmlns:xlink="http://www.w3.org/1999/xlink">
 <defs>
  <style type="text/css">
   <![CDATA[
    .fil0 {fill:white;fill-rule:nonzero}
   ]]>
  </style>
 </defs>
 <g id="Layer_x0020_1">
  <metadata id="CorelCorpID_0Corel-Layer"/>
  <path class="fil0" d="M23 71c10,0 19,8 19,18 0,11 -9,19 -19,19 -10,0 -19,-8 -19,-19 0,-10 9,-18 19,-18zm0 141c10,0 19,8 19,18 0,11 -9,19 -19,19 -10,0 -19,-8 -19,-19 0,-10 9,-18 19,-18zm0 -70c10,0 19,8 19,19 0,10 -9,18 -19,18 -10,0 -19,-8 -19,-18 0,-11 9,-19 19,-19zm55 30c-5,0 -9,-4 -9,-9 0,-5 4,-10 9,-10l159 0c5,0 9,5 9,10 0,5 -4,9 -9,9l-159 0zm0 70c-5,0 -9,-5 -9,-10 0,-5 4,-9 9,-9l159 0c5,0 9,4 9,9 0,5 -4,10 -9,10l-159 0zm-55 -241c10,0 19,8 19,19 0,10 -9,18 -19,18 -10,0 -19,-8 -19,-18 0,-11 9,-19 19,-19zm55 30c-5,0 -9,-4 -9,-10 0,-5 4,-9 9,-9l159 0c5,0 9,4 9,9 0,6 -4,10 -9,10l-159 0zm0 69c-5,0 -9,-4 -9,-9 0,-5 4,-9 9,-9l159 0c5,0 9,4 9,9 0,5 -4,9 -9,9l-159 0z"/>
 </g>
</svg>
