<?xml version="1.0" encoding="UTF-8"?>
<!DOCTYPE svg PUBLIC "-//W3C//DTD SVG 1.1//EN" "http://www.w3.org/Graphics/SVG/1.1/DTD/svg11.dtd">
<!-- Creator: CorelDRAW X8 -->
<svg xmlns="http://www.w3.org/2000/svg" xml:space="preserve" width="250px" height="250px" version="1.1" style="shape-rendering:geometricPrecision; text-rendering:geometricPrecision; image-rendering:optimizeQuality; fill-rule:evenodd; clip-rule:evenodd"
viewBox="0 0 250 250"
 xmlns:xlink="http://www.w3.org/1999/xlink">
 <defs>
  <style type="text/css">
   <![CDATA[
    .fil0 {fill:white;fill-rule:nonzero}
   ]]>
  </style>
 </defs>
 <g id="Layer_x0020_1">
  <metadata id="CorelCorpID_0Corel-Layer"/>
  <path class="fil0" d="M43 6l164 0c12,0 22,5 30,13l0 0c8,8 12,18 12,30l0 152c0,12 -4,22 -12,30 -8,8 -18,13 -30,13l-164 0c-12,0 -22,-5 -30,-13 -8,-8 -12,-18 -12,-30l0 -152c0,-12 4,-22 12,-30l0 0c8,-8 18,-13 30,-13zm164 16l-164 0c-7,0 -14,3 -19,8l0 0c-5,5 -8,11 -8,19l0 152c0,8 3,14 8,19 5,5 12,8 19,8l164 0c7,0 14,-3 19,-8 5,-5 8,-11 8,-19l0 -152c0,-8 -3,-14 -8,-19l0 0c-5,-5 -12,-8 -19,-8z"/>
 </g>
</svg>
