<?xml version="1.0" encoding="UTF-8"?>
<!DOCTYPE svg PUBLIC "-//W3C//DTD SVG 1.1//EN" "http://www.w3.org/Graphics/SVG/1.1/DTD/svg11.dtd">
<!-- Creator: CorelDRAW X8 -->
<svg xmlns="http://www.w3.org/2000/svg" xml:space="preserve" width="250px" height="250px" version="1.1" style="shape-rendering:geometricPrecision; text-rendering:geometricPrecision; image-rendering:optimizeQuality; fill-rule:evenodd; clip-rule:evenodd"
viewBox="0 0 250 250"
 xmlns:xlink="http://www.w3.org/1999/xlink">
 <defs>
  <style type="text/css">
   <![CDATA[
    .fil0 {fill:white}
   ]]>
  </style>
 </defs>
 <g id="Layer_x0020_1">
  <metadata id="CorelCorpID_0Corel-Layer"/>
  <path class="fil0" d="M128 45l89 0c8,0 15,6 15,14l0 32 -168 0c-6,0 -11,2 -14,6 -4,3 -6,8 -8,13l-23 100 -3 0c-8,0 -15,-7 -15,-15 0,-52 0,-105 0,-157 0,-11 9,-20 20,-20l87 0c11,0 20,9 20,20l0 7zm-64 56l173 0c7,0 13,6 12,12l-26 108c-2,6 -5,11 -12,11l-173 0c-6,0 -13,-5 -12,-11l26 -108c2,-6 6,-12 12,-12z"/>
 </g>
</svg>
