<?xml version="1.0" encoding="UTF-8"?>
<!DOCTYPE svg PUBLIC "-//W3C//DTD SVG 1.1//EN" "http://www.w3.org/Graphics/SVG/1.1/DTD/svg11.dtd">
<!-- Creator: CorelDRAW X8 -->
<svg xmlns="http://www.w3.org/2000/svg" xml:space="preserve" width="250px" height="250px" version="1.1" style="shape-rendering:geometricPrecision; text-rendering:geometricPrecision; image-rendering:optimizeQuality; fill-rule:evenodd; clip-rule:evenodd"
viewBox="0 0 250 250"
 xmlns:xlink="http://www.w3.org/1999/xlink">
 <defs>
  <style type="text/css">
   <![CDATA[
    .fil0 {fill:white}
   ]]>
  </style>
 </defs>
 <g id="Layer_x0020_1">
  <metadata id="CorelCorpID_0Corel-Layer"/>
  <path class="fil0" d="M73 129l-21 0c-4,0 -8,2 -11,5 -3,2 -5,6 -6,11l-20 81 -2 0c-7,0 -12,-6 -12,-12 0,-43 0,-86 0,-128 0,-10 7,-17 17,-17l33 0c-1,1 -1,2 -2,3 -1,2 -2,5 -2,8 -1,2 -1,5 -1,8 0,3 0,5 1,8 0,3 1,5 2,8l0 0c1,2 3,5 4,7 2,2 3,5 5,6 2,2 4,4 7,6l8 6zm67 -118l95 65c4,2 7,5 9,9 2,3 4,7 4,11 1,4 1,8 0,12 0,4 -2,8 -4,12l-7 9 -19 0 13 -18c1,-2 2,-4 2,-6 1,-2 1,-4 0,-6 0,-2 -1,-4 -2,-6 -1,-2 -3,-3 -5,-4l-95 -65c-2,-1 -4,-2 -6,-2 -2,-1 -4,-1 -6,0 -2,0 -4,1 -6,2 -2,1 -3,3 -4,5l-34 50c-1,2 -2,4 -3,6 0,2 0,4 0,6 1,2 2,4 3,6 1,1 2,3 4,4l41 28 -27 0 -23 -15c-3,-2 -6,-5 -8,-9 -3,-3 -4,-7 -5,-11 -1,-4 -1,-8 0,-12 1,-4 2,-8 5,-12l34 -50c2,-4 5,-6 9,-9 3,-2 7,-4 11,-4 4,-1 8,-1 12,0 4,0 8,2 12,4zm-88 126c65,0 127,3 189,3 3,1 4,4 3,7l-21 88c-1,5 -4,9 -9,9l-183 0c-5,0 -10,-4 -9,-9l21 -88c1,-6 4,-10 9,-10z"/>
 </g>
</svg>
