<?xml version="1.0" encoding="UTF-8"?>
<!DOCTYPE svg PUBLIC "-//W3C//DTD SVG 1.1//EN" "http://www.w3.org/Graphics/SVG/1.1/DTD/svg11.dtd">
<!-- Creator: CorelDRAW X8 -->
<svg xmlns="http://www.w3.org/2000/svg" xml:space="preserve" width="250px" height="250px" version="1.1" style="shape-rendering:geometricPrecision; text-rendering:geometricPrecision; image-rendering:optimizeQuality; fill-rule:evenodd; clip-rule:evenodd"
viewBox="0 0 250 250"
 xmlns:xlink="http://www.w3.org/1999/xlink">
 <defs>
  <style type="text/css">
   <![CDATA[
    .fil0 {fill:white;fill-rule:nonzero}
   ]]>
  </style>
 </defs>
 <g id="Layer_x0020_1">
  <metadata id="CorelCorpID_0Corel-Layer"/>
  <path class="fil0" d="M217 29c11,11 17,25 17,39 1,15 -5,29 -15,40 -11,11 -26,17 -40,17 -11,0 -23,-3 -33,-10l-114 119c-4,4 -10,4 -13,0 -4,-3 -4,-9 -1,-13l115 -118c-7,-10 -11,-21 -11,-33 0,-14 5,-29 16,-40 11,-11 25,-17 39,-17 15,0 29,5 40,16zm-39 3c-126,2 126,-2 0,0z"/>
 </g>
</svg>
