<?xml version="1.0" encoding="UTF-8"?>
<!DOCTYPE svg PUBLIC "-//W3C//DTD SVG 1.1//EN" "http://www.w3.org/Graphics/SVG/1.1/DTD/svg11.dtd">
<!-- Creator: CorelDRAW X8 -->
<svg xmlns="http://www.w3.org/2000/svg" xml:space="preserve" width="250px" height="250px" version="1.1" style="shape-rendering:geometricPrecision; text-rendering:geometricPrecision; image-rendering:optimizeQuality; fill-rule:evenodd; clip-rule:evenodd"
viewBox="0 0 250 250"
 xmlns:xlink="http://www.w3.org/1999/xlink">
 <defs>
  <style type="text/css">
   <![CDATA[
    .fil0 {fill:white;fill-rule:nonzero}
   ]]>
  </style>
 </defs>
 <g id="Layer_x0020_1">
  <metadata id="CorelCorpID_0Corel-Layer"/>
  <path class="fil0" d="M232 31c11,10 17,25 17,39 0,15 -5,29 -16,40 -11,11 -26,16 -40,16 -11,0 -23,-3 -33,-10l-14 15 -26 0 27 -28c-7,-10 -10,-21 -10,-33 0,-14 5,-28 16,-39 11,-11 25,-17 40,-17 14,0 28,6 39,17zm-222 125c-5,0 -9,-4 -9,-10 0,-5 4,-9 9,-9l221 0c5,0 9,4 9,9 0,6 -4,10 -9,10l-221 0zm102 9l-68 68c-4,4 -9,4 -13,0 -4,-4 -4,-9 0,-13l55 -55 26 0zm81 -132c-126,0 126,0 0,0z"/>
 </g>
</svg>
