<?xml version="1.0" encoding="UTF-8"?>
<!DOCTYPE svg PUBLIC "-//W3C//DTD SVG 1.1//EN" "http://www.w3.org/Graphics/SVG/1.1/DTD/svg11.dtd">
<!-- Creator: CorelDRAW X8 -->
<svg xmlns="http://www.w3.org/2000/svg" xml:space="preserve" width="250px" height="250px" version="1.1" style="shape-rendering:geometricPrecision; text-rendering:geometricPrecision; image-rendering:optimizeQuality; fill-rule:evenodd; clip-rule:evenodd"
viewBox="0 0 250 250"
 xmlns:xlink="http://www.w3.org/1999/xlink">
 <defs>
  <style type="text/css">
   <![CDATA[
    .fil0 {fill:white;fill-rule:nonzero}
   ]]>
  </style>
 </defs>
 <g id="Layer_x0020_1">
  <metadata id="CorelCorpID_0Corel-Layer"/>
  <path class="fil0" d="M6 116c0,0 112,-129 238,1l6 6 -6 6c0,1 -120,140 -239,0l-5 -7 6 -6zm117 -21c16,0 30,13 30,30 0,16 -14,29 -30,29 -17,0 -30,-13 -30,-29 0,-17 13,-30 30,-30zm46 -8c9,10 14,23 14,38 0,13 -4,25 -12,35 25,-11 44,-28 53,-37 -19,-18 -37,-29 -55,-36zm-94 74c-8,-10 -12,-23 -12,-36 0,-13 4,-25 11,-35 -23,10 -40,25 -49,33 17,18 34,31 50,38zm80 -69c-8,-8 -20,-13 -32,-13 -13,0 -24,5 -33,13 -8,8 -13,20 -13,33 0,12 5,24 13,32 9,8 20,14 33,14 12,0 24,-6 32,-14 9,-8 14,-20 14,-32 0,-13 -5,-25 -14,-33z"/>
 </g>
</svg>
