<svg xmlns="http://www.w3.org/2000/svg" width="38.531" height="41.559" viewBox="0 0 38.531 41.559">
  <metadata><?xpacket begin="﻿" id="W5M0MpCehiHzreSzNTczkc9d"?>
<x:xmpmeta xmlns:x="adobe:ns:meta/" x:xmptk="Adobe XMP Core 5.6-c138 79.159824, 2016/09/14-01:09:01        ">
   <rdf:RDF xmlns:rdf="http://www.w3.org/1999/02/22-rdf-syntax-ns#">
      <rdf:Description rdf:about=""/>
   </rdf:RDF>
</x:xmpmeta>
                                                                                                    
                                                                                                    
                                                                                                    
                                                                                                    
                                                                                                    
                                                                                                    
                                                                                                    
                                                                                                    
                                                                                                    
                                                                                                    
                                                                                                    
                                                                                                    
                                                                                                    
                                                                                                    
                                                                                                    
                                                                                                    
                                                                                                    
                                                                                                    
                                                                                                    
                                                                                                    
                           
<?xpacket end="w"?></metadata>
<defs>
    <style>
      .cls-1 {
        fill: #01a7e5;
        fill-rule: evenodd;
      }
    </style>
  </defs>
  <path id="icon_copy_3" data-name="icon  copy 3" class="cls-1" d="M397.858,974.774l2.741-.447a6.043,6.043,0,0,0-.053.789v27.844a5.973,5.973,0,0,0,1.835,4.29h0.005a6.327,6.327,0,0,0,4.411,1.79h14.167l-16.715,2.72a4.971,4.971,0,0,1-5.726-3.96l-4.744-27.46a4.863,4.863,0,0,1,4.079-5.566h0Zm8.939-4.49a4.918,4.918,0,0,0-4.972,4.832v27.844a4.915,4.915,0,0,0,4.972,4.83h20.437a4.914,4.914,0,0,0,4.971-4.83v-24.7l-8.6-.115v-7.862H406.8Zm18.543,6.106v-6.106h0.172l6.693,5.824v0.282H425.34Z" transform="translate(-393.688 -970.281)"/>
</svg>
