<svg xmlns="http://www.w3.org/2000/svg" width="44.125" height="36.22" viewBox="0 0 44.125 36.22">
  <metadata><?xpacket begin="﻿" id="W5M0MpCehiHzreSzNTczkc9d"?>
<x:xmpmeta xmlns:x="adobe:ns:meta/" x:xmptk="Adobe XMP Core 5.6-c138 79.159824, 2016/09/14-01:09:01        ">
   <rdf:RDF xmlns:rdf="http://www.w3.org/1999/02/22-rdf-syntax-ns#">
      <rdf:Description rdf:about=""/>
   </rdf:RDF>
</x:xmpmeta>
                                                                                                    
                                                                                                    
                                                                                                    
                                                                                                    
                                                                                                    
                                                                                                    
                                                                                                    
                                                                                                    
                                                                                                    
                                                                                                    
                                                                                                    
                                                                                                    
                                                                                                    
                                                                                                    
                                                                                                    
                                                                                                    
                                                                                                    
                                                                                                    
                                                                                                    
                                                                                                    
                           
<?xpacket end="w"?></metadata>
<defs>
    <style>
      .cls-1 {
        fill: #ff7f7e;
        fill-rule: evenodd;
      }
    </style>
  </defs>
  <path id="icon_copy_4" data-name="icon  copy 4" class="cls-1" d="M413.755,1056.84a12.87,12.87,0,1,1-12.921,12.87,12.894,12.894,0,0,1,12.921-12.87h0Zm-17.043-5.24a5.029,5.029,0,0,0-3.541,1.47,4.975,4.975,0,0,0-1.472,3.53v26.22a4.958,4.958,0,0,0,1.472,3.53,5.029,5.029,0,0,0,3.541,1.47H430.8a5.027,5.027,0,0,0,3.54-1.47,4.954,4.954,0,0,0,1.473-3.53V1056.6a4.972,4.972,0,0,0-1.473-3.53,5.027,5.027,0,0,0-3.54-1.47H396.712Zm34.086,2.35H396.712a2.67,2.67,0,0,0-2.663,2.65v26.22a2.67,2.67,0,0,0,2.663,2.65H430.8a2.668,2.668,0,0,0,2.662-2.65V1056.6a2.668,2.668,0,0,0-2.662-2.65h0Zm-20.463,11.8v7.92l6.839-4.08Z" transform="translate(-391.688 -1051.59)"/>
</svg>
