<svg xmlns="http://www.w3.org/2000/svg" width="46.031" height="38" viewBox="0 0 46.031 38">
  <metadata><?xpacket begin="﻿" id="W5M0MpCehiHzreSzNTczkc9d"?>
<x:xmpmeta xmlns:x="adobe:ns:meta/" x:xmptk="Adobe XMP Core 5.6-c138 79.159824, 2016/09/14-01:09:01        ">
   <rdf:RDF xmlns:rdf="http://www.w3.org/1999/02/22-rdf-syntax-ns#">
      <rdf:Description rdf:about=""/>
   </rdf:RDF>
</x:xmpmeta>
                                                                                                    
                                                                                                    
                                                                                                    
                                                                                                    
                                                                                                    
                                                                                                    
                                                                                                    
                                                                                                    
                                                                                                    
                                                                                                    
                                                                                                    
                                                                                                    
                                                                                                    
                                                                                                    
                                                                                                    
                                                                                                    
                                                                                                    
                                                                                                    
                                                                                                    
                                                                                                    
                           
<?xpacket end="w"?></metadata>
<defs>
    <style>
      .cls-1 {
        fill: #fbfcfd;
        fill-rule: evenodd;
      }
    </style>
  </defs>
  <path id="icon" class="cls-1" d="M779,163.5a13.5,13.5,0,1,1-13.485,13.5A13.493,13.493,0,0,1,779,163.5h0Zm-17.787-5.492a5.249,5.249,0,0,0-5.231,5.239v27.511A5.248,5.248,0,0,0,761.209,196h35.574a5.248,5.248,0,0,0,5.231-5.239V163.25a5.249,5.249,0,0,0-5.231-5.239H761.209Zm35.574,2.457H761.209a2.791,2.791,0,0,0-2.778,2.782v27.511a2.791,2.791,0,0,0,2.778,2.783h35.574a2.791,2.791,0,0,0,2.778-2.783V163.25a2.791,2.791,0,0,0-2.778-2.782h0Zm-21.356,12.379v8.318l7.138-4.289Z" transform="translate(-755.969 -158)"/>
</svg>
