<svg xmlns="http://www.w3.org/2000/svg" width="182" height="135" viewBox="0 0 182 135">
  <metadata><?xpacket begin="﻿" id="W5M0MpCehiHzreSzNTczkc9d"?>
<x:xmpmeta xmlns:x="adobe:ns:meta/" x:xmptk="Adobe XMP Core 5.6-c138 79.159824, 2016/09/14-01:09:01        ">
   <rdf:RDF xmlns:rdf="http://www.w3.org/1999/02/22-rdf-syntax-ns#">
      <rdf:Description rdf:about=""/>
   </rdf:RDF>
</x:xmpmeta>
                                                                                                    
                                                                                                    
                                                                                                    
                                                                                                    
                                                                                                    
                                                                                                    
                                                                                                    
                                                                                                    
                                                                                                    
                                                                                                    
                                                                                                    
                                                                                                    
                                                                                                    
                                                                                                    
                                                                                                    
                                                                                                    
                                                                                                    
                                                                                                    
                                                                                                    
                                                                                                    
                           
<?xpacket end="w"?></metadata>
<defs>
    <style>
      .cls-1 {
        fill: #d3d4d6;
        fill-rule: evenodd;
      }
    </style>
  </defs>
  <path id="icon_copy_2" data-name="icon copy 2" class="cls-1" d="M851.625,920.609a16.133,16.133,0,1,1-16.131-16.38A16.256,16.256,0,0,1,851.625,920.609Zm-76.073-49.683a8.542,8.542,0,0,1,0-17.081,8.381,8.381,0,0,1,7.206,4.133h46.889a8.346,8.346,0,0,1,14.409,0h41.181a8.377,8.377,0,0,1,7.2-4.133,8.541,8.541,0,0,1,0,17.081,8.377,8.377,0,0,1-7.2-4.131H844.056a8.348,8.348,0,0,1-14.409,0H782.758A8.382,8.382,0,0,1,775.552,870.926ZM904.642,927.9c-15.372,0-28.515.011-43.887,0.011a4.723,4.723,0,0,1,0-9.445h2.213v-0.01h41.674a10.94,10.94,0,0,0,7.8-3.3,11.276,11.276,0,0,0,3.249-7.92V822.67a11.268,11.268,0,0,0-3.249-7.919,10.936,10.936,0,0,0-7.8-3.3H763.352a10.955,10.955,0,0,0-7.808,3.288l0.008,0.009a11.28,11.28,0,0,0-3.248,7.921v84.562a11.279,11.279,0,0,0,3.248,7.92v0.018a10.924,10.924,0,0,0,7.8,3.281h41.673v0.01H809.5a4.723,4.723,0,0,1,0,9.445c-16.126,0-30.02-.011-46.146-0.011a20.153,20.153,0,0,1-14.366-6.075l-0.008.009a20.765,20.765,0,0,1-5.975-14.6V822.67a20.763,20.763,0,0,1,5.975-14.6h0.016a20.124,20.124,0,0,1,14.358-6.067h141.29a20.129,20.129,0,0,1,14.375,6.068,20.756,20.756,0,0,1,5.975,14.595v84.562a20.761,20.761,0,0,1-5.975,14.6A20.131,20.131,0,0,1,904.642,927.9Z" transform="translate(-743 -802)"/>
</svg>
