<svg xmlns="http://www.w3.org/2000/svg" width="19" height="24" viewBox="0 0 19 24">
  <metadata><?xpacket begin="﻿" id="W5M0MpCehiHzreSzNTczkc9d"?>
<x:xmpmeta xmlns:x="adobe:ns:meta/" x:xmptk="Adobe XMP Core 5.6-c138 79.159824, 2016/09/14-01:09:01        ">
   <rdf:RDF xmlns:rdf="http://www.w3.org/1999/02/22-rdf-syntax-ns#">
      <rdf:Description rdf:about=""/>
   </rdf:RDF>
</x:xmpmeta>
                                                                                                    
                                                                                                    
                                                                                                    
                                                                                                    
                                                                                                    
                                                                                                    
                                                                                                    
                                                                                                    
                                                                                                    
                                                                                                    
                                                                                                    
                                                                                                    
                                                                                                    
                                                                                                    
                                                                                                    
                                                                                                    
                                                                                                    
                                                                                                    
                                                                                                    
                                                                                                    
                           
<?xpacket end="w"?></metadata>
<defs>
    <style>
      .cls-1 {
        fill: #657186;
        fill-rule: evenodd;
      }
    </style>
  </defs>
  <path class="cls-1" d="M872.906,528.2h-11.03A1.889,1.889,0,0,0,860,530.1V546.1a1.888,1.888,0,0,0,1.876,1.9h11.03a1.888,1.888,0,0,0,1.876-1.9V530.1A1.9,1.9,0,0,0,872.906,528.2Zm0.559,17.9a0.568,0.568,0,0,1-.564.57h-11.03a0.568,0.568,0,0,1-.564-0.57v-16a0.568,0.568,0,0,1,.564-0.571H872.9a0.568,0.568,0,0,1,.564.571v16Zm3.659-22.1h-11.03a1.887,1.887,0,0,0-1.876,1.9,0.656,0.656,0,1,0,1.312,0,0.568,0.568,0,0,1,.564-0.57h11.03a0.568,0.568,0,0,1,.564.57v16.008a0.567,0.567,0,0,1-.564.57,0.664,0.664,0,0,0,0,1.328,1.889,1.889,0,0,0,1.876-1.9V525.9A1.888,1.888,0,0,0,877.124,524Z" transform="translate(-860 -524)"/>
</svg>
