<svg xmlns="http://www.w3.org/2000/svg" width="24" height="24" viewBox="0 0 24 24">
  <metadata><?xpacket begin="﻿" id="W5M0MpCehiHzreSzNTczkc9d"?>
<x:xmpmeta xmlns:x="adobe:ns:meta/" x:xmptk="Adobe XMP Core 5.6-c138 79.159824, 2016/09/14-01:09:01        ">
   <rdf:RDF xmlns:rdf="http://www.w3.org/1999/02/22-rdf-syntax-ns#">
      <rdf:Description rdf:about=""/>
   </rdf:RDF>
</x:xmpmeta>
                                                                                                    
                                                                                                    
                                                                                                    
                                                                                                    
                                                                                                    
                                                                                                    
                                                                                                    
                                                                                                    
                                                                                                    
                                                                                                    
                                                                                                    
                                                                                                    
                                                                                                    
                                                                                                    
                                                                                                    
                                                                                                    
                                                                                                    
                                                                                                    
                                                                                                    
                                                                                                    
                           
<?xpacket end="w"?></metadata>
<defs>
    <style>
      .cls-1 {
        fill: #657186;
        fill-rule: evenodd;
      }
    </style>
  </defs>
  <path id="clock_icon" data-name="clock icon" class="cls-1" d="M871.489,406.479a12,12,0,1,1,3.516-8.485A11.961,11.961,0,0,1,871.489,406.479Zm-1.1-15.869a10.441,10.441,0,1,0,3.059,7.384A10.41,10.41,0,0,0,870.388,390.61Zm-5.669,6.527h0.032a5.517,5.517,0,0,1,.257,1.493,1.694,1.694,0,0,1-.811,1.11l-0.011-.011v0.017a3.137,3.137,0,0,1-1.557.37v-0.175l-4.023,4.891a0.775,0.775,0,1,1-1.2-.985l4.439-5.4a1.582,1.582,0,0,1,.782-1.994V391.4a0.779,0.779,0,1,1,1.557,0v5.154A1.573,1.573,0,0,1,864.719,397.137Z" transform="translate(-851 -386)"/>
</svg>
