<?xml version="1.0" encoding="UTF-8"?>
<!DOCTYPE svg PUBLIC "-//W3C//DTD SVG 1.1//EN" "http://www.w3.org/Graphics/SVG/1.1/DTD/svg11.dtd">
<!-- Creator: CorelDRAW X8 -->
<svg xmlns="http://www.w3.org/2000/svg" xml:space="preserve" width="250px" height="250px" version="1.1" style="shape-rendering:geometricPrecision; text-rendering:geometricPrecision; image-rendering:optimizeQuality; fill-rule:evenodd; clip-rule:evenodd"
viewBox="0 0 250 250"
 xmlns:xlink="http://www.w3.org/1999/xlink">
 <defs>
  <style type="text/css">
   <![CDATA[
    .fil0 {fill:white;fill-rule:nonzero}
   ]]>
  </style>
 </defs>
 <g id="Layer_x0020_1">
  <metadata id="CorelCorpID_0Corel-Layer"/>
  <path class="fil0" d="M112 29c6,0 12,2 16,5 0,-5 -4,-9 -4,-9 -3,-2 -3,-7 -1,-10 3,-3 8,-3 11,-1 0,0 17,15 5,33 2,5 4,10 4,16 0,9 -4,17 -9,23 -5,7 -13,11 -22,11 -8,0 -16,-4 -21,-11 -6,-6 -9,-14 -9,-23 0,-6 1,-11 4,-16 -13,-17 5,-33 5,-33 3,-2 8,-2 10,1 3,3 3,8 -1,10 0,0 -4,4 -4,9 5,-3 11,-5 16,-5zm89 121c3,-3 8,-3 10,0 3,2 3,7 0,10l-38 39c-3,3 -8,3 -11,0 -3,-3 -3,-8 0,-11l39 -38zm-172 -124l32 0c1,0 2,0 2,1 1,0 2,1 3,1 3,3 3,7 0,10l0 0c-1,1 -2,1 -3,2 0,0 -1,0 -2,0l-32 0c0,0 -1,0 -2,1 -1,0 -2,0 -3,0 -1,1 -2,1 -3,2 0,0 -1,1 -2,2l0 0c0,0 -1,1 -2,2 0,1 -1,1 -1,2 0,1 -1,2 -1,3 0,1 0,2 0,3l0 114c0,1 0,2 0,3 0,1 1,2 1,3 0,0 1,1 1,2 1,1 2,2 2,2 1,1 2,2 2,2 1,1 2,1 3,1 1,1 2,1 3,1 1,0 2,1 2,1l80 0 0 0c1,0 1,0 2,0 1,0 2,1 2,2l0 0c1,0 1,1 2,2 0,1 0,2 0,3 0,1 0,1 0,2 -1,1 -1,2 -2,3l0 0c-1,0 -1,1 -2,1 -1,1 -2,1 -3,1l-79 0c-1,0 -3,0 -5,-1 -2,0 -4,-1 -5,-1 -2,-1 -4,-2 -5,-3 -2,-1 -3,-2 -5,-4 -1,-1 -2,-2 -3,-4 -1,-2 -2,-3 -3,-5 -1,-2 -1,-4 -2,-5 0,-2 0,-4 0,-6l0 -114c0,-2 0,-4 0,-6 1,-2 1,-3 2,-5 1,-2 2,-4 3,-5 1,-2 2,-3 3,-5 2,-1 3,-2 5,-3 1,-1 3,-2 5,-3 1,0 3,-1 5,-1 2,-1 4,-1 5,-1zm42 158l7 0 1 0 13 0c-7,0 -14,0 -21,0zm116 -71c8,0 16,2 24,5 7,3 14,7 20,13 6,6 10,13 13,20 4,8 5,16 5,24 0,9 -1,17 -5,24 -3,8 -7,14 -13,20 -6,6 -13,11 -20,14 -8,3 -16,4 -24,4 -9,0 -17,-1 -24,-4 -8,-3 -14,-8 -20,-14 -6,-6 -11,-12 -14,-20 -3,-7 -4,-15 -4,-24 0,-8 1,-16 4,-24 3,-7 8,-14 14,-20 6,-6 12,-10 20,-13 7,-3 15,-5 24,-5zm34 28c-9,-9 -21,-14 -34,-14 -7,0 -13,1 -19,4 -5,2 -11,6 -15,10 -5,4 -8,10 -11,16 -2,5 -3,12 -3,18 0,7 1,13 3,19 3,5 6,11 11,15 4,5 10,8 15,11 6,2 12,3 19,3 6,0 13,-1 18,-3 6,-3 12,-6 16,-11 4,-4 8,-10 10,-15 3,-6 4,-12 4,-19 0,-6 -1,-13 -4,-18 -2,-6 -6,-12 -10,-16zm5 -41c0,1 0,2 -1,3 0,1 -1,1 -1,2l0 0c-1,1 -2,1 -2,2 -1,0 -2,0 -3,0 -1,0 -2,0 -3,0 -1,-1 -2,-1 -2,-2l0 0c-1,-1 -1,-2 -2,-2 0,-1 0,-2 0,-3l0 -45c0,-1 0,-2 -1,-3 0,-1 0,-2 0,-3 -1,-1 -1,-1 -2,-2 0,-1 -1,-2 -2,-2 0,-1 -1,-2 -2,-2 -1,-1 -1,-1 -2,-2 -1,0 -2,0 -3,0 -1,-1 -2,-1 -3,-1 -3,0 -6,0 -9,0 -8,1 -16,1 -21,0 -1,0 -2,0 -3,0 -1,-1 -2,-1 -2,-2 -1,-1 -1,-1 -2,-2 0,-1 0,-2 0,-3 0,-1 0,-2 0,-2 1,-1 1,-2 2,-3l0 0c1,0 1,-1 2,-1 1,-1 2,-1 3,-1 5,0 13,0 21,0 3,0 6,0 9,0 2,0 4,0 6,1 2,0 3,1 5,1 2,1 4,2 5,3 2,1 3,2 5,3 1,2 2,3 3,5 1,1 2,3 3,5 0,2 1,3 1,5 1,2 1,4 1,6l0 45zm-145 50c-3,1 -7,4 -8,13 -1,4 -5,6 -9,6 -4,-1 -7,-5 -6,-9 3,-15 10,-21 17,-23 -2,-6 -3,-13 -3,-20 0,-1 0,-3 0,-4 -4,3 -10,9 -16,19 -2,4 -7,5 -11,3 -3,-2 -4,-7 -2,-10 13,-21 26,-27 33,-29 1,-5 4,-9 6,-13 2,2 3,5 5,7 2,1 3,3 5,5 -3,6 -5,14 -5,22 0,11 3,20 8,27 5,6 11,10 17,10 4,0 7,-1 9,-2 -1,3 -2,6 -2,10 -1,2 -1,4 -1,6 -2,0 -4,1 -6,1 -11,0 -21,-6 -29,-16 0,-1 -1,-2 -2,-3zm56 -24c1,-3 1,-6 1,-9 0,-4 0,-9 -1,-13 0,0 -1,0 -1,0 -1,-4 -2,-7 -3,-9 2,-2 3,-4 5,-5 2,-2 3,-5 5,-7 2,4 5,8 6,13 5,1 12,4 20,12 -3,1 -6,2 -9,3 -2,1 -4,2 -6,3 -1,0 -1,0 -1,-1l0 1c-2,1 -3,2 -5,3 -4,3 -7,6 -10,9l0 0 -1 0zm-14 -77c-3,-3 -6,-5 -11,-5 -4,0 -7,2 -10,5 -3,3 -5,8 -5,14 0,5 2,10 5,14 3,3 6,5 10,5 5,0 8,-2 11,-5 3,-4 5,-9 5,-14 0,-5 -1,-9 -4,-13l0 0 0 0 0 0c0,0 -1,-1 -1,-1z"/>
 </g>
</svg>
