<?xml version="1.0" encoding="UTF-8"?>
<!DOCTYPE svg PUBLIC "-//W3C//DTD SVG 1.1//EN" "http://www.w3.org/Graphics/SVG/1.1/DTD/svg11.dtd">
<!-- Creator: CorelDRAW X8 -->
<svg xmlns="http://www.w3.org/2000/svg" xml:space="preserve" width="250px" height="250px" version="1.1" style="shape-rendering:geometricPrecision; text-rendering:geometricPrecision; image-rendering:optimizeQuality; fill-rule:evenodd; clip-rule:evenodd"
viewBox="0 0 250 250"
 xmlns:xlink="http://www.w3.org/1999/xlink">
 <defs>
  <style type="text/css">
   <![CDATA[
    .fil0 {fill:white;fill-rule:nonzero}
   ]]>
  </style>
 </defs>
 <g id="Layer_x0020_1">
  <metadata id="CorelCorpID_0Corel-Layer"/>
  <path class="fil0" d="M123 1c28,0 54,11 72,30 18,18 29,43 29,71 0,79 -88,128 -153,145 -4,1 -8,-2 -9,-6 -1,-4 1,-8 5,-9 34,-8 58,-20 77,-31 -7,1 -14,2 -21,2 -27,0 -53,-12 -71,-30 -18,-18 -29,-43 -29,-71 0,-28 11,-53 29,-71 18,-19 44,-30 71,-30zm-38 84c8,0 15,6 15,14 0,8 -7,15 -15,15 -8,0 -14,-7 -14,-15 0,-8 6,-14 14,-14zm77 0c8,0 14,6 14,14 0,8 -6,15 -14,15 -8,0 -15,-7 -15,-15 0,-8 7,-14 15,-14zm-39 0c8,0 15,6 15,14 0,8 -7,15 -15,15 -8,0 -15,-7 -15,-15 0,-8 7,-14 15,-14zm61 -44c-15,-15 -37,-25 -61,-25 -23,0 -45,10 -60,25 -16,16 -25,37 -25,61 0,24 9,45 25,61 15,15 37,25 60,25 24,0 46,-10 61,-25 16,-16 25,-37 25,-61 0,-24 -9,-45 -25,-61z"/>
 </g>
</svg>
