<?xml version="1.0" encoding="UTF-8"?>
<!DOCTYPE svg PUBLIC "-//W3C//DTD SVG 1.1//EN" "http://www.w3.org/Graphics/SVG/1.1/DTD/svg11.dtd">
<!-- Creator: CorelDRAW X8 -->
<svg xmlns="http://www.w3.org/2000/svg" xml:space="preserve" width="250px" height="250px" version="1.1" style="shape-rendering:geometricPrecision; text-rendering:geometricPrecision; image-rendering:optimizeQuality; fill-rule:evenodd; clip-rule:evenodd"
viewBox="0 0 250 250"
 xmlns:xlink="http://www.w3.org/1999/xlink">
 <defs>
  <style type="text/css">
   <![CDATA[
    .fil0 {fill:white;fill-rule:nonzero}
   ]]>
  </style>
 </defs>
 <g id="Layer_x0020_1">
  <metadata id="CorelCorpID_0Corel-Layer"/>
  <path class="fil0" d="M125 1c17,0 31,7 42,19 11,12 17,28 17,46 0,17 -6,33 -17,45 -1,1 -2,2 -3,3 -5,29 58,15 58,69l0 19c0,13 -6,25 -14,33 -9,9 -21,14 -34,14l-20 0 0 0 -3 0 -55 0 0 0 -20 0c-13,0 -25,-5 -34,-14 -8,-8 -14,-20 -14,-33l0 -19c0,-54 63,-40 58,-69 -1,-1 -2,-2 -3,-3 -11,-12 -17,-28 -17,-45 0,-18 6,-34 17,-46 11,-12 25,-19 42,-19zm26 232l3 0 0 0 20 0c9,0 17,-3 22,-9 6,-6 10,-14 10,-22l0 -19c0,-38 -49,-23 -57,-58 -8,4 -16,5 -24,5 -8,0 -16,-1 -24,-5 -9,36 -57,18 -57,58l0 19c0,8 4,16 10,22 5,6 13,9 22,9l20 0 0 0 55 0 0 0zm-34 -68c0,-4 4,-8 8,-8 4,0 8,4 8,8l0 50c0,5 -4,8 -8,8 -4,0 -8,-3 -8,-8l0 -50zm38 -134c-8,-9 -18,-14 -30,-14 -12,0 -22,5 -30,14 -8,8 -13,21 -13,35 0,13 5,26 13,34 8,9 18,14 30,14 12,0 22,-5 30,-14 8,-8 13,-21 13,-34 0,-14 -5,-27 -13,-35z"/>
 </g>
</svg>
