<?xml version="1.0" encoding="UTF-8"?>
<!DOCTYPE svg PUBLIC "-//W3C//DTD SVG 1.1//EN" "http://www.w3.org/Graphics/SVG/1.1/DTD/svg11.dtd">
<!-- Creator: CorelDRAW X8 -->
<svg xmlns="http://www.w3.org/2000/svg" xml:space="preserve" width="250px" height="250px" version="1.1" style="shape-rendering:geometricPrecision; text-rendering:geometricPrecision; image-rendering:optimizeQuality; fill-rule:evenodd; clip-rule:evenodd"
viewBox="0 0 250 250"
 xmlns:xlink="http://www.w3.org/1999/xlink">
 <defs>
  <style type="text/css">
   <![CDATA[
    .fil0 {fill:white;fill-rule:nonzero}
   ]]>
  </style>
 </defs>
 <g id="Layer_x0020_1">
  <metadata id="CorelCorpID_0Corel-Layer"/>
  <path class="fil0" d="M125 0c33,0 62,13 84,33l11 -10c4,-3 9,-3 12,0 3,3 3,8 -1,11l-77 72c3,6 5,12 5,19 0,18 -15,34 -34,34 -18,0 -34,-16 -34,-34 0,-19 16,-34 34,-34 7,0 12,1 17,4l55 -51c-19,-17 -44,-27 -72,-27 -29,0 -56,12 -76,31 -20,20 -32,47 -32,77 0,30 12,57 32,76 20,20 47,32 76,32 30,0 57,-12 77,-32 19,-19 32,-46 32,-76 0,-23 -7,-44 -20,-62l13 -11c14,21 23,46 23,73 0,34 -14,65 -37,88 -22,22 -53,36 -88,36 -34,0 -65,-14 -87,-36 -23,-23 -37,-54 -37,-88 0,-35 14,-66 37,-88 22,-23 53,-37 87,-37z"/>
 </g>
</svg>
