<?xml version="1.0" encoding="UTF-8"?>
<!DOCTYPE svg PUBLIC "-//W3C//DTD SVG 1.1//EN" "http://www.w3.org/Graphics/SVG/1.1/DTD/svg11.dtd">
<!-- Creator: CorelDRAW X8 -->
<svg xmlns="http://www.w3.org/2000/svg" xml:space="preserve" width="250px" height="250px" version="1.1" style="shape-rendering:geometricPrecision; text-rendering:geometricPrecision; image-rendering:optimizeQuality; fill-rule:evenodd; clip-rule:evenodd"
viewBox="0 0 250 250"
 xmlns:xlink="http://www.w3.org/1999/xlink">
 <defs>
  <style type="text/css">
   <![CDATA[
    .fil0 {fill:white;fill-rule:nonzero}
   ]]>
  </style>
 </defs>
 <g id="Layer_x0020_1">
  <metadata id="CorelCorpID_0Corel-Layer"/>
  <path class="fil0" d="M57 59l150 0 0 -7c0,-4 -1,-8 -4,-10 -3,-3 -6,-5 -10,-5l-164 0c-4,0 -8,2 -10,5 -3,2 -5,6 -5,10l0 112c0,4 2,7 5,10 2,2 6,4 10,4l0 0 0 -92c0,-7 4,-14 9,-19 5,-5 12,-8 19,-8zm126 71c10,0 19,4 25,10 7,7 11,16 11,26 0,9 -4,18 -11,25 -6,6 -15,10 -25,10 -10,0 -19,-4 -25,-10 -7,-7 -11,-16 -11,-25 0,-10 4,-19 11,-26 6,-6 15,-10 25,-10zm16 20c-4,-4 -10,-7 -16,-7 -6,0 -12,3 -16,7 -4,4 -6,9 -6,16 0,6 2,11 6,15 4,4 10,7 16,7 6,0 12,-3 16,-7 4,-4 6,-9 6,-15 0,-7 -2,-12 -6,-16zm-124 -23l40 0c6,0 11,2 14,6 4,3 6,8 6,14l0 33c0,6 -2,11 -6,14l0 0c-3,4 -8,6 -14,6l-40 0c-5,0 -10,-2 -14,-6l0 0c-4,-3 -6,-8 -6,-14l0 -33c0,-6 2,-11 6,-14l0 0c4,-4 9,-6 14,-6zm40 13l-40 0c-2,0 -3,1 -4,2l0 0c-2,1 -2,3 -2,5l0 33c0,2 0,4 2,5 1,1 2,2 4,2l40 0c2,0 4,-1 5,-2l0 0c1,-1 2,-3 2,-5l0 -33c0,-2 -1,-4 -2,-5 -1,-1 -3,-2 -5,-2zm-42 -59l130 0c5,0 10,2 13,5l0 0c3,3 6,8 6,13 0,5 -3,9 -6,12l0 0c-3,4 -8,6 -13,6l-130 0c-5,0 -9,-2 -12,-6 -4,-3 -6,-7 -6,-12 0,-5 2,-10 6,-13 3,-3 7,-5 12,-5zm130 13l-130 0c-1,0 -2,1 -3,1 -1,1 -1,2 -1,4 0,1 0,2 1,3 1,1 2,1 3,1l130 0c2,0 3,0 4,-1 1,-1 1,-2 1,-3 0,-2 0,-3 -1,-4 -1,0 -2,-1 -4,-1zm18 -35l0 0c8,0 15,3 20,8 5,5 8,12 8,19l0 112c0,8 -3,15 -8,20 -5,5 -12,8 -20,8l-164 0c-7,0 -14,-3 -19,-8 -5,-5 -9,-12 -9,-20l0 -7 0 0c-8,0 -15,-3 -20,-8 -5,-5 -8,-12 -8,-19l0 -112c0,-8 3,-15 8,-20 5,-5 12,-8 20,-8l164 0c8,0 14,3 19,8 5,5 9,12 9,20l0 7zm0 13l-164 0c-4,0 -7,2 -10,4 -3,3 -4,6 -4,10l0 112c0,4 1,8 4,10 3,3 6,5 10,5l164 0c4,0 8,-2 10,-5 3,-2 5,-6 5,-10l0 -112c0,-4 -2,-7 -5,-10 -2,-2 -6,-4 -10,-4z"/>
 </g>
</svg>
