<?xml version="1.0" encoding="UTF-8"?>
<!DOCTYPE svg PUBLIC "-//W3C//DTD SVG 1.1//EN" "http://www.w3.org/Graphics/SVG/1.1/DTD/svg11.dtd">
<!-- Creator: CorelDRAW X8 -->
<svg xmlns="http://www.w3.org/2000/svg" xml:space="preserve" width="250px" height="250px" version="1.1" style="shape-rendering:geometricPrecision; text-rendering:geometricPrecision; image-rendering:optimizeQuality; fill-rule:evenodd; clip-rule:evenodd"
viewBox="0 0 250 250"
 xmlns:xlink="http://www.w3.org/1999/xlink">
 <defs>
  <style type="text/css">
   <![CDATA[
    .fil0 {fill:white;fill-rule:nonzero}
   ]]>
  </style>
 </defs>
 <g id="Layer_x0020_1">
  <metadata id="CorelCorpID_0Corel-Layer"/>
  <path class="fil0" d="M57 59l150 0 0 -7c0,-4 -1,-8 -4,-10 -3,-3 -6,-5 -10,-5l-164 0c-4,0 -8,2 -10,5 -3,2 -5,6 -5,10l0 112c0,4 2,7 5,10 2,2 6,4 10,4l0 0 0 -92c0,-7 3,-14 8,-19 5,-5 12,-8 20,-8zm129 23l21 0c4,0 7,1 10,3l0 0c2,3 3,6 3,10l0 98c0,3 -1,7 -3,9l0 0c-3,2 -6,4 -10,4l-21 0c-4,0 -7,-2 -9,-4 -3,-2 -4,-6 -4,-9l0 -98c0,-4 1,-7 4,-10 2,-2 5,-3 9,-3zm-116 72l21 0c4,0 7,1 9,4 3,2 4,5 4,9l0 26c0,3 -1,7 -4,9 -2,2 -5,4 -9,4l-21 0c-4,0 -7,-2 -10,-4 -2,-2 -3,-6 -3,-9l0 -26c0,-4 1,-7 3,-9 3,-3 6,-4 10,-4zm21 13l-21 0 0 25 21 0 0 -25zm37 -62l21 0c4,0 7,1 9,3 3,3 4,6 4,10l0 75c0,3 -1,7 -4,9 -2,2 -5,4 -9,4l-21 0c-4,0 -7,-2 -10,-4 -2,-2 -3,-6 -3,-9l0 -75c0,-4 1,-7 3,-10 3,-2 6,-3 10,-3zm21 13l-21 0 0 74 21 0 0 -74zm58 -23l-21 0 0 97 21 0 0 -97zm14 -36l0 0c8,0 15,3 20,8 5,5 8,12 8,19l0 112c0,8 -3,15 -8,20 -5,5 -12,8 -20,8l-164 0c-8,0 -15,-3 -20,-8 -5,-5 -8,-12 -8,-20l0 -7 0 0c-8,0 -15,-3 -20,-8 -5,-5 -8,-12 -8,-19l0 -112c0,-8 3,-15 8,-20 5,-5 12,-8 20,-8l164 0c8,0 15,3 20,8 5,5 8,12 8,20l0 7zm0 13l-164 0c-4,0 -7,2 -10,4 -3,3 -4,6 -4,10l0 112c0,4 1,8 4,10 3,3 6,5 10,5l164 0c4,0 8,-2 10,-5 3,-2 5,-6 5,-10l0 -112c0,-4 -2,-7 -5,-10 -2,-2 -6,-4 -10,-4z"/>
 </g>
</svg>
