<?xml version="1.0" encoding="UTF-8"?>
<!DOCTYPE svg PUBLIC "-//W3C//DTD SVG 1.1//EN" "http://www.w3.org/Graphics/SVG/1.1/DTD/svg11.dtd">
<!-- Creator: CorelDRAW X8 -->
<svg xmlns="http://www.w3.org/2000/svg" xml:space="preserve" width="250px" height="250px" version="1.1" style="shape-rendering:geometricPrecision; text-rendering:geometricPrecision; image-rendering:optimizeQuality; fill-rule:evenodd; clip-rule:evenodd"
viewBox="0 0 250 250"
 xmlns:xlink="http://www.w3.org/1999/xlink">
 <defs>
  <style type="text/css">
   <![CDATA[
    .fil0 {fill:white;fill-rule:nonzero}
   ]]>
  </style>
 </defs>
 <g id="Layer_x0020_1">
  <metadata id="CorelCorpID_0Corel-Layer"/>
  <path class="fil0" d="M58 59l149 0 0 -7c0,-4 -2,-7 -4,-10 -3,-2 -7,-4 -11,-4l-163 0c-4,0 -7,2 -10,4 -2,3 -4,6 -4,10l0 111c0,4 2,8 4,10 3,3 6,5 10,5l1 0 0 -91c0,-8 3,-15 8,-20 5,-5 12,-8 20,-8zm13 59c-3,0 -6,-3 -6,-7 0,-4 3,-7 6,-7l138 0c3,0 6,3 6,7 0,4 -3,7 -6,7l-138 0zm0 35c-3,0 -6,-3 -6,-7 0,-4 3,-7 6,-7l87 0c3,0 6,3 6,7 0,4 -3,7 -6,7l-87 0zm0 31c-3,0 -6,-3 -6,-7 0,-3 3,-6 6,-6l138 0c3,0 6,3 6,6 0,4 -3,7 -6,7l-138 0zm149 -125l1 0c7,0 14,3 19,8 5,5 8,12 8,20l0 111c0,7 -3,14 -8,19 -5,5 -12,8 -19,8l-163 0c-8,0 -15,-3 -20,-8 -5,-5 -8,-12 -8,-19l0 -7 -1 0c-7,0 -14,-3 -19,-8 -5,-5 -8,-12 -8,-20l0 -111c0,-7 3,-14 8,-19 5,-5 12,-8 19,-8l163 0c8,0 15,3 20,8 5,5 8,12 8,19l0 7zm1 13l-163 0c-4,0 -8,2 -11,5 -2,2 -4,6 -4,10l0 111c0,4 2,7 4,10 3,2 7,4 11,4l163 0c4,0 7,-2 10,-4 2,-3 4,-6 4,-10l0 -111c0,-4 -2,-8 -4,-10 -3,-3 -6,-5 -10,-5z"/>
 </g>
</svg>
