<?xml version="1.0" encoding="UTF-8"?>
<!DOCTYPE svg PUBLIC "-//W3C//DTD SVG 1.1//EN" "http://www.w3.org/Graphics/SVG/1.1/DTD/svg11.dtd">
<!-- Creator: CorelDRAW X8 -->
<svg xmlns="http://www.w3.org/2000/svg" xml:space="preserve" width="250px" height="250px" version="1.1" style="shape-rendering:geometricPrecision; text-rendering:geometricPrecision; image-rendering:optimizeQuality; fill-rule:evenodd; clip-rule:evenodd"
viewBox="0 0 250 250"
 xmlns:xlink="http://www.w3.org/1999/xlink">
 <defs>
  <style type="text/css">
   <![CDATA[
    .fil0 {fill:white;fill-rule:nonzero}
   ]]>
  </style>
    <mask id="id0">
  <linearGradient id="id1" gradientUnits="userSpaceOnUse" x1="130.329" y1="133.653" x2="130.335" y2="222.859">
   <stop offset="0" style="stop-opacity:0; stop-color:white"/>
   <stop offset="1" style="stop-opacity:1; stop-color:white"/>
  </linearGradient>
     <rect style="fill:url(#id1)" x="121" y="127" width="16.2201" height="83.8113"/>
    </mask>
    <mask id="id2">
  <linearGradient id="id3" gradientUnits="userSpaceOnUse" x1="138.941" y1="135.196" x2="222.102" y2="215.248">
   <stop offset="0" style="stop-opacity:0; stop-color:white"/>
   <stop offset="1" style="stop-opacity:1; stop-color:white"/>
  </linearGradient>
     <rect style="fill:url(#id3)" x="128" y="123" width="64.0136" height="64.0148"/>
    </mask>
    <mask id="id4">
  <linearGradient id="id5" gradientUnits="userSpaceOnUse" x1="152.158" y1="123.509" x2="281.404" y2="124.522">
   <stop offset="0" style="stop-opacity:0; stop-color:white"/>
   <stop offset="1" style="stop-opacity:1; stop-color:white"/>
  </linearGradient>
     <rect style="fill:url(#id5)" x="133" y="116" width="83.8113" height="16.2201"/>
    </mask>
 </defs>
 <g id="Layer_x0020_1">
  <metadata id="CorelCorpID_0Corel-Layer"/>
  <g id="_778864464">
   <path class="fil0" d="M125 0c35,0 66,14 88,37 23,22 37,53 37,88 0,35 -14,66 -37,88 -22,23 -53,37 -88,37 -35,0 -66,-14 -88,-37 -23,-22 -37,-53 -37,-88 0,-35 14,-66 37,-88 22,-23 53,-37 88,-37zm-4 56c0,-4 4,-8 8,-8 5,0 8,4 8,8l0 54c5,3 8,8 8,14 0,9 -8,16 -17,16 -1,0 -2,0 -3,0l-46 56c-3,4 -8,4 -11,1 -4,-2 -4,-8 -1,-11l46 -56c-1,-2 -1,-4 -1,-6 0,-7 4,-12 9,-15l0 -53zm81 -8c-20,-20 -47,-32 -77,-32 -30,0 -57,12 -77,32 -20,20 -32,47 -32,77 0,30 12,57 32,77 20,20 47,32 77,32 30,0 57,-12 77,-32 20,-20 32,-47 32,-77 0,-30 -12,-57 -32,-77z"/>
   <path class="fil0" style="mask:url(#id0)" d="M121 135c0,-4 4,-8 8,-8 5,0 8,4 8,8l0 68c0,5 -3,8 -8,8 -4,0 -8,-3 -8,-8l0 -68z"/>
   <path class="fil0" style="mask:url(#id2)" d="M131 136c-3,-3 -3,-8 0,-11 3,-3 8,-3 11,0l48 48c3,3 3,8 0,11 -3,3 -8,3 -12,0l-47 -48z"/>
   <path class="fil0" style="mask:url(#id4)" d="M141 132c-5,0 -8,-3 -8,-8 0,-4 3,-8 8,-8l67 0c5,0 9,4 9,8 0,5 -4,8 -9,8l-67 0z"/>
  </g>
 </g>
</svg>
