<svg xmlns="http://www.w3.org/2000/svg" width="10.937" height="15.281" viewBox="0 0 10.937 15.281">
  <metadata><?xpacket begin="﻿" id="W5M0MpCehiHzreSzNTczkc9d"?>
<x:xmpmeta xmlns:x="adobe:ns:meta/" x:xmptk="Adobe XMP Core 5.6-c138 79.159824, 2016/09/14-01:09:01        ">
   <rdf:RDF xmlns:rdf="http://www.w3.org/1999/02/22-rdf-syntax-ns#">
      <rdf:Description rdf:about=""/>
   </rdf:RDF>
</x:xmpmeta>
                                                                                                    
                                                                                                    
                                                                                                    
                                                                                                    
                                                                                                    
                                                                                                    
                                                                                                    
                                                                                                    
                                                                                                    
                                                                                                    
                                                                                                    
                                                                                                    
                                                                                                    
                                                                                                    
                                                                                                    
                                                                                                    
                                                                                                    
                                                                                                    
                                                                                                    
                                                                                                    
                           
<?xpacket end="w"?></metadata>
<defs>
    <style>
      .cls-1 {
        fill: #bcc2cf;
        fill-rule: evenodd;
      }
    </style>
  </defs>
  <path id="Forma_1_copy" data-name="Forma 1 copy" class="cls-1" d="M718.651,530.554a5.551,5.551,0,0,0-5.46,5.626,5.627,5.627,0,0,0,.478,2.3,35.544,35.544,0,0,0,4.752,7.251,0.3,0.3,0,0,0,.23.109,0.3,0.3,0,0,0,.23-0.109,35.551,35.551,0,0,0,4.753-7.251,5.626,5.626,0,0,0,.477-2.3A5.551,5.551,0,0,0,718.651,530.554Zm0,8.549a2.924,2.924,0,1,1,2.836-2.923A2.883,2.883,0,0,1,718.651,539.1Z" transform="translate(-713.188 -530.563)"/>
</svg>
