<svg xmlns="http://www.w3.org/2000/svg" width="40.13" height="39.375" viewBox="0 0 40.13 39.375">
  <metadata><?xpacket begin="﻿" id="W5M0MpCehiHzreSzNTczkc9d"?>
<x:xmpmeta xmlns:x="adobe:ns:meta/" x:xmptk="Adobe XMP Core 5.6-c142 79.160924, 2017/07/13-01:06:39        ">
   <rdf:RDF xmlns:rdf="http://www.w3.org/1999/02/22-rdf-syntax-ns#">
      <rdf:Description rdf:about=""/>
   </rdf:RDF>
</x:xmpmeta>
                                                                                                    
                                                                                                    
                                                                                                    
                                                                                                    
                                                                                                    
                                                                                                    
                                                                                                    
                                                                                                    
                                                                                                    
                                                                                                    
                                                                                                    
                                                                                                    
                                                                                                    
                                                                                                    
                                                                                                    
                                                                                                    
                                                                                                    
                                                                                                    
                                                                                                    
                                                                                                    
                           
<?xpacket end="w"?></metadata>
<defs>
    <style>
      .cls-1 {
        fill: #667381;
        fill-rule: evenodd;
      }
    </style>
  </defs>
  <path id="icon" class="cls-1" d="M1000.88,36.315a4.276,4.276,0,1,1,4.23-4.276A4.259,4.259,0,0,1,1000.88,36.315Zm-16.929,3.132a1.222,1.222,0,0,1,1.217,1.227v6.06h6.007a1.227,1.227,0,0,1,0,2.455h-6.007v6.06a1.217,1.217,0,1,1-2.434,0v-6.06h-6.006a1.227,1.227,0,0,1,0-2.455h6.006V40.675A1.222,1.222,0,0,1,983.951,39.448Zm9.393-7.455c-7.4,0-15.378.007-22.779,0.007a3.114,3.114,0,0,0-2.215.93,3.167,3.167,0,0,0-.922,2.234V61.517a3.172,3.172,0,0,0,.92,2.236l0,0a3.114,3.114,0,0,0,2.215.931h27.458a3.119,3.119,0,0,0,2.217-.928,3.163,3.163,0,0,0,.92-2.236V40.228a1.215,1.215,0,1,1,2.43,0V61.517a5.614,5.614,0,0,1-1.63,3.965l-0.01,0a5.52,5.52,0,0,1-3.927,1.649H970.565a5.53,5.53,0,0,1-3.935-1.649v0A5.623,5.623,0,0,1,965,61.517V35.164a5.627,5.627,0,0,1,1.635-3.969,5.53,5.53,0,0,1,3.935-1.649c7.4,0,15.381-.007,22.779-0.007A1.227,1.227,0,0,1,993.344,31.993Z" transform="translate(-965 -27.75)"/>
</svg>
