<svg xmlns="http://www.w3.org/2000/svg" width="32.28" height="40.25" viewBox="0 0 32.28 40.25">
  <metadata><?xpacket begin="﻿" id="W5M0MpCehiHzreSzNTczkc9d"?>
<x:xmpmeta xmlns:x="adobe:ns:meta/" x:xmptk="Adobe XMP Core 5.6-c142 79.160924, 2017/07/13-01:06:39        ">
   <rdf:RDF xmlns:rdf="http://www.w3.org/1999/02/22-rdf-syntax-ns#">
      <rdf:Description rdf:about=""/>
   </rdf:RDF>
</x:xmpmeta>
                                                                                                    
                                                                                                    
                                                                                                    
                                                                                                    
                                                                                                    
                                                                                                    
                                                                                                    
                                                                                                    
                                                                                                    
                                                                                                    
                                                                                                    
                                                                                                    
                                                                                                    
                                                                                                    
                                                                                                    
                                                                                                    
                                                                                                    
                                                                                                    
                                                                                                    
                                                                                                    
                           
<?xpacket end="w"?></metadata>
<defs>
    <style>
      .cls-1 {
        fill: #667381;
        fill-rule: evenodd;
      }
    </style>
  </defs>
  <path id="icon" class="cls-1" d="M1203.49,67.088a1.2,1.2,0,0,1-1.46-.9,1.236,1.236,0,0,1,.87-1.494,41.538,41.538,0,0,0,12.22-5.157,15.887,15.887,0,0,1-14.66-4.5,16.759,16.759,0,0,1,0-23.338,15.871,15.871,0,0,1,22.81,0A16.644,16.644,0,0,1,1228,43.374C1228,56.318,1213.91,64.4,1203.49,67.088Zm18.08-13.79a14.261,14.261,0,0,0,0-19.849,13.512,13.512,0,0,0-19.41,0,14.261,14.261,0,0,0,0,19.849A13.512,13.512,0,0,0,1221.57,53.3Zm-12.12-10.324a2.341,2.341,0,1,1,2.34,2.391A2.367,2.367,0,0,1,1209.45,42.973Zm8.52-2.391a2.391,2.391,0,1,1-2.34,2.391A2.367,2.367,0,0,1,1217.97,40.583Zm-12.21,4.781a2.391,2.391,0,1,1,2.34-2.391A2.368,2.368,0,0,1,1205.76,45.364Z" transform="translate(-1195.72 -26.875)"/>
</svg>
