<svg xmlns="http://www.w3.org/2000/svg" width="48.84" height="37.625" viewBox="0 0 48.84 37.625">
  <metadata><?xpacket begin="﻿" id="W5M0MpCehiHzreSzNTczkc9d"?>
<x:xmpmeta xmlns:x="adobe:ns:meta/" x:xmptk="Adobe XMP Core 5.6-c142 79.160924, 2017/07/13-01:06:39        ">
   <rdf:RDF xmlns:rdf="http://www.w3.org/1999/02/22-rdf-syntax-ns#">
      <rdf:Description rdf:about=""/>
   </rdf:RDF>
</x:xmpmeta>
                                                                                                    
                                                                                                    
                                                                                                    
                                                                                                    
                                                                                                    
                                                                                                    
                                                                                                    
                                                                                                    
                                                                                                    
                                                                                                    
                                                                                                    
                                                                                                    
                                                                                                    
                                                                                                    
                                                                                                    
                                                                                                    
                                                                                                    
                                                                                                    
                                                                                                    
                                                                                                    
                           
<?xpacket end="w"?></metadata>
<defs>
    <style>
      .cls-1 {
        fill: #667381;
        fill-rule: evenodd;
      }
    </style>
  </defs>
  <path id="icon_copy" data-name="icon copy" class="cls-1" d="M1086.37,64.61a5.547,5.547,0,0,1-3.94,1.652h-37.69a5.528,5.528,0,0,1-3.94-1.651,5.635,5.635,0,0,1-1.64-3.973V34.258a5.635,5.635,0,0,1,1.64-3.973,5.528,5.528,0,0,1,3.94-1.651h37.69a5.546,5.546,0,0,1,3.94,1.651v0a5.637,5.637,0,0,1,1.64,3.968V60.637a5.637,5.637,0,0,1-1.64,3.968v0Zm-0.8-30.351a3.156,3.156,0,0,0-.92-2.236v0a3.118,3.118,0,0,0-2.22-.927h-37.69a3.129,3.129,0,0,0-2.22.931,3.165,3.165,0,0,0-.92,2.236V60.637a3.165,3.165,0,0,0,.92,2.236,3.128,3.128,0,0,0,2.22.931h37.69a3.119,3.119,0,0,0,2.22-.927v0a3.155,3.155,0,0,0,.92-2.236V34.258ZM1051.95,41.9c-1.74-1.1-3.74-2.366-6.16-3.815a1.23,1.23,0,0,1-.42-1.68,1.2,1.2,0,0,1,1.66-.431c2.36,1.416,4.42,2.72,6.21,3.854,10.78,6.829,11.06,7,26.8-4.711a1.2,1.2,0,0,1,1.69.254,1.23,1.23,0,0,1-.25,1.713C1064.41,49.795,1064.09,49.6,1051.95,41.9Z" transform="translate(-1039.16 -28.625)"/>
</svg>
