<svg xmlns="http://www.w3.org/2000/svg" width="39.22" height="42" viewBox="0 0 39.22 42">
  <metadata><?xpacket begin="﻿" id="W5M0MpCehiHzreSzNTczkc9d"?>
<x:xmpmeta xmlns:x="adobe:ns:meta/" x:xmptk="Adobe XMP Core 5.6-c142 79.160924, 2017/07/13-01:06:39        ">
   <rdf:RDF xmlns:rdf="http://www.w3.org/1999/02/22-rdf-syntax-ns#">
      <rdf:Description rdf:about=""/>
   </rdf:RDF>
</x:xmpmeta>
                                                                                                    
                                                                                                    
                                                                                                    
                                                                                                    
                                                                                                    
                                                                                                    
                                                                                                    
                                                                                                    
                                                                                                    
                                                                                                    
                                                                                                    
                                                                                                    
                                                                                                    
                                                                                                    
                                                                                                    
                                                                                                    
                                                                                                    
                                                                                                    
                                                                                                    
                                                                                                    
                           
<?xpacket end="w"?></metadata>
<defs>
    <style>
      .cls-1 {
        fill: #667381;
        fill-rule: evenodd;
      }
    </style>
  </defs>
  <path id="icon" class="cls-1" d="M1160.05,59.082a5.951,5.951,0,0,1-4.18,1.726h-6.29a7.189,7.189,0,0,1-2.14,5.076,7.343,7.343,0,0,1-10.33,0,7.2,7.2,0,0,1-2.15-5.076h-6.49a5.915,5.915,0,0,1-4.18-1.726,5.818,5.818,0,0,1,0-8.3v0a5.971,5.971,0,0,1,2.96-1.6,14.455,14.455,0,0,1,4.25-9.071,14.7,14.7,0,0,1,6.39-3.723q-0.12-.108-0.24-0.223v0a5.9,5.9,0,0,1,0-8.41v0a6.026,6.026,0,0,1,8.48,0v0a5.9,5.9,0,0,1,0,8.41v0q-0.12.114-.24,0.223a14.706,14.706,0,0,1,6.39,3.723,14.453,14.453,0,0,1,4.24,8.98,5.948,5.948,0,0,1,3.53,1.689,5.818,5.818,0,0,1,0,8.3v0ZM1144.4,29.471l-0.01,0a3.565,3.565,0,0,0-5,0l-0.01,0a3.507,3.507,0,0,0,0,4.966l0.01,0a3.565,3.565,0,0,0,5,0l0.01,0A3.507,3.507,0,0,0,1144.4,29.471Zm6.14,12.365a12.3,12.3,0,0,0-17.3,0,12.075,12.075,0,0,0-3.51,7.216h24.32A12.075,12.075,0,0,0,1150.54,41.836Zm7.77,10.669a3.46,3.46,0,0,0-2.44-1.01h-27.4a3.451,3.451,0,0,0-2.44,1.005l-0.01,0a3.44,3.44,0,0,0,2.45,5.86h8.96v2.443a4.739,4.739,0,0,0,1.42,3.349,4.87,4.87,0,0,0,6.85,0,4.739,4.739,0,0,0,1.42-3.348h-4.44a1.222,1.222,0,1,1,0-2.443h13.19a3.465,3.465,0,0,0,2.44-1.008A3.4,3.4,0,0,0,1158.31,52.5Z" transform="translate(-1122.56 -26)"/>
</svg>
