<svg xmlns="http://www.w3.org/2000/svg" width="14.968" height="11.218" viewBox="0 0 14.968 11.218">
  <metadata><?xpacket begin="﻿" id="W5M0MpCehiHzreSzNTczkc9d"?>
<x:xmpmeta xmlns:x="adobe:ns:meta/" x:xmptk="Adobe XMP Core 5.6-c138 79.159824, 2016/09/14-01:09:01        ">
   <rdf:RDF xmlns:rdf="http://www.w3.org/1999/02/22-rdf-syntax-ns#">
      <rdf:Description rdf:about=""/>
   </rdf:RDF>
</x:xmpmeta>
                                                                                                    
                                                                                                    
                                                                                                    
                                                                                                    
                                                                                                    
                                                                                                    
                                                                                                    
                                                                                                    
                                                                                                    
                                                                                                    
                                                                                                    
                                                                                                    
                                                                                                    
                                                                                                    
                                                                                                    
                                                                                                    
                                                                                                    
                                                                                                    
                                                                                                    
                                                                                                    
                           
<?xpacket end="w"?></metadata>
<defs>
    <style>
      .cls-1 {
        fill: #bcc2cf;
        fill-rule: evenodd;
      }
    </style>
  </defs>
  <path id="Forma_1" data-name="Forma 1" class="cls-1" d="M724.7,521.671a1.312,1.312,0,0,0,.876-0.316l-4.241-4.051-0.294.2q-0.477.336-.773,0.523a4.839,4.839,0,0,1-.79.383,2.507,2.507,0,0,1-.919.2h-0.016a2.512,2.512,0,0,1-.92-0.2,4.823,4.823,0,0,1-.789-0.383q-0.3-.187-0.773-0.523c-0.089-.062-0.187-0.13-0.293-0.2l-4.243,4.052a1.314,1.314,0,0,0,.877.316h12.3Zm-12.791-6.919a4.345,4.345,0,0,1-.844-0.694v6.164l3.739-3.571Q713.68,515.9,711.907,514.752Zm13.293,0q-1.707,1.1-2.9,1.9l3.737,3.569v-6.164A4.5,4.5,0,0,1,725.2,514.752Zm-0.5-4.317H712.4a1.219,1.219,0,0,0-.99.415,1.561,1.561,0,0,0-.347,1.038,1.818,1.818,0,0,0,.459,1.089,4.1,4.1,0,0,0,.978.922q0.284,0.19,1.713,1.137l1.346,0.892c0.327,0.219.61,0.407,0.843,0.564l0.125,0.085,0.23,0.158q0.272,0.188.451,0.3t0.435,0.259a2.523,2.523,0,0,0,.48.215,1.386,1.386,0,0,0,.418.072h0.017a1.375,1.375,0,0,0,.417-0.072,2.5,2.5,0,0,0,.481-0.215c0.17-.1.314-0.182,0.434-0.259s0.271-.179.452-0.3c0.093-.065.169-0.117,0.23-0.158l0.125-.085,0.845-.561,3.065-2.032a3.908,3.908,0,0,0,1.019-.982,2.043,2.043,0,0,0,.409-1.205,1.2,1.2,0,0,0-.4-0.9A1.326,1.326,0,0,0,724.7,510.435Z" transform="translate(-711.063 -510.438)"/>
</svg>
