<svg id="notification" xmlns="http://www.w3.org/2000/svg" width="29" height="29" viewBox="0 0 29 29">
  <metadata><?xpacket begin="﻿" id="W5M0MpCehiHzreSzNTczkc9d"?>
<x:xmpmeta xmlns:x="adobe:ns:meta/" x:xmptk="Adobe XMP Core 5.6-c138 79.159824, 2016/09/14-01:09:01        ">
   <rdf:RDF xmlns:rdf="http://www.w3.org/1999/02/22-rdf-syntax-ns#">
      <rdf:Description rdf:about=""/>
   </rdf:RDF>
</x:xmpmeta>
                                                                                                    
                                                                                                    
                                                                                                    
                                                                                                    
                                                                                                    
                                                                                                    
                                                                                                    
                                                                                                    
                                                                                                    
                                                                                                    
                                                                                                    
                                                                                                    
                                                                                                    
                                                                                                    
                                                                                                    
                                                                                                    
                                                                                                    
                                                                                                    
                                                                                                    
                                                                                                    
                           
<?xpacket end="w"?></metadata>
<defs>
    <style>
      .cls-1 {
        fill: #ed8564;
      }

      .cls-2 {
        fill: #fff;
        fill-rule: evenodd;
      }
    </style>
  </defs>
  <circle class="cls-1" cx="14.5" cy="14.5" r="14.5"/>
  <path id="Shape_2084_copy" data-name="Shape 2084 copy" class="cls-2" d="M936.631,440.817h0l1.845,1.99-2.068.553a0.228,0.228,0,0,1-.259-0.231l0.481-2.311h0Zm0.524-.561,1.853,1.989,4.751-5.076-1.85-2-4.754,5.082h0Zm5.278-5.642,0.941-1.006a0.668,0.668,0,0,1,.875.144l0.915,0.969a0.6,0.6,0,0,1,.03.915l-0.907.969-1.854-1.991h0ZM936.293,428a2.38,2.38,0,0,0-2.29,2.448v14.1a2.381,2.381,0,0,0,2.29,2.448h9.413A2.38,2.38,0,0,0,948,444.552V432.041l-3.961-.059V428h-7.741Zm8.54,3.093V428h0.079L948,430.95v0.143h-3.162Z" transform="translate(-926 -423)"/>
</svg>
