<svg id="notification" xmlns="http://www.w3.org/2000/svg" width="29" height="29" viewBox="0 0 29 29">
  <metadata><?xpacket begin="﻿" id="W5M0MpCehiHzreSzNTczkc9d"?>
<x:xmpmeta xmlns:x="adobe:ns:meta/" x:xmptk="Adobe XMP Core 5.6-c138 79.159824, 2016/09/14-01:09:01        ">
   <rdf:RDF xmlns:rdf="http://www.w3.org/1999/02/22-rdf-syntax-ns#">
      <rdf:Description rdf:about=""/>
   </rdf:RDF>
</x:xmpmeta>
                                                                                                    
                                                                                                    
                                                                                                    
                                                                                                    
                                                                                                    
                                                                                                    
                                                                                                    
                                                                                                    
                                                                                                    
                                                                                                    
                                                                                                    
                                                                                                    
                                                                                                    
                                                                                                    
                                                                                                    
                                                                                                    
                                                                                                    
                                                                                                    
                                                                                                    
                                                                                                    
                           
<?xpacket end="w"?></metadata>
<defs>
    <style>
      .cls-1 {
        fill: #00a7e5;
      }

      .cls-2 {
        fill: #fff;
        fill-rule: evenodd;
      }
    </style>
  </defs>
  <circle class="cls-1" cx="14.5" cy="14.5" r="14.5"/>
  <path class="cls-2" d="M932.838,337.052l1.21-.205a2.691,2.691,0,0,0-.024.361v12.738a2.783,2.783,0,0,0,.81,1.961l0,0a2.74,2.74,0,0,0,1.946.816h6.252l-7.376,1.248a2.2,2.2,0,0,1-2.526-1.813L931.038,339.6a2.216,2.216,0,0,1,1.8-2.546h0ZM936.782,335a2.209,2.209,0,0,0-2.193,2.211v12.738a2.208,2.208,0,0,0,2.193,2.21H945.8a2.209,2.209,0,0,0,2.194-2.21v-11.3l-3.8-.053V335h-7.417Zm8.182,2.794V335h0.076l2.954,2.665v0.129h-3.03Z" transform="translate(-926 -330)"/>
</svg>
