<svg xmlns="http://www.w3.org/2000/svg" width="49" height="49" viewBox="0 0 49 49">
  <metadata><?xpacket begin="﻿" id="W5M0MpCehiHzreSzNTczkc9d"?>
<x:xmpmeta xmlns:x="adobe:ns:meta/" x:xmptk="Adobe XMP Core 5.6-c142 79.160924, 2017/07/13-01:06:39        ">
   <rdf:RDF xmlns:rdf="http://www.w3.org/1999/02/22-rdf-syntax-ns#">
      <rdf:Description rdf:about=""/>
   </rdf:RDF>
</x:xmpmeta>
                                                                                                    
                                                                                                    
                                                                                                    
                                                                                                    
                                                                                                    
                                                                                                    
                                                                                                    
                                                                                                    
                                                                                                    
                                                                                                    
                                                                                                    
                                                                                                    
                                                                                                    
                                                                                                    
                                                                                                    
                                                                                                    
                                                                                                    
                                                                                                    
                                                                                                    
                                                                                                    
                           
<?xpacket end="w"?></metadata>
<defs>
    <style>
      .cls-1 {
        fill: #667383;
        fill-rule: evenodd;
      }
    </style>
  </defs>
  <path id="Forma_1" data-name="Forma 1" class="cls-1" d="M1261.5,245a24.5,24.5,0,1,0,24.5,24.5A24.528,24.528,0,0,0,1261.5,245Zm0,45.787a21.287,21.287,0,1,1,21.29-21.287A21.313,21.313,0,0,1,1261.5,290.787Zm0-34.593a7.819,7.819,0,0,0-7.81,7.815,1.605,1.605,0,1,0,3.21,0,4.6,4.6,0,1,1,4.6,4.6,1.607,1.607,0,0,0-1.61,1.606v5.6a1.61,1.61,0,0,0,3.22,0v-4.157A7.815,7.815,0,0,0,1261.5,256.194Zm0,22.339a2.017,2.017,0,1,0,2.02,2.016A2.022,2.022,0,0,0,1261.5,278.533Z" transform="translate(-1237 -245)"/>
</svg>
