<svg xmlns="http://www.w3.org/2000/svg" width="42" height="58" viewBox="0 0 42 58">
  <metadata><?xpacket begin="﻿" id="W5M0MpCehiHzreSzNTczkc9d"?>
<x:xmpmeta xmlns:x="adobe:ns:meta/" x:xmptk="Adobe XMP Core 5.6-c142 79.160924, 2017/07/13-01:06:39        ">
   <rdf:RDF xmlns:rdf="http://www.w3.org/1999/02/22-rdf-syntax-ns#">
      <rdf:Description rdf:about=""/>
   </rdf:RDF>
</x:xmpmeta>
                                                                                                    
                                                                                                    
                                                                                                    
                                                                                                    
                                                                                                    
                                                                                                    
                                                                                                    
                                                                                                    
                                                                                                    
                                                                                                    
                                                                                                    
                                                                                                    
                                                                                                    
                                                                                                    
                                                                                                    
                                                                                                    
                                                                                                    
                                                                                                    
                                                                                                    
                                                                                                    
                           
<?xpacket end="w"?></metadata>
<defs>
    <style>
      .cls-1 {
        fill: #667383;
        fill-rule: evenodd;
      }
    </style>
  </defs>
  <path class="cls-1" d="M1262,343.342a5.761,5.761,0,0,0-3.95,9.935v5.2a3.95,3.95,0,1,0,7.9,0v-5.2A5.761,5.761,0,0,0,1262,343.342Zm2.03,7.917a2.734,2.734,0,0,0-.86,1.985v5.23a1.17,1.17,0,1,1-2.34,0v-5.23a2.735,2.735,0,0,0-.86-1.985A2.96,2.96,0,1,1,1264.03,351.259Zm14.8-15.484h-4.17V324.7a12.66,12.66,0,1,0-25.32,0v11.079h-4.17a4.18,4.18,0,0,0-4.17,4.181v25.863a4.18,4.18,0,0,0,4.17,4.181h33.66a4.18,4.18,0,0,0,4.17-4.181V339.956A4.18,4.18,0,0,0,1278.83,335.775ZM1252.12,324.7a9.88,9.88,0,1,1,19.76,0v11.079h-19.76V324.7Zm28.1,41.123h0a1.392,1.392,0,0,1-1.39,1.394h-33.66a1.392,1.392,0,0,1-1.39-1.394V339.956a1.391,1.391,0,0,1,1.39-1.393h33.66a1.391,1.391,0,0,1,1.39,1.393v25.863Z" transform="translate(-1241 -312)"/>
</svg>
