<svg xmlns="http://www.w3.org/2000/svg" width="37.97" height="49" viewBox="0 0 37.97 49">
  <metadata><?xpacket begin="﻿" id="W5M0MpCehiHzreSzNTczkc9d"?>
<x:xmpmeta xmlns:x="adobe:ns:meta/" x:xmptk="Adobe XMP Core 5.6-c142 79.160924, 2017/07/13-01:06:39        ">
   <rdf:RDF xmlns:rdf="http://www.w3.org/1999/02/22-rdf-syntax-ns#">
      <rdf:Description rdf:about=""/>
   </rdf:RDF>
</x:xmpmeta>
                                                                                                    
                                                                                                    
                                                                                                    
                                                                                                    
                                                                                                    
                                                                                                    
                                                                                                    
                                                                                                    
                                                                                                    
                                                                                                    
                                                                                                    
                                                                                                    
                                                                                                    
                                                                                                    
                                                                                                    
                                                                                                    
                                                                                                    
                                                                                                    
                                                                                                    
                                                                                                    
                           
<?xpacket end="w"?></metadata>
<defs>
    <style>
      .cls-1 {
        fill: #667383;
        fill-rule: evenodd;
      }
    </style>
  </defs>
  <path id="icon" class="cls-1" d="M1270.89,150.006H1267V150h-11.45v0.006h-3.89a9.326,9.326,0,0,1-6.62-2.763,9.429,9.429,0,0,1-2.75-6.646v-3.725c0-10.506,12.39-7.754,11.28-13.518-0.2-.186-0.38-0.38-0.56-0.58a13.746,13.746,0,0,1,0-17.963,10.873,10.873,0,0,1,16.53,0,13.746,13.746,0,0,1,0,17.963c-0.19.209-.38,0.411-0.58,0.607-1.07,5.742,11.3,2.983,11.3,13.491V140.6A9.411,9.411,0,0,1,1270.89,150.006Zm-1.15-36.214a10.269,10.269,0,0,0-2.54-6.873,7.752,7.752,0,0,0-11.86,0,10.6,10.6,0,0,0,0,13.747,7.752,7.752,0,0,0,11.86,0A10.268,10.268,0,0,0,1269.74,113.792Zm7.37,23.08c0-7.341-9.53-4.523-11.21-11.348a10.663,10.663,0,0,1-9.28-.009c-1.73,7.089-11.18,3.457-11.18,11.357V140.6a6.243,6.243,0,0,0,1.83,4.415,6.163,6.163,0,0,0,4.39,1.837h3.89v0.007H1267v-0.007h3.89a6.181,6.181,0,0,0,4.39-1.837,6.243,6.243,0,0,0,1.83-4.415v-3.725Zm-15.84,7.963a1.579,1.579,0,0,1-1.57-1.579v-9.815a1.575,1.575,0,1,1,3.15,0v9.815A1.581,1.581,0,0,1,1261.27,144.835Z" transform="translate(-1242.28 -101)"/>
</svg>
