<svg xmlns="http://www.w3.org/2000/svg" width="51.88" height="52" viewBox="0 0 51.88 52">
  <metadata><?xpacket begin="﻿" id="W5M0MpCehiHzreSzNTczkc9d"?>
<x:xmpmeta xmlns:x="adobe:ns:meta/" x:xmptk="Adobe XMP Core 5.6-c142 79.160924, 2017/07/13-01:06:39        ">
   <rdf:RDF xmlns:rdf="http://www.w3.org/1999/02/22-rdf-syntax-ns#">
      <rdf:Description rdf:about=""/>
   </rdf:RDF>
</x:xmpmeta>
                                                                                                    
                                                                                                    
                                                                                                    
                                                                                                    
                                                                                                    
                                                                                                    
                                                                                                    
                                                                                                    
                                                                                                    
                                                                                                    
                                                                                                    
                                                                                                    
                                                                                                    
                                                                                                    
                                                                                                    
                                                                                                    
                                                                                                    
                                                                                                    
                                                                                                    
                                                                                                    
                           
<?xpacket end="w"?></metadata>
<defs>
    <style>
      .cls-1 {
        fill: #667383;
        fill-rule: evenodd;
      }
    </style>
  </defs>
  <path class="cls-1" d="M1285.21,192.541l-3.64-.619a20.429,20.429,0,0,0-1.47-3.541l2.15-3.009a3.2,3.2,0,0,0-.35-4.139L1278.67,178a3.182,3.182,0,0,0-4.12-.347l-3.01,2.15a20.29,20.29,0,0,0-3.66-1.51l-0.61-3.606a3.2,3.2,0,0,0-3.16-2.683h-4.56a3.211,3.211,0,0,0-3.17,2.683l-0.62,3.693a20.083,20.083,0,0,0-3.53,1.488l-2.98-2.15a3.165,3.165,0,0,0-1.86-.6,3.132,3.132,0,0,0-2.26.945l-3.24,3.237a3.217,3.217,0,0,0-.35,4.139l2.17,3.053a19.215,19.215,0,0,0-1.44,3.552l-3.6.608a3.21,3.21,0,0,0-2.68,3.172V200.4a3.21,3.21,0,0,0,2.68,3.172l3.68,0.63a19.93,19.93,0,0,0,1.49,3.53l-2.14,2.977a3.2,3.2,0,0,0,.35,4.139l3.23,3.237a3.182,3.182,0,0,0,4.12.347l3.04-2.172a20.346,20.346,0,0,0,3.42,1.412l0.61,3.65a3.2,3.2,0,0,0,3.16,2.683h4.58a3.2,3.2,0,0,0,3.16-2.683l0.62-3.65a20.7,20.7,0,0,0,3.53-1.467l3,2.151a3.173,3.173,0,0,0,1.87.6h0a3.183,3.183,0,0,0,2.26-.945l3.23-3.237a3.229,3.229,0,0,0,.35-4.139l-2.15-3.02a19.57,19.57,0,0,0,1.46-3.541l3.64-.609a3.208,3.208,0,0,0,2.68-3.172v-4.573A3.165,3.165,0,0,0,1285.21,192.541Zm-0.25,7.745a0.283,0.283,0,0,1-.24.283l-4.55.76a1.448,1.448,0,0,0-1.17,1.076,17.2,17.2,0,0,1-1.89,4.551,1.469,1.469,0,0,0,.07,1.6l2.67,3.78a0.289,0.289,0,0,1-.03.37l-3.23,3.237a0.262,0.262,0,0,1-.2.087,0.29,0.29,0,0,1-.17-0.055l-3.76-2.683a1.458,1.458,0,0,0-1.59-.065,17.386,17.386,0,0,1-4.54,1.89,1.446,1.446,0,0,0-1.07,1.173l-0.77,4.563a0.279,0.279,0,0,1-.28.239h-4.56a0.289,0.289,0,0,1-.29-0.239l-0.75-4.563a1.459,1.459,0,0,0-1.08-1.173,17.992,17.992,0,0,1-4.44-1.825,1.517,1.517,0,0,0-.74-0.195,1.421,1.421,0,0,0-.84.271l-3.79,2.7a0.343,0.343,0,0,1-.17.054,0.276,0.276,0,0,1-.2-0.087l-3.23-3.237a0.286,0.286,0,0,1-.03-0.369l2.66-3.747a1.488,1.488,0,0,0,.07-1.608,17.038,17.038,0,0,1-1.91-4.541,1.487,1.487,0,0,0-1.17-1.075l-4.58-.783a0.282,0.282,0,0,1-.24-0.282v-4.573a0.282,0.282,0,0,1,.24-0.282l4.51-.761a1.482,1.482,0,0,0,1.19-1.086,17.162,17.162,0,0,1,1.85-4.562,1.451,1.451,0,0,0-.08-1.586l-2.7-3.8a0.3,0.3,0,0,1,.04-0.37l3.23-3.237a0.262,0.262,0,0,1,.2-0.087,0.239,0.239,0,0,1,.16.055l3.74,2.672a1.491,1.491,0,0,0,1.61.065,16.963,16.963,0,0,1,4.53-1.912,1.49,1.49,0,0,0,1.07-1.173l0.78-4.595a0.279,0.279,0,0,1,.28-0.239h4.56a0.279,0.279,0,0,1,.28.239l0.76,4.53a1.469,1.469,0,0,0,1.09,1.184,17.579,17.579,0,0,1,4.64,1.912,1.474,1.474,0,0,0,1.6-.066l3.73-2.693a0.344,0.344,0,0,1,.17-0.055,0.276,0.276,0,0,1,.2.087l3.23,3.237a0.287,0.287,0,0,1,.03.37l-2.67,3.769a1.468,1.468,0,0,0-.07,1.6,17.2,17.2,0,0,1,1.89,4.551,1.443,1.443,0,0,0,1.17,1.076l4.55,0.771a0.283,0.283,0,0,1,.24.282v4.573h-0.01Zm-23.03-13.513a11.222,11.222,0,1,0,11.19,11.221A11.216,11.216,0,0,0,1261.93,186.773Zm0,19.51a8.289,8.289,0,1,1,8.27-8.289A8.287,8.287,0,0,1,1261.93,206.283Z" transform="translate(-1236 -172)"/>
</svg>
