<svg xmlns="http://www.w3.org/2000/svg" width="36.718" height="37.06" viewBox="0 0 36.718 37.06">
  <metadata><?xpacket begin="﻿" id="W5M0MpCehiHzreSzNTczkc9d"?>
<x:xmpmeta xmlns:x="adobe:ns:meta/" x:xmptk="Adobe XMP Core 5.6-c138 79.159824, 2016/09/14-01:09:01        ">
   <rdf:RDF xmlns:rdf="http://www.w3.org/1999/02/22-rdf-syntax-ns#">
      <rdf:Description rdf:about=""/>
   </rdf:RDF>
</x:xmpmeta>
                                                                                                    
                                                                                                    
                                                                                                    
                                                                                                    
                                                                                                    
                                                                                                    
                                                                                                    
                                                                                                    
                                                                                                    
                                                                                                    
                                                                                                    
                                                                                                    
                                                                                                    
                                                                                                    
                                                                                                    
                                                                                                    
                                                                                                    
                                                                                                    
                                                                                                    
                                                                                                    
                           
<?xpacket end="w"?></metadata>
<defs>
    <style>
      .cls-1 {
        fill: #c3d0d8;
        fill-rule: evenodd;
      }
    </style>
  </defs>
  <path id="icon_" data-name="icon " class="cls-1" d="M632.923,1427.62c-10.121,0-18.355,7.87-18.355,17.55a16.961,16.961,0,0,0,2.917,9.5c-0.362,4.25-1.331,7.4-2.738,8.9a0.678,0.678,0,0,0-.115.75,0.614,0.614,0,0,0,.548.36c0.028,0,.056-0.01.085-0.01a31.449,31.449,0,0,0,10.167-3.47,18.959,18.959,0,0,0,7.491,1.53c10.121,0,18.355-7.88,18.355-17.56S643.044,1427.62,632.923,1427.62Zm-8.566,20.15a2.6,2.6,0,1,1,2.448-2.6A2.525,2.525,0,0,1,624.357,1447.77Zm8.566,0a2.6,2.6,0,1,1,2.448-2.6A2.525,2.525,0,0,1,632.923,1447.77Zm8.566,0a2.6,2.6,0,1,1,2.447-2.6A2.525,2.525,0,0,1,641.489,1447.77Z" transform="translate(-614.563 -1427.63)"/>
</svg>
