<svg id="icon" xmlns="http://www.w3.org/2000/svg" width="84" height="84" viewBox="0 0 84 84">
  <metadata><?xpacket begin="﻿" id="W5M0MpCehiHzreSzNTczkc9d"?>
<x:xmpmeta xmlns:x="adobe:ns:meta/" x:xmptk="Adobe XMP Core 5.6-c138 79.159824, 2016/09/14-01:09:01        ">
   <rdf:RDF xmlns:rdf="http://www.w3.org/1999/02/22-rdf-syntax-ns#">
      <rdf:Description rdf:about=""/>
   </rdf:RDF>
</x:xmpmeta>
                                                                                                    
                                                                                                    
                                                                                                    
                                                                                                    
                                                                                                    
                                                                                                    
                                                                                                    
                                                                                                    
                                                                                                    
                                                                                                    
                                                                                                    
                                                                                                    
                                                                                                    
                                                                                                    
                                                                                                    
                                                                                                    
                                                                                                    
                                                                                                    
                                                                                                    
                                                                                                    
                           
<?xpacket end="w"?></metadata>
<defs>
    <style>
      .cls-1 {
        fill: #f3f4f6;
      }

      .cls-2 {
        fill: #c3d0d8;
        fill-rule: evenodd;
      }
    </style>
  </defs>
  <circle class="cls-1" cx="42" cy="42" r="42"/>
  <path id="icon-2" data-name="icon" class="cls-2" d="M502.1,1462.38a3.676,3.676,0,0,0,2.455-.89l-11.882-11.46c-0.286.2-.562,0.39-0.823,0.57-0.889.64-1.611,1.13-2.165,1.48a12.448,12.448,0,0,1-2.212,1.08,6.942,6.942,0,0,1-2.574.56H484.85a6.942,6.942,0,0,1-2.574-.56,12.448,12.448,0,0,1-2.212-1.08c-0.554-.35-1.275-0.84-2.165-1.48-0.248-.17-0.523-0.36-0.82-0.57L465.2,1461.49a3.671,3.671,0,0,0,2.454.89H502.1Zm-35.83-19.56a12.146,12.146,0,0,1-2.364-1.96v17.42l10.473-10.09Q471.234,1446.075,466.268,1442.82Zm37.235,0q-4.782,3.12-8.128,5.37l10.468,10.1v-17.43A12.6,12.6,0,0,1,503.5,1442.82Zm-1.4-12.2H467.649a3.4,3.4,0,0,0-2.773,1.17,4.436,4.436,0,0,0-.971,2.93,5.146,5.146,0,0,0,1.287,3.08,11.337,11.337,0,0,0,2.738,2.61q0.795,0.54,4.8,3.21,2.16,1.44,3.769,2.53c0.918,0.61,1.709,1.15,2.362,1.59,0.075,0.05.193,0.13,0.35,0.24s0.382,0.26.645,0.45c0.507,0.35.929,0.64,1.264,0.86s0.741,0.46,1.217.73a7.6,7.6,0,0,0,1.346.61,4,4,0,0,0,1.17.2H484.9a4,4,0,0,0,1.17-.2,7.6,7.6,0,0,0,1.346-.61c0.476-.27.881-0.52,1.216-0.73s0.758-.51,1.265-0.86c0.262-.19.476-0.33,0.645-0.45s0.274-.19.349-0.24c0.509-.34,1.3-0.87,2.369-1.59q2.91-1.95,8.584-5.74a10.874,10.874,0,0,0,2.855-2.78,5.791,5.791,0,0,0,1.146-3.4,3.411,3.411,0,0,0-1.111-2.55A3.676,3.676,0,0,0,502.1,1430.62Z" transform="translate(-443 -1404)"/>
</svg>
