<svg viewBox="0 0 28 27.03">
  <path id="icon" class="cls-1" d="M778.368,1453.36l-4.323-4.18a2.31,2.31,0,0,0-3.178.06l-2.178,2.11c-0.137-.08-0.279-0.15-0.429-0.23a21.745,21.745,0,0,1-5.239-3.67,21.1,21.1,0,0,1-3.8-5.07c-0.081-.14-0.158-0.28-0.234-0.41l1.461-1.41,0.719-.7a2.124,2.124,0,0,0,.058-3.07l-4.323-4.18a2.31,2.31,0,0,0-3.178.06l-1.219,1.18,0.034,0.04a6.635,6.635,0,0,0-1,1.71,6.817,6.817,0,0,0-.447,1.73c-0.57,4.58,1.592,8.76,7.46,14.44,8.113,7.84,14.65,7.25,14.932,7.22a7.225,7.225,0,0,0,1.8-.44,6.831,6.831,0,0,0,1.765-.97l0.026,0.03,1.234-1.17A2.137,2.137,0,0,0,778.368,1453.36Z" transform="translate(-751 -1432)"/>
</svg>
