<svg xmlns="http://www.w3.org/2000/svg" width="15.969" height="17" viewBox="0 0 15.969 17">
  <metadata><?xpacket begin="﻿" id="W5M0MpCehiHzreSzNTczkc9d"?>
<x:xmpmeta xmlns:x="adobe:ns:meta/" x:xmptk="Adobe XMP Core 5.6-c138 79.159824, 2016/09/14-01:09:01        ">
   <rdf:RDF xmlns:rdf="http://www.w3.org/1999/02/22-rdf-syntax-ns#">
      <rdf:Description rdf:about=""/>
   </rdf:RDF>
</x:xmpmeta>
                                                                                                    
                                                                                                    
                                                                                                    
                                                                                                    
                                                                                                    
                                                                                                    
                                                                                                    
                                                                                                    
                                                                                                    
                                                                                                    
                                                                                                    
                                                                                                    
                                                                                                    
                                                                                                    
                                                                                                    
                                                                                                    
                                                                                                    
                                                                                                    
                                                                                                    
                                                                                                    
                           
<?xpacket end="w"?></metadata>
<defs>
    <style>
      .cls-1 {
        fill: #657186;
        fill-rule: evenodd;
      }
    </style>
  </defs>
  <path id="icon" class="cls-1" d="M875.765,480.4a0.711,0.711,0,0,0-1,0l-8.526,8.568a2.836,2.836,0,0,1-4.01-4.012L871,476.141a1.772,1.772,0,0,1,2.506,2.507l-7.272,7.269h0a0.709,0.709,0,0,1-1-1l3.51-3.509a0.709,0.709,0,1,0-1-1l-3.51,3.509a2.127,2.127,0,0,0,3.009,3.007l0,0,7.269-7.265A3.19,3.19,0,1,0,870,475.14l-8.779,8.819a4.255,4.255,0,0,0,6.02,6.014l8.527-8.569A0.708,0.708,0,0,0,875.765,480.4Z" transform="translate(-860 -474.219)"/>
</svg>
