<svg xmlns="http://www.w3.org/2000/svg" width="22.063" height="20.094" viewBox="0 0 22.063 20.094">
  <metadata><?xpacket begin="﻿" id="W5M0MpCehiHzreSzNTczkc9d"?>
<x:xmpmeta xmlns:x="adobe:ns:meta/" x:xmptk="Adobe XMP Core 5.6-c138 79.159824, 2016/09/14-01:09:01        ">
   <rdf:RDF xmlns:rdf="http://www.w3.org/1999/02/22-rdf-syntax-ns#">
      <rdf:Description rdf:about=""/>
   </rdf:RDF>
</x:xmpmeta>
                                                                                                    
                                                                                                    
                                                                                                    
                                                                                                    
                                                                                                    
                                                                                                    
                                                                                                    
                                                                                                    
                                                                                                    
                                                                                                    
                                                                                                    
                                                                                                    
                                                                                                    
                                                                                                    
                                                                                                    
                                                                                                    
                                                                                                    
                                                                                                    
                                                                                                    
                                                                                                    
                           
<?xpacket end="w"?></metadata>
<defs>
    <style>
      .cls-1 {
        fill: #657186;
        fill-rule: evenodd;
      }
    </style>
  </defs>
  <path id="icon_" data-name="icon  " class="cls-1" d="M673.974,491.382a5.525,5.525,0,1,1,1.2-1.8A5.537,5.537,0,0,1,673.974,491.382Zm0.046-5.556a4.313,4.313,0,1,0,.324,1.64A4.3,4.3,0,0,0,674.02,485.826Zm-3.815,2.567-1.546,1.882a0.623,0.623,0,0,1-.962-0.793l1.545-1.881-0.012-.082a0.924,0.924,0,0,1-.006-0.105,0.975,0.975,0,0,1,.39-0.782v-2.054a0.631,0.631,0,0,1,.183-0.443,0.626,0.626,0,0,1,1.068.443v2.116a1,1,0,0,1,.229.318A0.98,0.98,0,0,1,670.205,488.393Zm3.276-7.369a0.63,0.63,0,0,1-.137.206l0,0a0.629,0.629,0,0,1-.443.182,0.624,0.624,0,0,1-.241-0.048,0.636,0.636,0,0,1-.205-0.137l-0.006-.007a0.627,0.627,0,0,1-.178-0.439v-4.02a1.289,1.289,0,0,0-.024-0.249,1.362,1.362,0,0,0-.073-0.24,1.435,1.435,0,0,0-.119-0.222,1.3,1.3,0,0,0-.161-0.195,1.356,1.356,0,0,0-.195-0.161,1.32,1.32,0,0,0-.222-0.12,1.349,1.349,0,0,0-.239-0.072,1.285,1.285,0,0,0-.25-0.025c-0.25,0-.538.007-0.84,0.014-0.665.014-1.4,0.03-1.887-.016a0.627,0.627,0,0,1-.225-0.057,0.637,0.637,0,0,1-.189-0.136,0.627,0.627,0,0,1-.13-0.2,0.636,0.636,0,0,1,0-.47,0.642,0.642,0,0,1,.13-0.2l0,0a0.624,0.624,0,0,1,.186-0.132,0.644,0.644,0,0,1,.222-0.057,17.812,17.812,0,0,1,1.882-.016c0.3,0.007.589,0.015,0.846,0.015a2.494,2.494,0,0,1,.971.193,2.617,2.617,0,0,1,.44.236,2.686,2.686,0,0,1,.386.318,2.552,2.552,0,0,1,.554.828,2.493,2.493,0,0,1,.144.476,2.526,2.526,0,0,1,.049.5v4.02A0.619,0.619,0,0,1,673.481,481.024Zm-6.562-4.414,0,0a0.634,0.634,0,0,1-.2.135,0.645,0.645,0,0,1-.24.047,0.624,0.624,0,0,1-.241-0.048,0.636,0.636,0,0,1-.2-0.137l-0.006-.007a0.648,0.648,0,0,1-.132-0.2,0.631,0.631,0,0,1-.046-0.238v-2.63a0.636,0.636,0,0,1,.184-0.447,0.636,0.636,0,0,1,.2-0.137,0.629,0.629,0,0,1,.482,0,0.647,0.647,0,0,1,.2.137l0,0a0.611,0.611,0,0,1,.135.2,0.619,0.619,0,0,1,.048.24v2.63a0.629,0.629,0,0,1-.048.242A0.643,0.643,0,0,1,666.919,476.61Zm-1.728-1.315a0.636,0.636,0,0,1-.205.137,0.624,0.624,0,0,1-.241.048h-2.628a0.631,0.631,0,0,1-.583-0.872,0.636,0.636,0,0,1,.137-0.2l0.007-.007a0.648,0.648,0,0,1,.2-0.132,0.629,0.629,0,0,1,.237-0.046h2.628a0.624,0.624,0,0,1,.241.047,0.655,0.655,0,0,1,.205.138l0.006,0.006a0.641,0.641,0,0,1,.132.2,0.631,0.631,0,0,1,0,.478A0.633,0.633,0,0,1,665.191,475.3Zm-4.179,1.315,0,0a0.649,0.649,0,0,1-.2.135,0.623,0.623,0,0,1-.24.048,0.622,0.622,0,0,1-.444-0.185l0,0a0.644,0.644,0,0,1-.136-0.2,0.638,0.638,0,0,1-.047-0.24v-2.63a0.633,0.633,0,0,1,.048-0.242,0.621,0.621,0,0,1,.137-0.2l0,0a0.637,0.637,0,0,1,.2-0.135,0.624,0.624,0,0,1,.48,0,0.647,0.647,0,0,1,.2.137,0.636,0.636,0,0,1,.137.2,0.629,0.629,0,0,1,.048.242v2.63A0.631,0.631,0,0,1,661.012,476.61Zm-1.7-1.315,0,0a0.629,0.629,0,0,1-.443.182h-2.78a1.274,1.274,0,0,0-.249.025,1.349,1.349,0,0,0-.239.072,1.4,1.4,0,0,0-.222.12,1.308,1.308,0,0,0-.2.16l0,0a1.276,1.276,0,0,0-.158.194,1.239,1.239,0,0,0-.119.221,1.26,1.26,0,0,0-.1.489v10.161a1.274,1.274,0,0,0,.024.249,1.261,1.261,0,0,0,.073.24,1.278,1.278,0,0,0,.119.222,1.263,1.263,0,0,0,.161.2,1.3,1.3,0,0,0,.417.28,1.3,1.3,0,0,0,.488.1h7.092l0,0.008a0.61,0.61,0,0,1,.152.047,0.623,0.623,0,0,1,.19.13l0,0a0.629,0.629,0,0,1,.182.443,0.627,0.627,0,0,1-.185.446l-0.007.007a0.629,0.629,0,0,1-.439.179h-6.984a2.516,2.516,0,0,1-.494-0.049,2.474,2.474,0,0,1-.476-0.145,2.547,2.547,0,0,1-.44-0.236,2.511,2.511,0,0,1-.386-0.318,2.526,2.526,0,0,1-.747-1.8V476.764a2.526,2.526,0,0,1,.048-0.5,2.552,2.552,0,0,1,.7-1.3,2.543,2.543,0,0,1,.826-0.554,2.547,2.547,0,0,1,.476-0.145,2.515,2.515,0,0,1,.494-0.048h2.78a0.627,0.627,0,0,1,.241.047,0.651,0.651,0,0,1,.2.138,0.628,0.628,0,0,1,.138.687A0.636,0.636,0,0,1,659.314,475.3Zm1.108,12.961h0.008c0.419,0,.842-0.006,1.246,0H660.43c-0.227,0-.448,0-0.677,0h0.669Zm-3.878-3.627a0.627,0.627,0,0,1,.446-0.185h1.918a0.624,0.624,0,0,1,.241.048,0.632,0.632,0,0,1,.2.137l0,0a0.654,0.654,0,0,1,.135.2,0.645,0.645,0,0,1,.047.24,0.624,0.624,0,0,1-.048.241,0.636,0.636,0,0,1-.137.205l0,0a0.629,0.629,0,0,1-.2.136,0.636,0.636,0,0,1-.239.047H656.99a0.624,0.624,0,0,1-.241-0.048,0.61,0.61,0,0,1-.205-0.137l-0.006-.006a0.639,0.639,0,0,1-.179-0.44,0.633,0.633,0,0,1,.048-0.242A0.621,0.621,0,0,1,656.544,484.629Zm-0.137-2.783a0.64,0.64,0,0,1,.136-0.2l0,0a0.633,0.633,0,0,1,.2-0.135,0.623,0.623,0,0,1,.24-0.048H661.3a0.628,0.628,0,0,1,.241.048,0.636,0.636,0,0,1,.205.137,0.628,0.628,0,0,1,.136.2,0.62,0.62,0,0,1,0,.483,0.605,0.605,0,0,1-.137.2,0.637,0.637,0,0,1-.2.137,0.624,0.624,0,0,1-.241.048H656.99a0.631,0.631,0,0,1-.446-0.185l-0.006-.007a0.623,0.623,0,0,1-.179-0.439A0.629,0.629,0,0,1,656.407,481.846Zm0.342-2.041a0.605,0.605,0,0,1-.205-0.137,0.63,0.63,0,0,1,0-.891l0,0a0.629,0.629,0,0,1,.2-0.136,0.636,0.636,0,0,1,.239-0.047h7a0.624,0.624,0,0,1,.241.048,0.636,0.636,0,0,1,.205.137l0,0a0.658,0.658,0,0,1,.135.2,0.638,0.638,0,0,1,.047.24,0.631,0.631,0,0,1-.185.445l-0.007.007a0.643,0.643,0,0,1-.2.132,0.631,0.631,0,0,1-.238.047h-7A0.621,0.621,0,0,1,656.749,479.805Z" transform="translate(-653.531 -472.906)"/>
</svg>
